<svg width="90" height="32" viewBox="0 0 90 32" fill="none" xmlns="http://www.w3.org/2000/svg">
<path fill-rule="evenodd" clip-rule="evenodd" d="M81.6474 8.76864L81.5292 8.61616L81.4116 8.49853L81.294 8.40815L81.1763 8.35312L81.0238 8.29052H80.9062L80.7608 8.26275H80.6427H11.9964H11.934H11.8786H11.7886H11.7263H11.6362L11.5531 8.29052H11.463L11.373 8.32536L11.2829 8.35312L11.2276 8.40815L11.1375 8.47076L11.0475 8.5263L10.9574 8.61616L10.902 8.7338L10.812 8.8585L10.7496 9.00391L10.902 2.84644L10.9851 2.90198L11.1029 2.92974L11.1652 2.99184L11.2829 3.01961L11.3453 3.05445L11.4354 3.08222L11.5185 3.10948H11.6085L11.6985 3.13725H11.7609H11.844H11.934L11.9964 3.17208H12.0864H12.1695H12.2318H79.5764H79.6662L79.7495 3.13725H79.8394H79.957H80.0469L80.1373 3.10948H80.2549L80.3448 3.08222H80.4352L80.525 3.05445L80.6083 3.01961L80.6982 2.99184L80.7608 2.96407L80.8507 2.90198L80.9062 2.87421L80.9961 2.84644L81.6474 8.76864Z" fill="#100F0D"/>
<path fill-rule="evenodd" clip-rule="evenodd" d="M80.6427 8.32534H80.7608L80.9062 8.35311L81.0239 8.38037L81.1415 8.40814L81.2662 8.47074L81.3839 8.56061L81.4672 8.65098L81.5919 8.79639L81.7095 8.73378L81.5919 8.56061L81.4672 8.44297L81.3218 8.35311L81.2041 8.2905L81.0582 8.23496L80.9062 8.20063H80.7608L80.6427 8.17286V8.32534Z" fill="#100F0D"/>
<path fill-rule="evenodd" clip-rule="evenodd" d="M11.9964 8.32532H80.6427V8.17284H11.9964L11.9617 8.20061L11.934 8.26271L11.9617 8.32532H11.9964Z" fill="#100F0D"/>
<path fill-rule="evenodd" clip-rule="evenodd" d="M10.812 9.03168L10.8674 8.88628L10.9575 8.76864L11.0198 8.67827L11.0752 8.5884L11.1652 8.5263L11.2553 8.47076L11.3107 8.40816L11.4007 8.38039L11.4908 8.35313H11.5531L11.6362 8.32536H11.7263H11.7886H11.8787H11.934H11.9964V8.17289H11.934H11.8787H11.7886H11.7263L11.6085 8.20066H11.5185L11.4354 8.23499L11.373 8.26275L11.2553 8.29052L11.1652 8.35313L11.0752 8.40816L10.9851 8.49853L10.9297 8.5884L10.8397 8.70604L10.7496 8.82367L10.6942 8.97614V9.03168L10.7219 9.05945H10.7774L10.812 9.03168Z" fill="#100F0D"/>
<path fill-rule="evenodd" clip-rule="evenodd" d="M10.8397 2.84644L10.6942 9.00391H10.812L10.9851 2.84644L10.9575 2.78434L10.902 2.75657L10.8674 2.78434L10.8397 2.84644Z" fill="#100F0D"/>
<path fill-rule="evenodd" clip-rule="evenodd" d="M12.2318 3.08226H11.6985L11.6085 3.05449H11.5531L11.463 3.01965L11.373 2.99188L11.2829 2.96411L11.1929 2.92978L11.1375 2.87425L11.0197 2.84648L10.9574 2.78438L10.8674 2.90202L10.9574 2.96411L11.0752 2.99188L11.1652 3.05449L11.2553 3.08226L11.3107 3.10952L11.4354 3.13729L11.5185 3.17212L11.5808 3.19989H11.6708H11.7609H11.844L11.9063 3.22766H11.9964H12.0864H12.1695H12.2318V3.08226Z" fill="#100F0D"/>
<path fill-rule="evenodd" clip-rule="evenodd" d="M79.5763 3.08226H12.2318V3.22766H79.5763L79.6313 3.19989V3.17212V3.10952L79.5763 3.08226Z" fill="#100F0D"/>
<path fill-rule="evenodd" clip-rule="evenodd" d="M80.9335 2.78438L80.8784 2.81215L80.8158 2.84648L80.7608 2.90202L80.6704 2.92978L80.5806 2.96411L80.4902 2.99188H80.4074L80.3175 3.01965L80.2271 3.05449H80.1373L80.0469 3.08226H79.957H79.8394H79.7495H79.6662H79.5764V3.22766H79.6662H79.7495H79.8742L79.957 3.19989H80.0469H80.165L80.2549 3.17212L80.3448 3.13729H80.4351L80.5528 3.10952L80.6083 3.08226L80.733 3.05449L80.7881 3.01965L80.8784 2.96411L80.9683 2.92978L81.0238 2.87425L81.0582 2.84648L81.0238 2.78438L80.9961 2.75661L80.9335 2.78438Z" fill="#100F0D"/>
<path fill-rule="evenodd" clip-rule="evenodd" d="M81.7094 8.73386L81.0582 2.81218L80.9062 2.84651L81.557 8.7687L81.5918 8.79647L81.6474 8.82373L81.6746 8.79647L81.7094 8.73386Z" fill="#100F0D"/>
<path fill-rule="evenodd" clip-rule="evenodd" d="M78.3641 3.94106V3.87845H12.7928V3.99609H78.3641V3.94106Z" fill="white"/>
<path fill-rule="evenodd" clip-rule="evenodd" d="M85.1103 10.1884L85.3804 10.1606H85.6157L85.8514 10.1263L86.0867 10.0707L86.329 10.0081L86.5648 9.95308L86.7723 9.89048L87.0081 9.80061L87.2156 9.7173L87.4236 9.5926L87.6316 9.47496L87.8048 9.35733L88.0123 9.21192L88.1925 9.05945L88.3723 8.91405L88.5182 8.76864L88.6979 8.5884L88.8433 8.443L88.9887 8.23499L89.1134 8.05525L89.2316 7.84724L89.3492 7.63974L89.4669 7.43173L89.5567 7.22372L89.6471 7.01621L89.7299 6.78044L89.7925 6.54517L89.848 6.33716L89.8824 6.10189L89.9101 5.86662L89.9379 5.59651V5.36073V5.09769L89.9101 4.85535L89.8824 4.61957L89.848 4.3843L89.7925 4.14852L89.7299 3.90618L89.6471 3.70524L89.5567 3.4629L89.4669 3.2554L89.3492 3.05446L89.2316 2.84645L89.1134 2.66671L88.9887 2.4587L88.8433 2.27846L88.6979 2.10529L88.5182 1.95282L88.3723 1.77964L88.1925 1.62767L88.0123 1.48227L87.8048 1.36413L87.6316 1.21216L87.4236 1.12886L87.2156 1.00415L87.0081 0.920848L86.7723 0.830981L86.5648 0.741115L86.329 0.678508L86.0867 0.622972L85.8514 0.595711L85.6157 0.560873L85.3804 0.533104H85.1103H84.8745L84.6115 0.560873L84.3691 0.595711L84.1339 0.622972L83.8981 0.678508L83.6906 0.741115L83.4548 0.830981L83.2473 0.920848L83.0115 1.00415L82.804 1.12886L82.596 1.21216L82.4158 1.36413L82.2083 1.48227L82.0351 1.62767L81.8548 1.77964L81.7094 1.95282L81.5292 2.10529L81.3838 2.27846L81.2313 2.4587L81.1137 2.66671L80.996 2.84645L80.8784 3.05446L80.7608 3.2554L80.6704 3.4629L80.5805 3.70524L80.4902 3.90618L80.4351 4.14852L80.3725 4.3843L80.3448 4.61957L80.3175 4.85535L80.2827 5.09769V5.36073V5.59651L80.3175 5.86662L80.3448 6.10189L80.3725 6.33716L80.4351 6.54517L80.4902 6.78044L80.5805 7.01621L80.6704 7.22372L80.7608 7.43173L80.8784 7.63974L80.996 7.84724L81.1137 8.05525L81.2313 8.23499L81.3838 8.443L81.5292 8.5884L81.7094 8.76864L81.8548 8.91405L82.0351 9.05945L82.2083 9.21192L82.4158 9.35733L82.596 9.47496L82.804 9.5926L83.0115 9.7173L83.2473 9.80061L83.4548 9.89048L83.6906 9.95308L83.8981 10.0081L84.1339 10.0707L84.3691 10.1263L84.6115 10.1606H84.8745L85.1103 10.1884Z" fill="#100F0D"/>
<path fill-rule="evenodd" clip-rule="evenodd" d="M89.8824 5.36073V5.59651L89.848 5.83178L89.8203 6.07412L89.7925 6.3099L89.7299 6.54517L89.6471 6.78045L89.5845 6.98845L89.4946 7.19646L89.4048 7.40397L89.2866 7.61197L89.1968 7.81948L89.0514 8.02749L88.9337 8.20066L88.7883 8.3804L88.6358 8.56064L88.4904 8.73381L88.3102 8.88628L88.13 9.03169L87.9568 9.18416L87.7771 9.30179L87.6039 9.41943L87.3959 9.53757L87.1884 9.65521L86.9804 9.74508L86.7451 9.83495L86.5371 9.89048L86.2947 9.95308L86.059 10.0081L85.8237 10.0707L85.6157 10.0985H85.3526H85.1103V10.2439H85.3804L85.6157 10.2161L85.8515 10.1884L86.0867 10.1606L86.3291 10.0985L86.5648 10.0081L86.8001 9.95308L87.0081 9.86272L87.2434 9.77284L87.4514 9.65521L87.6589 9.53757L87.8669 9.41943L88.0472 9.26696L88.2203 9.12155L88.4001 8.97615L88.5803 8.82368L88.7535 8.65101L88.906 8.47077L89.0236 8.29053L89.169 8.08303L89.2866 7.87502L89.4048 7.70185L89.5224 7.49384L89.6123 7.25856L89.7027 7.05056L89.7925 6.81528L89.848 6.57294L89.9102 6.33716L89.9379 6.10189L89.9728 5.86662L90 5.62377V5.36073H89.8824Z" fill="#100F0D"/>
<path fill-rule="evenodd" clip-rule="evenodd" d="M85.1103 0.595698H85.3526L85.6157 0.622959L85.8237 0.650727L86.059 0.678495L86.2947 0.741102L86.5371 0.803201L86.7451 0.886505L86.9804 0.976372L87.1884 1.06624L87.3959 1.18438L87.6039 1.27425L87.7771 1.41965L87.9568 1.53729L88.13 1.68976L88.3102 1.83517L88.4904 1.98764L88.6358 2.16081L88.7883 2.34105L88.9337 2.52079L89.0514 2.69396L89.1968 2.8742L89.2866 3.08221L89.4048 3.28972L89.4946 3.49773L89.5845 3.733L89.6471 3.94101L89.7299 4.17628L89.7925 4.38429L89.8203 4.61956L89.848 4.85533L89.8824 5.12544V5.36072H90V5.09767L89.9728 4.85533L89.9379 4.61956L89.9102 4.38429L89.848 4.14851L89.7925 3.90617L89.7027 3.6709L89.6123 3.43512L89.5224 3.22762L89.4048 3.01961L89.2866 2.8121L89.169 2.60409L89.0236 2.43092L88.906 2.25068L88.7535 2.07094L88.5803 1.89777L88.4001 1.71753L88.2203 1.57213L88.0472 1.41965L87.8669 1.30202L87.6589 1.18438L87.4514 1.06624L87.2434 0.948604L87.0081 0.830969L86.8001 0.76887L86.5648 0.678495L86.3291 0.622959L86.0867 0.56086L85.8515 0.533092L85.6157 0.477555H85.3804L85.1103 0.443225V0.595698Z" fill="#100F0D"/>
<path fill-rule="evenodd" clip-rule="evenodd" d="M80.3448 5.36072V5.12544L80.3726 4.85533L80.4074 4.61956L80.4352 4.38429L80.4902 4.17628L80.5528 3.94101L80.6427 3.733L80.7331 3.49773L80.8159 3.28972L80.9335 3.08221L81.0582 2.8742L81.1763 2.69396L81.294 2.52079L81.4394 2.34105L81.5919 2.16081L81.7373 1.98764L81.9175 1.83517L82.0907 1.68976L82.2704 1.53729L82.4506 1.41965L82.6516 1.27425L82.8313 1.18438L83.0393 1.06624L83.2473 0.976372L83.4826 0.886505L83.6906 0.803201L83.9259 0.741102L84.1682 0.678495L84.404 0.650727L84.6393 0.622959L84.8746 0.595698H85.1103V0.443225L84.8473 0.477555H84.6115L84.3692 0.533092L84.1339 0.56086L83.8981 0.622959L83.6629 0.678495L83.4271 0.76887L83.2196 0.830969L82.9838 0.948604L82.7763 1.06624L82.5683 1.18438L82.388 1.30202L82.1805 1.41965L82.0003 1.57213L81.8271 1.71753L81.6474 1.89777L81.5015 2.07094L81.3217 2.25068L81.2041 2.43092L81.0582 2.60409L80.9335 2.8121L80.8159 3.01961L80.6982 3.22762L80.6084 3.43512L80.525 3.6709L80.4352 3.90617L80.3726 4.14851L80.3175 4.38429L80.2827 4.61956L80.2549 4.85533L80.2272 5.09767V5.36072H80.3448Z" fill="#100F0D"/>
<path fill-rule="evenodd" clip-rule="evenodd" d="M85.1103 10.0985H84.6393L84.404 10.0707L84.1682 10.0081L83.9259 9.95308L83.6906 9.89048L83.4826 9.83495L83.2473 9.74508L83.0393 9.65521L82.8313 9.53757L82.6516 9.41943L82.4506 9.30179L82.2704 9.18416L82.0907 9.03169L81.9175 8.88628L81.7373 8.73381L81.5919 8.56064L81.4394 8.3804L81.294 8.20066L81.1763 8.02749L81.0582 7.81948L80.9335 7.61197L80.8159 7.40397L80.7331 7.19646L80.6427 6.98845L80.5528 6.78045L80.4902 6.54517L80.4352 6.3099L80.4074 6.07412L80.3726 5.83178L80.3448 5.59651V5.36073H80.2272V5.62377L80.2549 5.86662L80.2827 6.10189L80.3175 6.33716L80.3726 6.57294L80.4352 6.81528L80.525 7.05056L80.6084 7.25856L80.6982 7.49384L80.8159 7.70185L80.9335 7.87502L81.0582 8.08303L81.2041 8.29053L81.3217 8.47077L81.5015 8.65101L81.6474 8.82368L81.8271 8.97615L82.0003 9.12155L82.1805 9.26696L82.388 9.41943L82.5683 9.53757L82.7763 9.65521L82.9838 9.77284L83.2196 9.86272L83.4271 9.95308L83.6629 10.0081L83.8981 10.0985L84.1339 10.1606L84.3692 10.1884L84.6115 10.2161L84.8473 10.2439H85.1103V10.0985Z" fill="#100F0D"/>
<path fill-rule="evenodd" clip-rule="evenodd" d="M88.4626 4.41207L88.6358 3.3175L87.6038 2.92976L87.5412 2.84646L87.1535 1.83519L86.0589 2.01543L85.969 1.98766L85.1102 1.30204L84.2514 1.98766L84.1681 2.01543L83.067 1.83519L82.6858 2.84646L82.6237 2.92976L81.5918 3.3175L81.7649 4.41207L81.7372 4.50194L81.0581 5.36074L81.7372 6.21953L81.7649 6.3099L81.5918 7.3762L82.6237 7.79172L82.6858 7.84725L83.067 8.88629L84.1681 8.70604L84.2514 8.73381L85.1102 9.41943L85.969 8.73381L86.0589 8.70604L87.1535 8.88629L87.5412 7.84725L87.6038 7.79172L88.6358 7.3762L88.4626 6.3099L88.4904 6.21953L89.1689 5.36074L88.4904 4.50194L88.4626 4.41207Z" fill="white"/>
<path fill-rule="evenodd" clip-rule="evenodd" d="M88.5803 3.31742L88.4001 4.38422L88.5182 4.41199L88.698 3.34519V3.28965L88.6359 3.25532H88.6081L88.5803 3.31742Z" fill="#100F0D"/>
<path fill-rule="evenodd" clip-rule="evenodd" d="M87.569 2.99188L88.6081 3.38013L88.6636 3.25542L87.6316 2.87424H87.569L87.5413 2.90201V2.96411L87.569 2.99188Z" fill="#100F0D"/>
<path fill-rule="evenodd" clip-rule="evenodd" d="M87.4791 2.90201L87.569 2.96411L87.6589 2.87424L87.569 2.81215L87.5412 2.78438L87.4791 2.81215V2.84648V2.90201Z" fill="#100F0D"/>
<path fill-rule="evenodd" clip-rule="evenodd" d="M87.0702 1.863L87.4791 2.87427L87.6038 2.8465L87.2156 1.80747L87.1535 1.7797H87.1257L87.0702 1.80747V1.863Z" fill="#100F0D"/>
<path fill-rule="evenodd" clip-rule="evenodd" d="M86.0317 2.07092H86.0589L87.1535 1.89775L87.1257 1.77961L86.0589 1.95278H86.0039V2.01539L86.0317 2.07092Z" fill="#100F0D"/>
<path fill-rule="evenodd" clip-rule="evenodd" d="M85.9413 2.04315L86.0316 2.07092L86.0867 1.95278L85.969 1.92552H85.9413L85.9135 1.95278V2.01539L85.9413 2.04315Z" fill="#100F0D"/>
<path fill-rule="evenodd" clip-rule="evenodd" d="M85.0825 1.33639L85.9136 2.04321L86.0039 1.92558L85.1724 1.24652L85.1103 1.21219L85.0825 1.24652L85.0547 1.30206L85.0825 1.33639Z" fill="#100F0D"/>
<path fill-rule="evenodd" clip-rule="evenodd" d="M84.3136 2.04321L85.1724 1.33639L85.0825 1.24652L84.2237 1.92558L84.1959 1.98768L84.2237 2.01544L84.2515 2.04321H84.3136Z" fill="#100F0D"/>
<path fill-rule="evenodd" clip-rule="evenodd" d="M84.1338 2.07092H84.1959L84.2858 2.04315L84.2237 1.92552L84.1338 1.95278L84.1061 1.98762V2.01539L84.1338 2.07092Z" fill="#100F0D"/>
<path fill-rule="evenodd" clip-rule="evenodd" d="M83.0671 1.89775L84.1339 2.07092L84.1682 1.95278L83.1014 1.77961H83.0393L83.0115 1.80738V1.86292L83.0671 1.89775Z" fill="#100F0D"/>
<path fill-rule="evenodd" clip-rule="evenodd" d="M82.7414 2.87427L83.1291 1.86301L83.0115 1.80747L82.6237 2.84651V2.90204L82.6515 2.92981H82.7136L82.7414 2.87427Z" fill="#100F0D"/>
<path fill-rule="evenodd" clip-rule="evenodd" d="M82.6515 2.96418L82.7414 2.90208L82.6515 2.81221L82.5682 2.87431L82.5339 2.92984L82.5682 2.96418L82.6237 2.99194L82.6515 2.96418Z" fill="#100F0D"/>
<path fill-rule="evenodd" clip-rule="evenodd" d="M81.6196 3.38013L82.6516 2.99188L82.596 2.87424L81.557 3.25542L81.5292 3.28975V3.34529L81.557 3.38013H81.6196Z" fill="#100F0D"/>
<path fill-rule="evenodd" clip-rule="evenodd" d="M81.8271 4.43929V4.38425L81.6474 3.31745L81.5292 3.34522L81.7095 4.41202L81.7372 4.47412H81.765L81.8271 4.43929Z" fill="#100F0D"/>
<path fill-rule="evenodd" clip-rule="evenodd" d="M81.7927 4.52975L81.827 4.43938L81.7094 4.38435L81.6746 4.47422V4.52975L81.7094 4.56409H81.7649L81.7927 4.52975Z" fill="#100F0D"/>
<path fill-rule="evenodd" clip-rule="evenodd" d="M81.1137 5.38851L81.7927 4.52971L81.6746 4.43934L80.996 5.29864L80.9683 5.36074L80.996 5.38851L81.0581 5.42334L81.1137 5.38851Z" fill="#100F0D"/>
<path fill-rule="evenodd" clip-rule="evenodd" d="M81.7928 6.15752L81.1137 5.29873L80.9961 5.3886L81.6746 6.24739L81.7372 6.28223L81.7928 6.24739V6.21962V6.15752Z" fill="#100F0D"/>
<path fill-rule="evenodd" clip-rule="evenodd" d="M81.827 6.28219L81.7927 6.19182L81.6746 6.21959L81.7094 6.30996L81.7372 6.36499H81.7927L81.827 6.33722V6.28219Z" fill="#100F0D"/>
<path fill-rule="evenodd" clip-rule="evenodd" d="M81.6474 7.40399L81.8271 6.30993L81.7095 6.28216L81.5292 7.37623V7.43176H81.5918H81.6196L81.6474 7.40399Z" fill="#100F0D"/>
<path fill-rule="evenodd" clip-rule="evenodd" d="M82.6515 7.70189L81.6196 7.31414L81.5569 7.43178L82.596 7.84729H82.6515L82.6858 7.79175V7.75742L82.6515 7.70189Z" fill="#100F0D"/>
<path fill-rule="evenodd" clip-rule="evenodd" d="M82.7414 7.79177L82.6515 7.72968L82.5682 7.81954L82.6515 7.87508L82.6859 7.90991L82.7414 7.87508V7.84731V7.79177Z" fill="#100F0D"/>
<path fill-rule="evenodd" clip-rule="evenodd" d="M83.1291 8.85859L82.7414 7.81956L82.6237 7.87509L83.0115 8.88636L83.0392 8.94189H83.1013L83.1291 8.91413V8.85859Z" fill="#100F0D"/>
<path fill-rule="evenodd" clip-rule="evenodd" d="M84.1338 8.65109L83.067 8.79649L83.1014 8.94189L84.1681 8.76872L84.2237 8.73388V8.67835L84.1959 8.65109H84.1338Z" fill="#100F0D"/>
<path fill-rule="evenodd" clip-rule="evenodd" d="M84.3136 8.67824L84.2858 8.65098H84.1682L84.1339 8.76862L84.2515 8.79639L84.2858 8.76862L84.3136 8.73378V8.67824Z" fill="#100F0D"/>
<path fill-rule="evenodd" clip-rule="evenodd" d="M85.1724 9.35722L84.3136 8.67816L84.2238 8.76853L85.0825 9.47485H85.1103H85.1724V9.41932V9.35722Z" fill="#100F0D"/>
<path fill-rule="evenodd" clip-rule="evenodd" d="M85.9135 8.67816L85.0825 9.35722L85.1723 9.47485L86.0039 8.76853L86.0316 8.7337V8.67816L85.969 8.6509L85.9135 8.67816Z" fill="#100F0D"/>
<path fill-rule="evenodd" clip-rule="evenodd" d="M86.0589 8.65098H85.9413L85.9691 8.79639L86.0589 8.76862L86.1215 8.73378V8.67824L86.0867 8.65098H86.0589Z" fill="#100F0D"/>
<path fill-rule="evenodd" clip-rule="evenodd" d="M87.1535 8.79649L86.059 8.65109V8.76872L87.1258 8.94189L87.1884 8.91413L87.2156 8.88636V8.82375L87.1535 8.79649Z" fill="#100F0D"/>
<path fill-rule="evenodd" clip-rule="evenodd" d="M87.4791 7.81955L87.0702 8.85858L87.2156 8.88635L87.6038 7.87509V7.81955L87.569 7.79178H87.5135L87.4791 7.81955Z" fill="#100F0D"/>
<path fill-rule="evenodd" clip-rule="evenodd" d="M87.569 7.72972L87.4791 7.79182L87.569 7.87512L87.6589 7.81959V7.79182V7.72972L87.6038 7.70195L87.569 7.72972Z" fill="#100F0D"/>
<path fill-rule="evenodd" clip-rule="evenodd" d="M88.6081 7.31414L87.569 7.70189L87.6316 7.84729L88.6636 7.43178L88.6979 7.40401V7.34191L88.6636 7.31414H88.6081Z" fill="#100F0D"/>
<path fill-rule="evenodd" clip-rule="evenodd" d="M88.4001 6.30986L88.5803 7.40393L88.698 7.37616L88.5182 6.2821L88.4905 6.24726H88.4627H88.4001V6.30986Z" fill="#100F0D"/>
<path fill-rule="evenodd" clip-rule="evenodd" d="M88.4279 6.19167L88.4001 6.28205L88.5182 6.30981L88.5455 6.21944V6.15734L88.4905 6.12957L88.4627 6.15734L88.4279 6.19167Z" fill="#100F0D"/>
<path fill-rule="evenodd" clip-rule="evenodd" d="M89.1412 5.29853L88.4279 6.15733L88.5455 6.24719L89.2316 5.3884L89.2589 5.36063L89.2316 5.29853H89.169H89.1412Z" fill="#100F0D"/>
<path fill-rule="evenodd" clip-rule="evenodd" d="M88.4279 4.52975L89.1412 5.38855L89.2316 5.29868L88.5455 4.43938H88.4905H88.4279L88.4001 4.50198L88.4279 4.52975Z" fill="#100F0D"/>
<path fill-rule="evenodd" clip-rule="evenodd" d="M88.4001 4.38438V4.43942L88.4279 4.52979L88.5455 4.47425L88.5182 4.38438L88.4905 4.35661H88.4279L88.4001 4.38438Z" fill="#100F0D"/>
<path fill-rule="evenodd" clip-rule="evenodd" d="M5.86663 11.6357H6.15749L6.45537 11.608L6.7532 11.5807L7.01639 11.5181L7.31421 11.4626L7.58432 11.4005L7.84751 11.3106L8.11767 11.1925L8.38087 11.0748L8.61634 10.9572L8.85878 10.8118L9.09426 10.6593L9.32973 10.5139L9.53754 10.3337L9.74534 10.1605L9.9531 9.95299L10.1609 9.74498L10.3341 9.53748L10.5142 9.32947L10.6596 9.0942L10.812 8.85842L10.9575 8.61608L11.0752 8.3803L11.1929 8.11726L11.3107 7.84716L11.4007 7.58411L11.463 7.314L11.5185 7.01613L11.5808 6.75309L11.6085 6.45521L11.6362 6.15733V5.86653V5.56865L11.6085 5.27077L11.5808 4.9729L11.5185 4.70985L11.463 4.41198L11.4007 4.14843L11.3107 3.87832L11.1929 3.61528L11.0752 3.34517L10.9575 3.1094L10.812 2.84636L10.6596 2.63885L10.5142 2.39651L10.3341 2.19557L10.1609 1.95273L9.9531 1.77956L9.74534 1.57205L9.53754 1.39181L9.32973 1.21207L9.09426 1.06616L8.85878 0.920759L8.61634 0.768794L8.38087 0.650651L8.11767 0.533015L7.84751 0.41538L7.58432 0.325514L7.31421 0.235139L7.01639 0.180105L6.7532 0.145271L6.45537 0.089735H6.15749L5.86663 0.0619669L5.56876 0.089735H5.27093L4.9731 0.145271L4.68219 0.180105L4.41209 0.235139L4.11426 0.325514L3.87879 0.41538L3.61554 0.533015L3.34543 0.650651L3.08224 0.768794L2.84677 0.920759L2.60433 1.06616L2.39652 1.21207L2.16105 1.39181L1.95324 1.57205L1.74548 1.77956L1.57231 1.95273L1.39222 2.19557L1.21213 2.39651L1.06668 2.63885L0.886588 2.84636L0.768851 3.1094L0.623396 3.34517L0.505659 3.61528L0.415639 3.87832L0.32557 4.14843L0.23555 4.41198L0.180115 4.70985L0.117813 4.9729L0.0900956 5.27077L0.0623779 5.56865V5.86653V6.15733L0.0900956 6.45521L0.117813 6.75309L0.180115 7.01613L0.23555 7.314L0.32557 7.58411L0.415639 7.84716L0.505659 8.11726L0.623396 8.3803L0.768851 8.61608L0.886588 8.85842L1.06668 9.0942L1.21213 9.32947L1.39222 9.53748L1.57231 9.74498L1.74548 9.95299L1.95324 10.1605L2.16105 10.3337L2.39652 10.5139L2.60433 10.6593L2.84677 10.8118L3.08224 10.9572L3.34543 11.0748L3.61554 11.1925L3.87879 11.3106L4.11426 11.4005L4.41209 11.4626L4.68219 11.5181L4.9731 11.5807L5.27093 11.608L5.56876 11.6357H5.86663Z" fill="#100F0D"/>
<path fill-rule="evenodd" clip-rule="evenodd" d="M11.5808 5.86661V6.15741L11.5531 6.45529L11.5185 6.7254L11.463 7.01621L11.4007 7.28631L11.3107 7.54936L11.2276 7.81947L11.1375 8.08301L11.0198 8.35312L10.902 8.58839L10.7496 8.82366L10.6042 9.05944L10.4518 9.26695L10.2786 9.50979L10.0986 9.71729L9.91847 9.91824L9.71763 10.0985L9.50982 10.2782L9.30207 10.4519L9.05963 10.6039L8.82415 10.7493L8.58863 10.9017L8.35315 11.0194L8.08304 11.1375L7.81985 11.2274L7.54969 11.3107L7.2865 11.4006L7.01639 11.4627L6.72548 11.5182L6.45537 11.553L6.1575 11.5808H5.86664V11.7262L6.1575 11.6984L6.45537 11.6707L6.7532 11.6358L7.05103 11.6081L7.31422 11.5182L7.61205 11.4627L7.87524 11.3728L8.14535 11.2551L8.40859 11.1375L8.65098 11.0194L8.88645 10.8674L9.1497 10.722L9.35745 10.5418L9.59298 10.3686L9.80073 10.1883L10.0085 10.0081L10.1886 9.8006L10.3964 9.59259L10.5418 9.35732L10.7219 9.12154L10.8674 8.88627L11.0198 8.651L11.1375 8.38038L11.2553 8.14511L11.373 7.875L11.463 7.61196L11.5185 7.31408L11.6085 7.05054L11.6362 6.75317L11.6708 6.45529L11.6986 6.15741L11.7263 5.86661H11.5808Z" fill="#100F0D"/>
<path fill-rule="evenodd" clip-rule="evenodd" d="M5.86664 0.145321H6.1575L6.45537 0.180155L6.72548 0.20742L7.01639 0.235188L7.2865 0.325563L7.54969 0.387661L7.81985 0.477529L8.08304 0.595672L8.35315 0.713306L8.58863 0.830942L8.82415 0.976345L9.05963 1.12882L9.30207 1.27422L9.50982 1.45446L9.71763 1.62764L9.91847 1.80737L10.0986 2.01538L10.2786 2.22289L10.4518 2.4309L10.6042 2.66667L10.7496 2.90194L10.902 3.13721L11.0198 3.38006L11.1375 3.6431L11.2276 3.90614L11.3107 4.14848L11.4007 4.43929L11.463 4.7099L11.5185 5.00728L11.5531 5.27082L11.5808 5.5687V5.86658H11.7263L11.6986 5.5687L11.6708 5.27082L11.6362 4.97295L11.6085 4.68213L11.5185 4.38426L11.463 4.11415L11.373 3.8506L11.2553 3.58049L11.1375 3.31746L11.0198 3.08219L10.8674 2.81208L10.7219 2.5763L10.5418 2.36879L10.3964 2.13302L10.1886 1.92551L10.0085 1.7175L9.80073 1.5095L9.59298 1.33632L9.35745 1.18435L9.1497 1.00411L8.88645 0.85871L8.65098 0.713306L8.40859 0.595672L8.14535 0.477529L7.87524 0.352823L7.61205 0.270027L7.31422 0.180155L7.05103 0.117553L6.7532 0.0620165L6.45537 0.0276861L6.1575 -8.2016e-05H5.86664V0.145321Z" fill="#100F0D"/>
<path fill-rule="evenodd" clip-rule="evenodd" d="M0.117787 5.86658V5.5687L0.145454 5.27082L0.180089 5.00728L0.235524 4.7099L0.297826 4.43929L0.387896 4.14848L0.477915 3.90614L0.595703 3.6431L0.678806 3.38006L0.831177 3.13721L0.948914 2.90194L1.09437 2.66667L1.27446 2.4309L1.45455 2.22289L1.62772 2.01538L1.80776 1.80737L2.01557 1.62764L2.22337 1.45446L2.43113 1.27422L2.66665 1.12882L2.87441 0.976345L3.13765 0.830942L3.38004 0.713306L3.64324 0.595672L3.87876 0.477529L4.14887 0.387661L4.43978 0.325563L4.70989 0.235188L4.97308 0.20742L5.27091 0.180155L5.56873 0.145321H5.86661V-8.2016e-05H5.56873L5.27091 0.0276861L4.97308 0.0620165L4.68217 0.117553L4.38434 0.180155L4.11423 0.270027L3.85104 0.352823L3.58093 0.477529L3.31769 0.595672L3.0545 0.713306L2.81211 0.85871L2.57658 1.00411L2.34111 1.18435L2.1333 1.33632L1.92555 1.5095L1.71774 1.7175L1.50993 1.92551L1.33681 2.13302L1.15672 2.36879L1.00435 2.5763L0.831177 2.81208L0.71344 3.08219L0.561069 3.31746L0.443281 3.58049L0.353262 3.8506L0.270159 4.11415L0.180089 4.38426L0.117787 4.68213L0.0623521 4.97295L0.0277176 5.27082L0 5.5687V5.86658H0.117787Z" fill="#100F0D"/>
<path fill-rule="evenodd" clip-rule="evenodd" d="M5.86661 11.5808H5.56873L5.27091 11.553L4.97308 11.5182L4.70989 11.4627L4.43978 11.4006L4.14887 11.3107L3.87876 11.2274L3.64324 11.1375L3.38004 11.0194L3.13765 10.9017L2.87441 10.7493L2.66665 10.6039L2.43113 10.4519L2.22337 10.2782L2.01557 10.0985L1.80776 9.91824L1.62772 9.71729L1.45455 9.50979L1.27446 9.26695L1.09437 9.05944L0.948914 8.82366L0.831177 8.58839L0.678806 8.32535L0.595703 8.08301L0.477915 7.81947L0.387896 7.54936L0.297826 7.28631L0.235524 7.01621L0.180089 6.7254L0.145454 6.45529L0.117787 6.15741V5.86661H0V6.15741L0.0277176 6.45529L0.0623521 6.75317L0.117787 7.05054L0.180089 7.31408L0.270159 7.61196L0.353262 7.875L0.443281 8.14511L0.561069 8.40815L0.71344 8.651L0.831177 8.88627L1.00435 9.12154L1.15672 9.35732L1.33681 9.59259L1.50993 9.8006L1.71774 10.0081L1.92555 10.1883L2.1333 10.3686L2.34111 10.5418L2.57658 10.722L2.81211 10.8674L3.0545 11.0194L3.31769 11.1375L3.58093 11.2551L3.85104 11.3728L4.11423 11.4627L4.38434 11.5182L4.68217 11.6081L4.97308 11.6358L5.27091 11.6707L5.56873 11.6984L5.86661 11.7262V11.5808Z" fill="#100F0D"/>
<path fill-rule="evenodd" clip-rule="evenodd" d="M9.89083 4.73725L10.0709 3.43517L8.85881 2.96412L8.76874 2.87426L8.29082 1.62772L6.9887 1.83522L6.87096 1.80745L5.86666 0.976425L4.82768 1.80745L4.70994 1.83522L3.40781 1.62772L2.9299 2.87426L2.87446 2.96412L1.62777 3.43517L1.83553 4.73725L1.80781 4.82762L0.976685 5.86666L1.80781 6.89862L1.83553 6.98849L1.62777 8.29057L2.87446 8.76868L2.9299 8.85855L3.40781 10.0708L4.70994 9.86275L4.82768 9.91829L5.86666 10.722L6.87096 9.91829L6.9887 9.86275L8.29082 10.0708L8.76874 8.85855L8.85881 8.76868L10.0709 8.29057L9.89083 6.98849V6.89862L10.722 5.86666L9.89083 4.82762V4.73725Z" fill="white"/>
<path fill-rule="evenodd" clip-rule="evenodd" d="M10.0085 3.40734L9.80072 4.70992L9.95309 4.73718L10.1609 3.43511L10.1263 3.38008L10.0985 3.34524L10.0432 3.38008L10.0085 3.40734Z" fill="#100F0D"/>
<path fill-rule="evenodd" clip-rule="evenodd" d="M8.79639 2.99192L8.8241 3.01968L10.0708 3.4978L10.0985 3.34533L8.88641 2.90205H8.8241L8.79639 2.92982V2.99192Z" fill="#100F0D"/>
<path fill-rule="evenodd" clip-rule="evenodd" d="M8.73409 2.90208L8.79644 2.99194L8.88646 2.90208L8.82416 2.81221H8.76872H8.73409L8.70642 2.87431L8.73409 2.90208Z" fill="#100F0D"/>
<path fill-rule="evenodd" clip-rule="evenodd" d="M8.23541 1.662L8.70641 2.90198L8.82415 2.84644L8.35315 1.62767L8.32543 1.57213H8.26313L8.23541 1.5999V1.662Z" fill="#100F0D"/>
<path fill-rule="evenodd" clip-rule="evenodd" d="M7.01638 1.92566L8.29079 1.71765V1.57225L6.98866 1.77975L6.93323 1.80752V1.86306L6.96095 1.89789L7.01638 1.92566Z" fill="#100F0D"/>
<path fill-rule="evenodd" clip-rule="evenodd" d="M6.87086 1.86306L6.96088 1.92566L7.01632 1.77975L6.89858 1.74542H6.84315L6.81543 1.80752V1.83529L6.87086 1.86306Z" fill="#100F0D"/>
<path fill-rule="evenodd" clip-rule="evenodd" d="M5.80426 1.03908L6.84319 1.86304L6.93321 1.77973L5.89428 0.920936H5.86661L5.80426 0.948704V0.976472V1.03908Z" fill="#100F0D"/>
<path fill-rule="evenodd" clip-rule="evenodd" d="M4.88997 1.86299L5.89427 1.03903L5.80425 0.920892L4.79995 1.77969L4.76532 1.80746L4.79995 1.86299L4.82762 1.89783L4.88997 1.86299Z" fill="#100F0D"/>
<path fill-rule="evenodd" clip-rule="evenodd" d="M4.73759 1.92566L4.85533 1.86306L4.82761 1.74542L4.70987 1.77975L4.64752 1.80752V1.86306L4.68216 1.89789L4.73759 1.92566Z" fill="#100F0D"/>
<path fill-rule="evenodd" clip-rule="evenodd" d="M3.40781 1.71765L4.70994 1.92566L4.73765 1.77975L3.43553 1.57225L3.38009 1.60001L3.34546 1.62778V1.68988L3.40781 1.71765Z" fill="#100F0D"/>
<path fill-rule="evenodd" clip-rule="evenodd" d="M3.0199 2.90204L3.49782 1.66206L3.34545 1.62773L2.87445 2.84651V2.90204L2.92989 2.92981H2.96452L3.0199 2.90204Z" fill="#100F0D"/>
<path fill-rule="evenodd" clip-rule="evenodd" d="M2.9021 2.99176L2.99217 2.9019L2.9021 2.81203L2.81208 2.9019L2.78436 2.96399L2.81208 2.99176L2.87438 3.01953L2.9021 2.99176Z" fill="#100F0D"/>
<path fill-rule="evenodd" clip-rule="evenodd" d="M1.66229 3.4978L2.90211 3.01968L2.84672 2.90205L1.59998 3.34533L1.57227 3.40743V3.4352L1.59998 3.4978H1.66229Z" fill="#100F0D"/>
<path fill-rule="evenodd" clip-rule="evenodd" d="M1.89781 4.70994L1.69 3.40736L1.57227 3.43513L1.78007 4.7372L1.80774 4.76497L1.83546 4.7998L1.89781 4.76497V4.70994Z" fill="#100F0D"/>
<path fill-rule="evenodd" clip-rule="evenodd" d="M1.86316 4.85525L1.89779 4.73712L1.78006 4.70985L1.74542 4.82749V4.88959L1.78006 4.91736L1.83544 4.88959L1.86316 4.85525Z" fill="#100F0D"/>
<path fill-rule="evenodd" clip-rule="evenodd" d="M1.03899 5.92163L1.8632 4.88967L1.74546 4.7998L0.921204 5.804V5.8666L0.948921 5.92163H0.976639H1.03899Z" fill="#100F0D"/>
<path fill-rule="evenodd" clip-rule="evenodd" d="M1.8632 6.84306L1.03899 5.80402L0.921204 5.92166L1.74546 6.93293L1.80777 6.96069L1.83548 6.93293L1.8632 6.89859V6.84306Z" fill="#100F0D"/>
<path fill-rule="evenodd" clip-rule="evenodd" d="M1.89779 7.01632V6.98856L1.86316 6.87092L1.74542 6.89869L1.78006 7.01632L1.80772 7.05066H1.86316L1.89779 7.01632Z" fill="#100F0D"/>
<path fill-rule="evenodd" clip-rule="evenodd" d="M1.69 8.32538L1.89781 7.01623L1.78007 6.98847L1.57227 8.29054V8.32538L1.6277 8.35315H1.66229L1.69 8.32538Z" fill="#100F0D"/>
<path fill-rule="evenodd" clip-rule="evenodd" d="M2.9021 8.7061L1.66228 8.23505L1.59998 8.35319L2.84672 8.82373H2.9021L2.92982 8.79647V8.73386L2.9021 8.7061Z" fill="#100F0D"/>
<path fill-rule="evenodd" clip-rule="evenodd" d="M2.99222 8.79643L2.90215 8.73382L2.81213 8.82369L2.90215 8.91406H2.96451L2.99222 8.88629L3.01989 8.85853L2.99222 8.79643Z" fill="#100F0D"/>
<path fill-rule="evenodd" clip-rule="evenodd" d="M3.49782 10.0707L3.0199 8.82361L2.87445 8.88621L3.34545 10.0984L3.38008 10.1605H3.43552L3.49782 10.0984V10.0707Z" fill="#100F0D"/>
<path fill-rule="evenodd" clip-rule="evenodd" d="M4.70984 9.80054L3.40771 10.008L3.43543 10.1605L4.73756 9.95302L4.76528 9.91818V9.86265V9.83488L4.70984 9.80054Z" fill="#100F0D"/>
<path fill-rule="evenodd" clip-rule="evenodd" d="M4.88999 9.8627L4.85535 9.83493L4.73762 9.80059L4.7099 9.95307L4.82764 9.98083L4.85535 9.95307L4.88999 9.91823V9.8627Z" fill="#100F0D"/>
<path fill-rule="evenodd" clip-rule="evenodd" d="M5.89425 10.6942L4.88995 9.86272L4.79993 9.95309L5.80423 10.7771L5.86658 10.8119L5.92196 10.7771V10.722L5.89425 10.6942Z" fill="#100F0D"/>
<path fill-rule="evenodd" clip-rule="evenodd" d="M6.84319 9.86277L5.80426 10.6943L5.89428 10.7771L6.93321 9.95314L6.96093 9.91831L6.93321 9.86277L6.89863 9.835L6.84319 9.86277Z" fill="#100F0D"/>
<path fill-rule="evenodd" clip-rule="evenodd" d="M7.01643 9.80059H6.96099L6.87097 9.83493L6.89869 9.98083L7.01643 9.95307L7.05106 9.91823V9.8627L7.01643 9.80059Z" fill="#100F0D"/>
<path fill-rule="evenodd" clip-rule="evenodd" d="M8.29077 10.008L7.01637 9.80054L6.98865 9.95302L8.29077 10.1605L8.32541 10.1262L8.35313 10.0984V10.0429L8.29077 10.008Z" fill="#100F0D"/>
<path fill-rule="evenodd" clip-rule="evenodd" d="M8.73408 8.79644L8.70641 8.8237L8.23541 10.0707L8.35315 10.0985L8.82415 8.88631V8.8237L8.79643 8.79644H8.73408Z" fill="#100F0D"/>
<path fill-rule="evenodd" clip-rule="evenodd" d="M8.79642 8.73382L8.73407 8.79643L8.82414 8.91406L8.88644 8.82369L8.91416 8.76866V8.73382L8.85877 8.70605L8.79642 8.73382Z" fill="#100F0D"/>
<path fill-rule="evenodd" clip-rule="evenodd" d="M10.0708 8.23505L8.8241 8.7061L8.8864 8.82373L10.0985 8.35319L10.1609 8.32542V8.26282L10.1262 8.23505H10.0708Z" fill="#100F0D"/>
<path fill-rule="evenodd" clip-rule="evenodd" d="M9.80072 7.01617L10.0085 8.32532L10.1609 8.29048L9.95309 6.9884L9.91846 6.93287H9.86307L9.83536 6.96063L9.80072 7.01617Z" fill="#100F0D"/>
<path fill-rule="evenodd" clip-rule="evenodd" d="M9.86307 6.84306L9.83536 6.87083L9.80072 6.98847L9.95309 7.01624L9.98081 6.8986L9.95309 6.84306L9.91846 6.8153L9.86307 6.84306Z" fill="#100F0D"/>
<path fill-rule="evenodd" clip-rule="evenodd" d="M10.6942 5.80396L9.86304 6.84299L9.95306 6.93286L10.7773 5.9216L10.812 5.86657L10.7773 5.80396H10.7219H10.6942Z" fill="#100F0D"/>
<path fill-rule="evenodd" clip-rule="evenodd" d="M9.86304 4.88967L10.6942 5.92163L10.7773 5.804L9.95306 4.7998L9.89076 4.76496L9.86304 4.7998L9.83533 4.82756L9.86304 4.88967Z" fill="#100F0D"/>
<path fill-rule="evenodd" clip-rule="evenodd" d="M9.80072 4.73721L9.83536 4.85535L9.98081 4.82758L9.95309 4.70994L9.91846 4.68218L9.86307 4.64734L9.83536 4.68218L9.80072 4.73721Z" fill="#100F0D"/>
<path fill-rule="evenodd" clip-rule="evenodd" d="M77.0828 28.0029L76.9995 27.8853L76.9374 27.802L76.8541 27.7399L76.792 27.6566L76.7087 27.601L76.6188 27.5389L76.5355 27.5111L76.4456 27.4556L76.3623 27.4208L76.2724 27.3935L76.1891 27.3657L76.0715 27.338H75.9882H75.8983H75.8085H75.7252H15.1686H15.0855H14.9954H14.8777H14.7669H14.6769H14.5591L14.4483 27.3657L14.3305 27.3935L14.2128 27.4556L14.102 27.5111L13.9842 27.601L13.8665 27.7121L13.7833 27.8297L13.6656 27.9751L13.5756 28.1483L13.4924 28.3492L13.6933 19.989L13.8111 20.0794L13.9288 20.1344L14.0673 20.197L14.1851 20.252L14.3028 20.3076L14.4206 20.3424L14.5314 20.3702L14.6214 20.3979H14.7323L14.85 20.4257H14.9677H15.0509L15.1686 20.453H15.2864H15.3695H15.4872H74.2777H74.4231L74.5407 20.4257H74.6861H74.7972L74.9426 20.3979H75.0602L75.2057 20.3702L75.3167 20.3424L75.4344 20.3076L75.5798 20.2798L75.6974 20.252L75.8085 20.2248L75.8983 20.1622L76.016 20.1066L76.0993 20.0516L76.1891 19.989L77.0828 28.0029Z" fill="#100F0D"/>
<path fill-rule="evenodd" clip-rule="evenodd" d="M75.7252 27.3936H75.9882L76.0715 27.4209H76.1614L76.2447 27.4557L76.3345 27.4835L76.4178 27.5112L76.5077 27.539L76.591 27.6011L76.6809 27.6566L76.7364 27.7122L76.8263 27.7743L76.8818 27.8576L76.9651 27.9475L77.0272 28.0308L77.1449 27.9752L77.055 27.8576L76.9995 27.7743L76.9096 27.6844L76.8263 27.6011L76.7364 27.539L76.6531 27.4835L76.5633 27.4557L76.4799 27.3936L76.3623 27.3658L76.2724 27.3381L76.1891 27.3103L76.0993 27.2825H75.9882H75.8983L75.8085 27.2482H75.7252V27.3936Z" fill="#100F0D"/>
<path fill-rule="evenodd" clip-rule="evenodd" d="M15.1686 27.3934H75.7251V27.248H15.1686L15.1132 27.2824V27.3379V27.3657L15.1686 27.3934Z" fill="#100F0D"/>
<path fill-rule="evenodd" clip-rule="evenodd" d="M13.5478 28.377L13.6379 28.1761L13.721 28.0029L13.811 27.8575L13.9288 27.7399L14.0396 27.6566L14.1297 27.5667L14.2474 27.5112L14.3582 27.4834L14.4759 27.4556L14.559 27.4208L14.6768 27.3935H14.7669H14.8777H14.9954H15.0855H15.1686V27.2481H15.0855H14.9954H14.8777H14.7669L14.6768 27.2824H14.5314L14.4206 27.3102L14.3028 27.338L14.185 27.3935L14.0673 27.4556L13.9288 27.5389L13.8387 27.6566L13.721 27.802L13.6102 27.9474L13.5201 28.1205L13.437 28.3215V28.377L13.4647 28.4048H13.5201L13.5478 28.377Z" fill="#100F0D"/>
<path fill-rule="evenodd" clip-rule="evenodd" d="M13.6379 19.989L13.437 28.3492H13.5478L13.7556 19.989V19.9612L13.6933 19.9335L13.6379 19.9612V19.989Z" fill="#100F0D"/>
<path fill-rule="evenodd" clip-rule="evenodd" d="M15.4872 20.3702H14.85L14.7669 20.3424H14.6491L14.5314 20.3076L14.4206 20.2798L14.3305 20.2248L14.2128 20.197L14.0673 20.1344L13.9842 20.0794L13.8388 20.0239L13.721 19.9335L13.6656 20.0516L13.7833 20.1344L13.8941 20.197L14.0396 20.2521L14.1573 20.3076L14.2751 20.3702L14.3859 20.398L14.5037 20.4258L14.6214 20.453L14.7322 20.4808H14.85H14.9677L15.0509 20.5156H15.1686H15.2863H15.3694H15.4872V20.3702Z" fill="#100F0D"/>
<path fill-rule="evenodd" clip-rule="evenodd" d="M74.2777 20.3702H15.4872V20.5156H74.2777L74.3398 20.4808L74.3675 20.453L74.3398 20.398L74.2777 20.3702Z" fill="#100F0D"/>
<path fill-rule="evenodd" clip-rule="evenodd" d="M76.1614 19.9335L76.0715 19.989L75.9882 20.0516L75.8706 20.1067L75.7807 20.1344L75.6697 20.197L75.552 20.2248L75.4344 20.2521L75.3167 20.2798L75.1779 20.3076L75.0603 20.3424H74.9149L74.7972 20.3702H74.6518H74.5407H74.4231H74.2777V20.5156H74.4231H74.5407L74.6862 20.4808H74.7972H74.9426L75.0603 20.453L75.2057 20.4258H75.3511L75.4621 20.3702L75.5798 20.3424L75.6974 20.3076L75.8428 20.2798L75.9261 20.2248L76.0438 20.1622L76.1271 20.1067L76.2169 20.0516L76.2447 19.989V19.9613L76.2169 19.9335H76.1614Z" fill="#100F0D"/>
<path fill-rule="evenodd" clip-rule="evenodd" d="M77.1448 28.0028L76.2446 19.9889H76.127L77.0272 28.0028L77.055 28.0583H77.0827L77.1105 28.0306L77.1448 28.0028Z" fill="#100F0D"/>
<path fill-rule="evenodd" clip-rule="evenodd" d="M0.651123 21.6722L7.24496 21.0901H7.50815L7.7367 21.1179L7.96526 21.1805L8.17307 21.2911L8.37396 21.4092L8.54708 21.5546L8.69254 21.7278L8.83799 21.9009L8.98345 22.1291L9.09427 22.3649L9.18433 22.5931L9.26744 22.8567L9.35746 23.1126L9.38517 23.3762L9.44056 23.667L9.47519 23.9507V24.2421V24.5329L9.44056 24.7959L9.41289 25.0801L9.35746 25.3432L9.30207 25.5992L9.212 25.8349L9.1289 26.0636L9.01116 26.2989L8.89343 26.4721L8.77564 26.6453L8.63715 26.8184L8.45706 26.929L8.28389 27.0194L8.08305 27.1092L7.88216 27.137L0.942033 27.7398L1.05977 28.8687L1.08749 28.8965L1.17059 28.9308L1.23294 28.9864L1.34376 29.0419L1.4615 29.1318L1.63467 29.2429L1.78013 29.3327L1.95325 29.4504L2.15414 29.5614L2.38961 29.6791L2.61817 29.8245L2.88141 29.9699L3.13769 30.0875L3.40088 30.2263L3.69179 30.3718L3.97573 30.5172L4.29436 30.6348L4.61299 30.7802L4.93156 30.9256L5.27791 31.0367L5.6242 31.1543L5.9705 31.2442L6.32376 31.3553L6.67005 31.4451L7.0164 31.5007L7.39041 31.5562L7.7367 31.6183L8.11072 31.6461L8.45706 31.6738H8.83799L9.18433 31.6461L9.53063 31.5905L9.87692 31.5284L10.2233 31.4451L10.5418 31.3275L10.8328 31.1821L11.1514 31.0089L11.4423 30.8357L11.6986 30.6348L11.9618 30.4339L12.218 30.1708L12.4812 29.9421L12.7098 29.6513L12.9107 29.3605L13.1184 29.0697L13.3193 28.7577L13.4924 28.4391L13.6656 28.0857L13.8388 27.7398L13.9842 27.3935L14.102 27.0471L14.2128 26.673L14.3305 26.2989L14.4483 25.8905L14.5314 25.5164L14.5937 25.1074L14.6492 24.7338L14.6769 24.3319L14.7045 23.923L14.7323 23.5494V23.1475L14.7045 22.7663L14.6769 22.3649L14.6492 22.0741L14.5937 21.7828L14.5314 21.4991L14.4483 21.2083L14.3305 20.9169L14.2128 20.6261L14.0673 20.3424L13.9288 20.0794L13.7557 19.8158L13.5756 19.5598L13.3747 19.2963L13.1739 19.0403L12.973 18.8045L12.7375 18.5763L12.5089 18.3406L12.2458 18.1396L11.9895 17.9114L11.7263 17.7382L11.4423 17.5373L11.1514 17.3571L10.8605 17.2187L10.5696 17.0733L10.2856 16.9274L9.96699 16.8098L9.67609 16.727L9.35746 16.6366L9.03888 16.5538L8.72025 16.4912L8.37396 16.4634L8.05533 16.4357H7.7367L7.41813 16.4634L7.0995 16.4912L6.75321 16.5538L6.4623 16.6088L6.14367 16.6921L5.85968 16.782L5.5411 16.8724L5.25019 16.9829L4.95928 17.1011L4.70301 17.2187L4.4121 17.3571L4.1489 17.5025L3.89263 17.6201L3.65715 17.7933L3.40088 17.9392L3.16536 18.0846L2.9368 18.2573L2.70824 18.4032L2.50043 18.5763L2.29959 18.7217L2.0987 18.8949L1.92558 19.0681L1.75241 19.2135L1.57924 19.3589L1.43378 19.4972L1.28833 19.6426L1.14287 19.788L0.997417 19.9062L0.886597 20.0516L0.796578 20.1622L0.713475 20.252L0.623405 20.3702L0.533386 20.453L0.651123 21.6722Z" fill="#100F0D"/>
<path fill-rule="evenodd" clip-rule="evenodd" d="M7.24489 21.0352L0.651062 21.6097V21.7551L7.24489 21.1457H7.30028V21.0902V21.0629L7.24489 21.0352Z" fill="#100F0D"/>
<path fill-rule="evenodd" clip-rule="evenodd" d="M7.90979 27.1925L8.11063 27.1647L8.31844 27.1092L8.49161 26.9916L8.66474 26.8462L8.81019 26.7008L8.94873 26.5276L9.06647 26.3266L9.18425 26.0909L9.30199 25.8627L9.35737 25.5991L9.41281 25.3431L9.47511 25.0801L9.50283 24.7959L9.53055 24.5328V24.242V23.9507L9.50283 23.667L9.47511 23.3761L9.41281 23.1126L9.32966 22.8289L9.23964 22.5658L9.15654 22.3371L9.0388 22.0741L8.89334 21.8731L8.74789 21.6722L8.57472 21.499L8.40154 21.3536L8.2007 21.236L7.99981 21.1178L7.76434 21.0628L7.50806 21.035H7.24487V21.1456H7.50806L7.73662 21.1804L7.93751 21.2637L8.14527 21.3536L8.31844 21.4642L8.49161 21.6096L8.66474 21.755L8.77556 21.9559L8.92101 22.1639L9.0388 22.3926L9.12882 22.6209L9.21192 22.8566L9.26736 23.1126L9.32966 23.4039L9.38509 23.667V23.9507V24.242V24.5328V24.7959L9.35737 25.0523L9.30199 25.3154L9.23964 25.5719L9.15654 25.8349L9.06647 26.0358L8.94873 26.264L8.83791 26.4372L8.72017 26.6174L8.57472 26.7558L8.42926 26.8739L8.25609 26.9638L8.08297 27.0193L7.88208 27.0749L7.90979 27.1925Z" fill="#100F0D"/>
<path fill-rule="evenodd" clip-rule="evenodd" d="M0.941971 27.802L7.90982 27.1926L7.8821 27.075L0.941971 27.6844L0.886536 27.7121V27.7399L0.914253 27.802H0.941971Z" fill="#100F0D"/>
<path fill-rule="evenodd" clip-rule="evenodd" d="M1.11514 28.841L0.997356 27.7399H0.886536L0.997356 28.8688V28.8966L1.05971 28.9309L1.08743 28.8966L1.11514 28.841Z" fill="#100F0D"/>
<path fill-rule="evenodd" clip-rule="evenodd" d="M9.18429 31.5906H8.11067L7.76438 31.5562L7.39037 31.5007L7.04402 31.4452L6.67001 31.3831L6.32372 31.2998L5.97046 31.1821L5.62416 31.071L5.27787 30.9534L4.95924 30.8358L4.64061 30.7181L4.32203 30.5793L4.00341 30.4617L3.71941 30.3162L3.42851 30.1708L3.16531 30.0254L2.90904 29.9144L2.64585 29.769L2.41729 29.6513L2.21645 29.5059L2.00864 29.3883L1.80775 29.2772L1.6623 29.1873L1.51689 29.0697L1.37836 29.0142L1.28828 28.9309L1.19827 28.8688L1.14283 28.841L1.08745 28.8132L0.997375 28.8965H1.02509L1.05973 28.9586L1.11516 28.9864L1.19827 29.0419L1.316 29.104L1.43374 29.1873L1.5792 29.305L1.75237 29.3883L1.92554 29.5059L2.12638 29.6236L2.36185 29.7346L2.59046 29.88L2.84674 30.0254L3.08221 30.1431L3.37312 30.2885L3.65711 30.4339L3.97569 30.5793L4.2666 30.7181L4.58523 30.8358L4.9038 30.9812L5.25015 31.0988L5.59644 31.2099L5.94279 31.2998L6.28908 31.4174L6.67001 31.5007L7.01636 31.5562L7.36265 31.6461L7.73666 31.6739L8.11067 31.7016L8.45702 31.736H8.83795L9.18429 31.7016V31.5906Z" fill="#100F0D"/>
<path fill-rule="evenodd" clip-rule="evenodd" d="M14.6214 22.365L14.6492 22.7664V23.923L14.6214 24.332L14.5591 24.7339L14.5314 25.1075L14.4483 25.4887L14.386 25.8905L14.2751 26.2641L14.1574 26.6453L14.0396 27.0194L13.9288 27.3658L13.7833 27.7399L13.6102 28.0585L13.437 28.4048L13.2639 28.7234L13.0561 29.042L12.8552 29.3328L12.6544 29.6236L12.4189 29.8801L12.1903 30.1431L11.9271 30.3718L11.6708 30.5793L11.3799 30.7803L11.1237 30.9534L10.8051 31.1266L10.5142 31.2442L10.1955 31.3831L9.87692 31.473L9.53062 31.5285L9.18433 31.5906V31.7017L9.55834 31.6739L9.90463 31.5906L10.2233 31.5007L10.5696 31.3831L10.8605 31.2442L11.1791 31.0711L11.47 30.8913L11.7263 30.6904L12.0171 30.4617L12.2804 30.2264L12.5089 29.9699L12.7375 29.7069L12.973 29.4226L13.1739 29.1041L13.3747 28.7855L13.5479 28.4669L13.721 28.1206L13.8942 27.7742L14.0396 27.4208L14.1851 27.0472L14.3028 26.6731L14.386 26.299L14.5037 25.9183L14.5937 25.5164L14.6492 25.1423L14.7045 24.7339L14.7323 24.332L14.7669 23.9508L14.7946 23.5494V23.1475L14.7669 22.7664V22.365H14.6214Z" fill="#100F0D"/>
<path fill-rule="evenodd" clip-rule="evenodd" d="M7.41804 16.519H8.37387L8.69245 16.5816L9.01107 16.6367L9.32965 16.6922L9.64828 16.7821L9.93227 16.8724L10.2508 17.0108L10.5418 17.1284L10.8327 17.2743L11.1236 17.4197L11.4076 17.5924L11.6985 17.7933L11.9617 17.9665L12.1902 18.1674L12.4534 18.4032L12.682 18.6037L12.9106 18.8324L13.1183 19.0954L13.3469 19.3241L13.5201 19.5877L13.6932 19.8507L13.8664 20.1067L14.0119 20.3702L14.1573 20.654L14.2751 20.9448L14.3859 21.2083L14.4759 21.4991L14.5313 21.7829L14.5936 22.0742L14.6214 22.365H14.7668L14.7045 22.0464L14.6768 21.7551L14.5936 21.4643L14.5036 21.1805L14.3859 20.8897L14.2751 20.5984L14.1296 20.3076L13.9842 20.0516L13.811 19.7608L13.6378 19.4973L13.437 19.2686L13.2292 19.0055L13.0006 18.7496L12.772 18.5138L12.5365 18.2851L12.2803 18.0847L12.0171 17.8837L11.7539 17.6757L11.4976 17.4748L11.2067 17.3016L10.9158 17.1562L10.5972 17.0108L10.3132 16.8724L9.99462 16.7548L9.67599 16.6644L9.35737 16.5816L9.03879 16.4913L8.72016 16.4357L8.40154 16.4085L8.05524 16.3807H7.73661L7.39032 16.4085L7.41804 16.519Z" fill="#100F0D"/>
<path fill-rule="evenodd" clip-rule="evenodd" d="M0.595693 20.4258V20.4808L0.651078 20.398L0.741097 20.3077L0.851968 20.1971L0.941988 20.0795L1.05972 19.9613L1.17054 19.8508L1.316 19.7053L1.46145 19.5599L1.63463 19.4145L1.78008 19.2686L1.9532 19.0955L2.15409 18.95L2.36185 18.7769L2.56274 18.6315L2.76358 18.4583L2.96447 18.2851L3.19995 18.1397L3.4285 17.9943L3.69174 17.8489L3.9203 17.6757L4.18349 17.5652L4.46749 17.4198L4.73068 17.2744L4.98695 17.1562L5.27786 17.0457L5.56872 16.9275L5.85963 16.8377L6.17826 16.7548L6.46225 16.6645L6.78083 16.6089L7.09946 16.5817L7.41808 16.5191L7.39037 16.4085L7.07174 16.4358L6.75316 16.4913L6.43453 16.5539L6.11591 16.6367L5.83196 16.7271L5.54106 16.8099L5.22243 16.9275L4.93152 17.0457L4.67524 17.1562L4.38433 17.3016L4.12114 17.447L3.86487 17.5652L3.62939 17.7383L3.37312 17.8838L3.13764 18.0292L2.90904 18.2023L2.67356 18.3755L2.47267 18.5138L2.27183 18.6941L2.07099 18.8324L1.8701 19.0056L1.69001 19.151L1.55147 19.2964L1.37835 19.4418L1.2329 19.615L1.08744 19.7331L0.969705 19.8785L0.851968 19.9891L0.741097 20.1067L0.651078 20.2249L0.567976 20.3077L0.477905 20.398V20.4531L0.595693 20.4258Z" fill="#100F0D"/>
<path fill-rule="evenodd" clip-rule="evenodd" d="M0.71343 21.6723L0.595693 20.4258L0.477905 20.453L0.595693 21.7001V21.7279L0.651078 21.7551L0.678796 21.7279L0.71343 21.6723Z" fill="#100F0D"/>
<path fill-rule="evenodd" clip-rule="evenodd" d="M12.5644 19.9335L12.3912 19.6427L12.2181 19.3589L12.0172 19.0954L11.8163 18.8672L11.6154 18.6592L11.38 18.486L11.1514 18.3128L10.9159 18.1397L10.6873 18.0291L10.4588 17.9114L10.2233 17.7933L9.96702 17.7105L9.70383 17.6479L9.44059 17.5924L9.21203 17.5651L8.94884 17.5025H8.72028L8.45709 17.4747H8.22853L7.96529 17.5025H7.73673L7.50818 17.5373L7.30037 17.5651L7.07181 17.5924L6.87097 17.6201L6.67008 17.6757L6.46233 17.7105L6.28915 17.7655L6.11598 17.7933L5.97053 17.8488L5.83204 17.8837L5.68658 17.9392L5.74197 18.0569L5.85971 18.0291L6.00516 17.9665L6.17833 17.9392L6.32379 17.8837L6.49696 17.8488L6.6978 17.7933L6.89869 17.7655L7.09953 17.7105L7.30037 17.6757L7.53589 17.6479H7.76445L7.99993 17.6201H8.22853H8.45709H8.69256L8.94884 17.6479L9.18436 17.6757L9.44059 17.7105L9.67611 17.7655L9.93239 17.8488L10.1679 17.9392L10.3964 18.0291L10.6319 18.1397L10.8605 18.2573L11.0891 18.4305L11.2969 18.5764L11.5254 18.7768L11.7263 18.9777L11.9272 19.1858L12.1072 19.4417L12.2804 19.7053L12.4535 19.989L12.5644 19.9335Z" fill="white"/>
<path fill-rule="evenodd" clip-rule="evenodd" d="M72.657 21.4991V21.4365H16.2422V21.5824H72.657V21.4991Z" fill="white"/>
<path fill-rule="evenodd" clip-rule="evenodd" d="M81.7715 29.9421L82.0836 29.9144L82.4365 29.88L82.7556 29.8523L83.0671 29.7967L83.3856 29.7069L83.7042 29.6236L83.995 29.5337L84.3136 29.4226L84.6044 29.2772L84.8609 29.1318L85.1517 28.9864L85.4152 28.8132L85.6712 28.6401L85.907 28.4391L86.163 28.2316L86.3987 28.0307L86.5992 27.802L86.8001 27.5389L87.001 27.3102L87.1742 27.0472L87.3474 26.7907L87.4928 26.5277L87.6382 26.2369L87.7836 25.9526L87.9017 25.6618L87.9845 25.3432L88.0749 25.0246L88.1577 24.7061L88.2203 24.3875L88.2481 24.0689L88.2754 23.7503L88.3031 23.404L88.2754 23.0849L88.2481 22.7391L88.2203 22.42L88.1577 22.1019L88.0749 21.7828L87.9845 21.4643L87.9017 21.1805L87.7836 20.8619L87.6382 20.5711L87.4928 20.3076L87.3474 20.0238L87.1742 19.7608L87.001 19.4973L86.8001 19.2686L86.5992 19.0404L86.3987 18.8046L86.163 18.5764L85.907 18.3754L85.6712 18.2023L85.4152 17.9942L85.1517 17.8488L84.8609 17.6757L84.6044 17.5373L84.3136 17.4197L83.995 17.3016L83.7042 17.1839L83.3856 17.1011L83.0671 17.0456L82.7556 16.983L82.4365 16.9274L82.0836 16.9002H81.7715H81.4186L81.1066 16.9274L80.788 16.983L80.4695 17.0456L80.1509 17.1011L79.8323 17.1839L79.5137 17.3016L79.2229 17.4197L78.9321 17.5373L78.6756 17.6757L78.3848 17.8488L78.1218 17.9942L77.8653 18.2023L77.6366 18.3754L77.3736 18.5764L77.1449 18.8046L76.9374 19.0404L76.7364 19.2686L76.5355 19.4973L76.3623 19.7608L76.1891 20.0238L76.0437 20.3076L75.8983 20.5711L75.7529 20.8619L75.6353 21.1805L75.552 21.4643L75.4621 21.7828L75.3788 22.1019L75.3167 22.42L75.2889 22.7391L75.2612 23.0849V23.404V23.7503L75.2889 24.0689L75.3167 24.3875L75.3788 24.7061L75.4621 25.0246L75.552 25.3432L75.6353 25.6618L75.7529 25.9526L75.8983 26.2369L76.0437 26.5277L76.1891 26.7907L76.3623 27.0472L76.5355 27.3102L76.7364 27.5389L76.9374 27.802L77.1449 28.0307L77.3736 28.2316L77.6366 28.4391L77.8653 28.6401L78.1218 28.8132L78.3848 28.9864L78.6756 29.1318L78.9321 29.2772L79.2229 29.4226L79.5137 29.5337L79.8323 29.6236L80.1509 29.7069L80.4695 29.7967L80.788 29.8523L81.1066 29.88L81.4186 29.9144L81.7715 29.9421Z" fill="#100F0D"/>
<path fill-rule="evenodd" clip-rule="evenodd" d="M88.2203 23.404V23.7503L88.1855 24.0689L88.1577 24.3875L88.1022 24.7061L88.0123 25.0247L87.929 25.3432L87.8391 25.634L87.7286 25.9183L87.5832 26.2091L87.4373 26.4721L87.2919 26.7559L87.1187 27.0194L86.9455 27.2825L86.7451 27.5112L86.5371 27.7399L86.3361 27.9751L86.1074 28.1761L85.8721 28.377L85.6434 28.578L85.3804 28.7577L85.1239 28.9309L84.8331 29.0697L84.5771 29.2151L84.2858 29.3605L83.995 29.4782L83.6764 29.5615L83.3856 29.6513L83.0671 29.7346L82.7556 29.7967L82.4365 29.8245L82.0836 29.8523H81.7715V29.9977L82.0836 29.9699H82.4365L82.7828 29.9144L83.1014 29.8523L83.4205 29.7967L83.732 29.6791L84.0228 29.5958L84.3414 29.4782L84.6322 29.3328L84.9235 29.1874L85.1795 29.042L85.4425 28.8688L85.699 28.6678L85.962 28.4947L86.1907 28.2937L86.4265 28.0585L86.6547 27.8297L86.8556 27.601L87.0288 27.338L87.2368 27.075L87.41 26.8185L87.5554 26.5554L87.6937 26.2641L87.8391 25.9804L87.9568 25.6896L88.0472 25.371L88.1577 25.0524L88.2203 24.7338L88.2754 24.4153L88.3309 24.0962V23.7503L88.3657 23.404H88.2203Z" fill="#100F0D"/>
<path fill-rule="evenodd" clip-rule="evenodd" d="M81.7715 16.9552H82.0836L82.4365 16.9829L82.7556 17.0455L83.0671 17.1011L83.3856 17.1561L83.6764 17.2465L83.995 17.357L84.2858 17.4747L84.5771 17.5923L84.8331 17.7382L85.1239 17.8836L85.3804 18.0568L85.6434 18.23L85.8721 18.4304L86.1074 18.6313L86.3361 18.8323L86.5371 19.0681L86.7451 19.2963L86.9455 19.5598L87.1187 19.788L87.2919 20.0516L87.4373 20.3424L87.5832 20.6261L87.7286 20.8896L87.8391 21.2082L87.929 21.499L88.0123 21.7828L88.1022 22.1019L88.1577 22.4199L88.1855 22.739L88.2203 23.0848V23.4039H88.3657L88.3309 23.0848V22.739L88.2754 22.3927L88.2203 22.0741L88.1577 21.755L88.0472 21.4364L87.9568 21.1456L87.8391 20.8619L87.6937 20.5433L87.5554 20.2798L87.41 19.9889L87.2368 19.733L87.0288 19.4694L86.8556 19.2135L86.6547 18.9777L86.4265 18.7495L86.1907 18.5485L85.962 18.3405L85.699 18.1396L85.4425 17.9392L85.1795 17.7932L84.9235 17.6201L84.6322 17.4747L84.3414 17.357L84.0228 17.2465L83.732 17.1283L83.4205 17.0455L83.1014 16.9552L82.7828 16.9274L82.4365 16.8723L82.0836 16.8375H81.7715V16.9552Z" fill="#100F0D"/>
<path fill-rule="evenodd" clip-rule="evenodd" d="M75.3167 23.4039V23.0848L75.351 22.739L75.3788 22.4199L75.4343 22.1019L75.5242 21.7828L75.6075 21.499L75.6974 21.2082L75.8084 20.8896L75.9538 20.6261L76.0993 20.3424L76.2447 20.0516L76.4178 19.788L76.591 19.5598L76.7919 19.2963L76.9994 19.0681L77.2004 18.8323L77.4291 18.6313L77.6644 18.4304L77.8931 18.23L78.1561 18.0568L78.4126 17.8836L78.7034 17.7382L78.9664 17.5923L79.2507 17.4747L79.5415 17.357L79.8323 17.2465L80.1509 17.1561L80.4695 17.1011L80.788 17.0455L81.1066 16.9829L81.4186 16.9552H81.7715V16.8375H81.4186L81.1066 16.8723L80.7537 16.9274L80.4417 16.9552L80.1231 17.0455L79.8045 17.1283L79.486 17.2465L79.1952 17.357L78.9043 17.4747L78.6135 17.6201L78.3571 17.7932L78.094 17.9392L77.8375 18.1396L77.5745 18.3405L77.3458 18.5485L77.1105 18.7495L76.8818 18.9777L76.6809 19.2135L76.5077 19.4694L76.3002 19.733L76.127 19.9889L75.9882 20.2798L75.8428 20.5433L75.6974 20.8619L75.5797 21.1456L75.4964 21.4364L75.4066 21.755L75.3167 22.0741L75.2612 22.3927L75.2056 22.739V23.0848L75.1779 23.4039H75.3167Z" fill="#100F0D"/>
<path fill-rule="evenodd" clip-rule="evenodd" d="M81.7715 29.8523H81.4186L81.1066 29.8245L80.788 29.7967L80.4695 29.7346L80.1509 29.6513L79.8323 29.5615L79.5415 29.4782L79.2507 29.3605L78.9664 29.2151L78.7034 29.0697L78.4126 28.9309L78.1561 28.7577L77.8931 28.578L77.6644 28.377L77.4291 28.1761L77.2004 27.9751L76.9994 27.7399L76.7919 27.5112L76.591 27.2825L76.4178 27.0194L76.2447 26.7559L76.0993 26.4721L75.9538 26.2091L75.8084 25.9183L75.6974 25.634L75.6075 25.3432L75.5242 25.0247L75.4343 24.7061L75.3788 24.3875L75.351 24.0689L75.3167 23.7503V23.404H75.1779L75.2056 23.7503V24.0962L75.2612 24.4153L75.3167 24.7338L75.4066 25.0524L75.4964 25.371L75.5797 25.6896L75.6974 25.9804L75.8428 26.2641L75.9882 26.5554L76.127 26.8185L76.3002 27.075L76.5077 27.338L76.6809 27.601L76.8818 27.8297L77.1105 28.0585L77.3458 28.2937L77.5745 28.4947L77.8375 28.6678L78.094 28.8688L78.3571 29.042L78.6135 29.1874L78.9043 29.3328L79.1952 29.4782L79.486 29.5958L79.8045 29.6791L80.1231 29.7967L80.4417 29.8523L80.7537 29.9144L81.1066 29.9699H81.4186L81.7715 29.9977V29.8523Z" fill="#100F0D"/>
<path fill-rule="evenodd" clip-rule="evenodd" d="M86.2806 22.1292L86.5093 20.654L85.124 20.1345L85.0341 20.0517L84.5146 18.6592L83.0393 18.895L82.9287 18.8672L81.7716 17.9393L80.6149 18.8672L80.4973 18.895L79.022 18.6592L78.5025 20.0517L78.4126 20.1345L77.0273 20.654L77.256 22.1292L77.2004 22.2474L76.2725 23.4041L77.2004 24.5607L77.256 24.6784L77.0273 26.1536L78.4126 26.6731L78.5025 26.7559L79.022 28.1484L80.4973 27.9131L80.6149 27.9752L81.7716 28.8966L82.9287 27.9752L83.0393 27.9131L84.5146 28.1484L85.0341 26.7559L85.124 26.6731L86.5093 26.1536L86.2806 24.6784L86.3362 24.5607L87.2641 23.4041L86.3362 22.2474L86.2806 22.1292Z" fill="white"/>
<path fill-rule="evenodd" clip-rule="evenodd" d="M86.4537 20.6539L86.2255 22.1292H86.3361L86.5719 20.6887V20.6261L86.537 20.5984H86.4815L86.4537 20.6539Z" fill="#100F0D"/>
<path fill-rule="evenodd" clip-rule="evenodd" d="M85.1239 20.197L86.4816 20.7166L86.5371 20.5984L85.1517 20.0794H85.0962L85.0689 20.1067V20.1622L85.1239 20.197Z" fill="#100F0D"/>
<path fill-rule="evenodd" clip-rule="evenodd" d="M85.0063 20.0794L85.0962 20.197L85.1795 20.0794L85.0962 19.989H85.0341H85.0063L84.9785 20.0516L85.0063 20.0794Z" fill="#100F0D"/>
<path fill-rule="evenodd" clip-rule="evenodd" d="M84.459 18.6941L84.9785 20.0795L85.1239 20.0239L84.5771 18.6315L84.5423 18.6037H84.4868L84.459 18.6315V18.6941Z" fill="#100F0D"/>
<path fill-rule="evenodd" clip-rule="evenodd" d="M83.0671 18.9501L84.5145 18.7219L84.4868 18.6037L83.0393 18.8324L82.9838 18.8673V18.895L83.0115 18.9501H83.0671Z" fill="#100F0D"/>
<path fill-rule="evenodd" clip-rule="evenodd" d="M82.8939 18.9223L83.0393 18.9501L83.067 18.8324L82.9287 18.8047H82.8939L82.8661 18.8324V18.895L82.8939 18.9223Z" fill="#100F0D"/>
<path fill-rule="evenodd" clip-rule="evenodd" d="M81.7095 17.9665L82.8661 18.9222L82.956 18.8046L81.7993 17.8837L81.7716 17.8489L81.7095 17.8837V17.9392V17.9665Z" fill="#100F0D"/>
<path fill-rule="evenodd" clip-rule="evenodd" d="M80.6704 18.9222L81.7993 17.9665L81.7095 17.8837L80.5806 18.8046L80.5528 18.8672L80.5806 18.895L80.6149 18.9222H80.6704Z" fill="#100F0D"/>
<path fill-rule="evenodd" clip-rule="evenodd" d="M80.4694 18.9501H80.4972L80.6426 18.9223L80.6148 18.8047L80.4694 18.8324L80.4417 18.8673V18.9223L80.4694 18.9501Z" fill="#100F0D"/>
<path fill-rule="evenodd" clip-rule="evenodd" d="M79.022 18.7219L80.4695 18.9501L80.4973 18.8324L79.0498 18.6037H78.9943L78.9665 18.6593V18.6941L79.022 18.7219Z" fill="#100F0D"/>
<path fill-rule="evenodd" clip-rule="evenodd" d="M78.558 20.0793L79.0775 18.6939L78.9665 18.6313L78.4126 20.0238V20.0793L78.4747 20.1066H78.5302L78.558 20.0793Z" fill="#100F0D"/>
<path fill-rule="evenodd" clip-rule="evenodd" d="M78.4126 20.197H78.4404L78.5302 20.0794L78.4404 19.989L78.3571 20.0794L78.3293 20.1344L78.3571 20.197H78.4126Z" fill="#100F0D"/>
<path fill-rule="evenodd" clip-rule="evenodd" d="M77.0549 20.7166L78.4126 20.197L78.3848 20.0794L76.9994 20.5984L76.9651 20.6262V20.6888L76.9994 20.7166H77.0549Z" fill="#100F0D"/>
<path fill-rule="evenodd" clip-rule="evenodd" d="M77.318 22.1292L77.0827 20.6539L76.9651 20.6888L77.2004 22.1292V22.1918H77.2559L77.2837 22.164L77.318 22.1292Z" fill="#100F0D"/>
<path fill-rule="evenodd" clip-rule="evenodd" d="M77.2559 22.3023L77.2837 22.2746L77.318 22.164L77.2004 22.1019L77.1448 22.2473V22.2746L77.2004 22.3372L77.2559 22.3023Z" fill="#100F0D"/>
<path fill-rule="evenodd" clip-rule="evenodd" d="M76.3345 23.459L77.2559 22.3023L77.1726 22.2195L76.2169 23.3762V23.404L76.2446 23.459H76.2724H76.3345Z" fill="#100F0D"/>
<path fill-rule="evenodd" clip-rule="evenodd" d="M77.2559 24.5329L76.3345 23.3763L76.2169 23.4591L77.1726 24.6157H77.2004H77.2559L77.2837 24.5607L77.2559 24.5329Z" fill="#100F0D"/>
<path fill-rule="evenodd" clip-rule="evenodd" d="M77.318 24.7061V24.6783L77.2837 24.5329L77.1448 24.5884L77.2004 24.7061L77.2281 24.7338L77.2559 24.7611L77.318 24.7061Z" fill="#100F0D"/>
<path fill-rule="evenodd" clip-rule="evenodd" d="M77.0827 26.1536L77.318 24.7061L77.2004 24.6783L76.9651 26.1258V26.1813L76.9994 26.2091H77.0549L77.0827 26.1536Z" fill="#100F0D"/>
<path fill-rule="evenodd" clip-rule="evenodd" d="M78.4126 26.6175L77.055 26.0909L76.9995 26.2091L78.3848 26.7559H78.4404L78.4747 26.7008V26.6731L78.4126 26.6175Z" fill="#100F0D"/>
<path fill-rule="evenodd" clip-rule="evenodd" d="M78.558 26.7558L78.5302 26.7286L78.4404 26.6453L78.3571 26.7286L78.4404 26.8184L78.5025 26.8462L78.5302 26.8184L78.558 26.7558Z" fill="#100F0D"/>
<path fill-rule="evenodd" clip-rule="evenodd" d="M79.0775 28.1206L78.558 26.7559L78.4126 26.7908L78.9665 28.1762L78.9942 28.2317H79.0498L79.0775 28.1762V28.1206Z" fill="#100F0D"/>
<path fill-rule="evenodd" clip-rule="evenodd" d="M80.4694 27.8576L79.022 28.0858L79.0497 28.2317L80.4972 27.9752H80.5528V27.9131L80.525 27.8853L80.4694 27.8576Z" fill="#100F0D"/>
<path fill-rule="evenodd" clip-rule="evenodd" d="M80.6427 27.8854L80.4973 27.8576L80.4695 27.9752L80.6149 28.0308H80.6427L80.6704 27.9752V27.9475L80.6427 27.8854Z" fill="#100F0D"/>
<path fill-rule="evenodd" clip-rule="evenodd" d="M81.7993 28.8411L80.6704 27.9131L80.5806 28.003L81.7095 28.9587H81.7716L81.8271 28.931V28.8966L81.7993 28.8411Z" fill="#100F0D"/>
<path fill-rule="evenodd" clip-rule="evenodd" d="M82.8661 27.9131L81.7095 28.8411L81.7993 28.9587L82.956 28.003L82.9838 27.9752L82.956 27.9131L82.9287 27.8854L82.8661 27.9131Z" fill="#100F0D"/>
<path fill-rule="evenodd" clip-rule="evenodd" d="M83.067 27.8576H83.0393L82.8939 27.8854L82.9287 28.0308L83.067 27.9752L83.1014 27.9475L83.1291 27.9131L83.067 27.8576Z" fill="#100F0D"/>
<path fill-rule="evenodd" clip-rule="evenodd" d="M84.5146 28.0858L83.0671 27.8576L83.0393 27.9752L84.4868 28.2317L84.5423 28.2039L84.5772 28.1762V28.1206L84.5146 28.0858Z" fill="#100F0D"/>
<path fill-rule="evenodd" clip-rule="evenodd" d="M84.9785 26.7559L84.459 28.1206L84.5771 28.1761L85.1239 26.7908V26.7287L85.0689 26.7009H85.0063L84.9785 26.7559Z" fill="#100F0D"/>
<path fill-rule="evenodd" clip-rule="evenodd" d="M85.1239 26.6175L85.0962 26.6453L85.0063 26.7286L85.0962 26.8185L85.1795 26.7286L85.2072 26.6731L85.1795 26.6453L85.1239 26.6175Z" fill="#100F0D"/>
<path fill-rule="evenodd" clip-rule="evenodd" d="M86.4815 26.0909L85.1239 26.6175L85.1517 26.7559L86.5371 26.2091L86.5719 26.1813V26.1258L86.5371 26.0909H86.4815Z" fill="#100F0D"/>
<path fill-rule="evenodd" clip-rule="evenodd" d="M86.2255 24.7061L86.4537 26.1536L86.5719 26.1258L86.3361 24.6783V24.6157H86.2806L86.2533 24.6506L86.2255 24.7061Z" fill="#100F0D"/>
<path fill-rule="evenodd" clip-rule="evenodd" d="M86.2533 24.533L86.2255 24.6784L86.3361 24.7062L86.3987 24.5885V24.533L86.3361 24.5052H86.2806L86.2533 24.533Z" fill="#100F0D"/>
<path fill-rule="evenodd" clip-rule="evenodd" d="M87.2091 23.3763L86.2806 24.5329L86.3639 24.6157L87.3197 23.4591V23.404L87.2919 23.3485H87.2641L87.2091 23.3763Z" fill="#100F0D"/>
<path fill-rule="evenodd" clip-rule="evenodd" d="M86.2806 22.3023L87.2091 23.459L87.3197 23.3762L86.3639 22.2195L86.3362 22.1917L86.2806 22.2195L86.2534 22.2473L86.2806 22.3023Z" fill="#100F0D"/>
<path fill-rule="evenodd" clip-rule="evenodd" d="M86.2255 22.1641L86.2533 22.2747L86.3987 22.2474L86.3361 22.102L86.3083 22.0742H86.2806L86.2255 22.102V22.1641Z" fill="#100F0D"/>
</svg>
