<svg width="90" height="12" viewBox="0 0 90 12" fill="none" xmlns="http://www.w3.org/2000/svg">
<path fill-rule="evenodd" clip-rule="evenodd" d="M81.6473 8.76864L81.5292 8.61616L81.4116 8.49853L81.2939 8.40815L81.1763 8.35312L81.0238 8.29052H80.9062L80.7608 8.26275H80.6426H11.9963H11.934H11.8786H11.7885H11.7262H11.6362L11.5531 8.29052H11.463L11.373 8.32536L11.2829 8.35312L11.2275 8.40815L11.1375 8.47076L11.0474 8.5263L10.9574 8.61616L10.902 8.7338L10.812 8.8585L10.7496 9.00391L10.902 2.84644L10.9851 2.90198L11.1029 2.92974L11.1652 2.99184L11.2829 3.01961L11.3453 3.05445L11.4353 3.08222L11.5184 3.10948H11.6084L11.6985 3.13725H11.7608H11.844H11.934L11.9963 3.17208H12.0864H12.1695H12.2318H79.5763H79.6662L79.7495 3.13725H79.8394H79.957H80.0469L80.1372 3.10948H80.2549L80.3447 3.08222H80.4351L80.525 3.05445L80.6083 3.01961L80.6982 2.99184L80.7608 2.96407L80.8506 2.90198L80.9062 2.87421L80.996 2.84644L81.6473 8.76864Z" fill="#100F0D"/>
<path fill-rule="evenodd" clip-rule="evenodd" d="M80.6426 8.32534H80.7608L80.9062 8.35311L81.0238 8.38037L81.1415 8.40814L81.2662 8.47074L81.3838 8.56061L81.4671 8.65098L81.5918 8.79639L81.7094 8.73378L81.5918 8.56061L81.4671 8.44297L81.3217 8.35311L81.2041 8.2905L81.0581 8.23496L80.9062 8.20063H80.7608L80.6426 8.17286V8.32534Z" fill="#100F0D"/>
<path fill-rule="evenodd" clip-rule="evenodd" d="M11.9964 8.32544H80.6427V8.17297H11.9964L11.9617 8.20073L11.934 8.26283L11.9617 8.32544H11.9964Z" fill="#100F0D"/>
<path fill-rule="evenodd" clip-rule="evenodd" d="M10.8119 9.03168L10.8673 8.88628L10.9574 8.76864L11.0197 8.67827L11.0751 8.5884L11.1652 8.5263L11.2552 8.47076L11.3106 8.40816L11.4007 8.38039L11.4907 8.35313H11.553L11.6361 8.32536H11.7262H11.7885H11.8786H11.934H11.9963V8.17289H11.934H11.8786H11.7885H11.7262L11.6084 8.20066H11.5184L11.4353 8.23499L11.373 8.26275L11.2552 8.29052L11.1652 8.35313L11.0751 8.40816L10.9851 8.49853L10.9297 8.5884L10.8396 8.70604L10.7496 8.82367L10.6942 8.97614V9.03168L10.7219 9.05945H10.7773L10.8119 9.03168Z" fill="#100F0D"/>
<path fill-rule="evenodd" clip-rule="evenodd" d="M10.8396 2.84644L10.6942 9.00391H10.8119L10.9851 2.84644L10.9574 2.78434L10.902 2.75657L10.8673 2.78434L10.8396 2.84644Z" fill="#100F0D"/>
<path fill-rule="evenodd" clip-rule="evenodd" d="M12.2318 3.08214H11.6985L11.6084 3.05437H11.5531L11.463 3.01953L11.373 2.99176L11.2829 2.96399L11.1929 2.92966L11.1375 2.87413L11.0197 2.84636L10.9574 2.78426L10.8673 2.90189L10.9574 2.96399L11.0751 2.99176L11.1652 3.05437L11.2552 3.08214L11.3106 3.1094L11.4353 3.13716L11.5184 3.172L11.5808 3.19977H11.6708H11.7608H11.844L11.9063 3.22754H11.9963H12.0864H12.1695H12.2318V3.08214Z" fill="#100F0D"/>
<path fill-rule="evenodd" clip-rule="evenodd" d="M79.5763 3.08214H12.2318V3.22754H79.5763L79.6314 3.19977V3.172V3.1094L79.5763 3.08214Z" fill="#100F0D"/>
<path fill-rule="evenodd" clip-rule="evenodd" d="M80.9335 2.78426L80.8784 2.81203L80.8158 2.84636L80.7608 2.90189L80.6704 2.92966L80.5806 2.96399L80.4902 2.99176H80.4074L80.3175 3.01953L80.2271 3.05437H80.1373L80.0469 3.08214H79.957H79.8394H79.7495H79.6662H79.5764V3.22754H79.6662H79.7495H79.8742L79.957 3.19977H80.0469H80.165L80.2549 3.172L80.3448 3.13716H80.4351L80.5528 3.1094L80.6083 3.08214L80.733 3.05437L80.7881 3.01953L80.8784 2.96399L80.9683 2.92966L81.0238 2.87413L81.0582 2.84636L81.0238 2.78426L80.9961 2.75649L80.9335 2.78426Z" fill="#100F0D"/>
<path fill-rule="evenodd" clip-rule="evenodd" d="M81.7094 8.73386L81.0581 2.81218L80.9062 2.84651L81.5569 8.7687L81.5918 8.79647L81.6473 8.82373L81.6746 8.79647L81.7094 8.73386Z" fill="#100F0D"/>
<path fill-rule="evenodd" clip-rule="evenodd" d="M78.3641 3.94106V3.87845H12.7928V3.99609H78.3641V3.94106Z" fill="white"/>
<path fill-rule="evenodd" clip-rule="evenodd" d="M85.1103 10.1884L85.3804 10.1606H85.6157L85.8514 10.1263L86.0867 10.0707L86.329 10.0081L86.5648 9.95308L86.7723 9.89048L87.0081 9.80061L87.2156 9.7173L87.4236 9.5926L87.6316 9.47496L87.8048 9.35733L88.0123 9.21192L88.1925 9.05945L88.3723 8.91405L88.5182 8.76864L88.6979 8.5884L88.8433 8.443L88.9887 8.23499L89.1134 8.05525L89.2316 7.84724L89.3492 7.63974L89.4669 7.43173L89.5567 7.22372L89.6471 7.01621L89.7299 6.78044L89.7925 6.54517L89.848 6.33716L89.8824 6.10189L89.9101 5.86662L89.9379 5.59651V5.36073V5.09769L89.9101 4.85535L89.8824 4.61957L89.848 4.3843L89.7925 4.14852L89.7299 3.90618L89.6471 3.70524L89.5567 3.4629L89.4669 3.2554L89.3492 3.05446L89.2316 2.84645L89.1134 2.66671L88.9887 2.4587L88.8433 2.27846L88.6979 2.10529L88.5182 1.95282L88.3723 1.77964L88.1925 1.62767L88.0123 1.48227L87.8048 1.36413L87.6316 1.21216L87.4236 1.12886L87.2156 1.00415L87.0081 0.920848L86.7723 0.830981L86.5648 0.741115L86.329 0.678508L86.0867 0.622972L85.8514 0.595711L85.6157 0.560873L85.3804 0.533104H85.1103H84.8745L84.6115 0.560873L84.3691 0.595711L84.1339 0.622972L83.8981 0.678508L83.6906 0.741115L83.4548 0.830981L83.2473 0.920848L83.0115 1.00415L82.804 1.12886L82.596 1.21216L82.4158 1.36413L82.2083 1.48227L82.0351 1.62767L81.8548 1.77964L81.7094 1.95282L81.5292 2.10529L81.3838 2.27846L81.2313 2.4587L81.1137 2.66671L80.996 2.84645L80.8784 3.05446L80.7608 3.2554L80.6704 3.4629L80.5805 3.70524L80.4902 3.90618L80.4351 4.14852L80.3725 4.3843L80.3448 4.61957L80.3175 4.85535L80.2827 5.09769V5.36073V5.59651L80.3175 5.86662L80.3448 6.10189L80.3725 6.33716L80.4351 6.54517L80.4902 6.78044L80.5805 7.01621L80.6704 7.22372L80.7608 7.43173L80.8784 7.63974L80.996 7.84724L81.1137 8.05525L81.2313 8.23499L81.3838 8.443L81.5292 8.5884L81.7094 8.76864L81.8548 8.91405L82.0351 9.05945L82.2083 9.21192L82.4158 9.35733L82.596 9.47496L82.804 9.5926L83.0115 9.7173L83.2473 9.80061L83.4548 9.89048L83.6906 9.95308L83.8981 10.0081L84.1339 10.0707L84.3691 10.1263L84.6115 10.1606H84.8745L85.1103 10.1884Z" fill="#100F0D"/>
<path fill-rule="evenodd" clip-rule="evenodd" d="M89.8824 5.36061V5.59639L89.848 5.83166L89.8203 6.074L89.7925 6.30978L89.7299 6.54505L89.6471 6.78032L89.5845 6.98833L89.4946 7.19634L89.4048 7.40385L89.2866 7.61185L89.1968 7.81936L89.0514 8.02737L88.9337 8.20054L88.7883 8.38027L88.6358 8.56052L88.4904 8.73369L88.3102 8.88616L88.13 9.03156L87.9568 9.18404L87.7771 9.30167L87.6039 9.41931L87.3959 9.53745L87.1884 9.65509L86.9804 9.74495L86.7451 9.83482L86.5371 9.89036L86.2947 9.95296L86.059 10.008L85.8237 10.0706L85.6157 10.0984H85.3526H85.1103V10.2438H85.3804L85.6157 10.216L85.8515 10.1882L86.0867 10.1605L86.3291 10.0984L86.5648 10.008L86.8001 9.95296L87.0081 9.86259L87.2434 9.77272L87.4514 9.65509L87.6589 9.53745L87.8669 9.41931L88.0472 9.26684L88.2203 9.12143L88.4001 8.97603L88.5803 8.82355L88.7535 8.65089L88.906 8.47065L89.0236 8.29041L89.169 8.08291L89.2866 7.8749L89.4048 7.70172L89.5224 7.49371L89.6123 7.25844L89.7027 7.05043L89.7925 6.81516L89.848 6.57282L89.9102 6.33704L89.9379 6.10177L89.9728 5.8665L90 5.62365V5.36061H89.8824Z" fill="#100F0D"/>
<path fill-rule="evenodd" clip-rule="evenodd" d="M85.1103 0.595576H85.3526L85.6157 0.622837L85.8237 0.650605L86.059 0.678373L86.2947 0.74098L86.5371 0.803079L86.7451 0.886383L86.9804 0.97625L87.1884 1.06612L87.3959 1.18426L87.6039 1.27413L87.7771 1.41953L87.9568 1.53717L88.13 1.68964L88.3102 1.83505L88.4904 1.98752L88.6358 2.16069L88.7883 2.34093L88.9337 2.52067L89.0514 2.69384L89.1968 2.87408L89.2866 3.08209L89.4048 3.28959L89.4946 3.4976L89.5845 3.73287L89.6471 3.94088L89.7299 4.17615L89.7925 4.38416L89.8203 4.61944L89.848 4.85521L89.8824 5.12532V5.3606H90V5.09755L89.9728 4.85521L89.9379 4.61944L89.9102 4.38416L89.848 4.14839L89.7925 3.90604L89.7027 3.67077L89.6123 3.435L89.5224 3.22749L89.4048 3.01948L89.2866 2.81198L89.169 2.60397L89.0236 2.4308L88.906 2.25056L88.7535 2.07082L88.5803 1.89765L88.4001 1.71741L88.2203 1.572L88.0472 1.41953L87.8669 1.3019L87.6589 1.18426L87.4514 1.06612L87.2434 0.948482L87.0081 0.830847L86.8001 0.768748L86.5648 0.678373L86.3291 0.622837L86.0867 0.560738L85.8515 0.53297L85.6157 0.477433H85.3804L85.1103 0.443103V0.595576Z" fill="#100F0D"/>
<path fill-rule="evenodd" clip-rule="evenodd" d="M80.3448 5.3606V5.12532L80.3726 4.85521L80.4074 4.61944L80.4351 4.38416L80.4902 4.17615L80.5528 3.94088L80.6427 3.73287L80.733 3.4976L80.8158 3.28959L80.9335 3.08209L81.0582 2.87408L81.1763 2.69384L81.2939 2.52067L81.4393 2.34093L81.5918 2.16069L81.7372 1.98752L81.9175 1.83505L82.0906 1.68964L82.2704 1.53717L82.4506 1.41953L82.6516 1.27413L82.8313 1.18426L83.0393 1.06612L83.2473 0.97625L83.4826 0.886383L83.6906 0.803079L83.9259 0.74098L84.1682 0.678373L84.404 0.650605L84.6393 0.622837L84.8745 0.595576H85.1103V0.443103L84.8473 0.477433H84.6115L84.3691 0.53297L84.1339 0.560738L83.8981 0.622837L83.6628 0.678373L83.4271 0.768748L83.2195 0.830847L82.9838 0.948482L82.7763 1.06612L82.5682 1.18426L82.388 1.3019L82.1805 1.41953L82.0003 1.572L81.8271 1.71741L81.6474 1.89765L81.5015 2.07082L81.3217 2.25056L81.2041 2.4308L81.0582 2.60397L80.9335 2.81198L80.8158 3.01948L80.6982 3.22749L80.6083 3.435L80.525 3.67077L80.4351 3.90604L80.3726 4.14839L80.3175 4.38416L80.2827 4.61944L80.2549 4.85521L80.2271 5.09755V5.3606H80.3448Z" fill="#100F0D"/>
<path fill-rule="evenodd" clip-rule="evenodd" d="M85.1103 10.0984H84.6393L84.404 10.0706L84.1682 10.008L83.9259 9.95296L83.6906 9.89036L83.4826 9.83482L83.2473 9.74495L83.0393 9.65509L82.8313 9.53745L82.6516 9.41931L82.4506 9.30167L82.2704 9.18404L82.0906 9.03156L81.9175 8.88616L81.7372 8.73369L81.5918 8.56052L81.4393 8.38027L81.2939 8.20054L81.1763 8.02737L81.0582 7.81936L80.9335 7.61185L80.8158 7.40385L80.733 7.19634L80.6427 6.98833L80.5528 6.78032L80.4902 6.54505L80.4351 6.30978L80.4074 6.074L80.3726 5.83166L80.3448 5.59639V5.36061H80.2271V5.62365L80.2549 5.8665L80.2827 6.10177L80.3175 6.33704L80.3726 6.57282L80.4351 6.81516L80.525 7.05043L80.6083 7.25844L80.6982 7.49371L80.8158 7.70172L80.9335 7.8749L81.0582 8.08291L81.2041 8.29041L81.3217 8.47065L81.5015 8.65089L81.6474 8.82355L81.8271 8.97603L82.0003 9.12143L82.1805 9.26684L82.388 9.41931L82.5682 9.53745L82.7763 9.65509L82.9838 9.77272L83.2195 9.86259L83.4271 9.95296L83.6628 10.008L83.8981 10.0984L84.1339 10.1605L84.3691 10.1882L84.6115 10.216L84.8473 10.2438H85.1103V10.0984Z" fill="#100F0D"/>
<path fill-rule="evenodd" clip-rule="evenodd" d="M88.4627 4.41207L88.6359 3.3175L87.6039 2.92976L87.5413 2.84646L87.1535 1.83519L86.059 2.01543L85.9691 1.98766L85.1103 1.30204L84.2515 1.98766L84.1682 2.01543L83.0671 1.83519L82.6859 2.84646L82.6238 2.92976L81.5918 3.3175L81.765 4.41207L81.7372 4.50194L81.0582 5.36074L81.7372 6.21953L81.765 6.3099L81.5918 7.3762L82.6238 7.79172L82.6859 7.84725L83.0671 8.88629L84.1682 8.70604L84.2515 8.73381L85.1103 9.41943L85.9691 8.73381L86.059 8.70604L87.1535 8.88629L87.5413 7.84725L87.6039 7.79172L88.6359 7.3762L88.4627 6.3099L88.4904 6.21953L89.169 5.36074L88.4904 4.50194L88.4627 4.41207Z" fill="white"/>
<path fill-rule="evenodd" clip-rule="evenodd" d="M88.5803 3.31754L88.4001 4.38434L88.5182 4.41211L88.698 3.34531V3.28977L88.6359 3.25544H88.6081L88.5803 3.31754Z" fill="#100F0D"/>
<path fill-rule="evenodd" clip-rule="evenodd" d="M87.569 2.99188L88.6081 3.38013L88.6636 3.25542L87.6316 2.87424H87.569L87.5413 2.90201V2.96411L87.569 2.99188Z" fill="#100F0D"/>
<path fill-rule="evenodd" clip-rule="evenodd" d="M87.4792 2.90189L87.569 2.96399L87.6589 2.87412L87.569 2.81202L87.5413 2.78426L87.4792 2.81202V2.84635V2.90189Z" fill="#100F0D"/>
<path fill-rule="evenodd" clip-rule="evenodd" d="M87.0702 1.863L87.4792 2.87427L87.6039 2.8465L87.2156 1.80747L87.1535 1.7797H87.1258L87.0702 1.80747V1.863Z" fill="#100F0D"/>
<path fill-rule="evenodd" clip-rule="evenodd" d="M86.0317 2.07104H86.0589L87.1535 1.89787L87.1257 1.77974L86.0589 1.95291H86.0039V2.01551L86.0317 2.07104Z" fill="#100F0D"/>
<path fill-rule="evenodd" clip-rule="evenodd" d="M85.9413 2.04328L86.0317 2.07104L86.0867 1.95291L85.9691 1.92564H85.9413L85.9135 1.95291V2.01551L85.9413 2.04328Z" fill="#100F0D"/>
<path fill-rule="evenodd" clip-rule="evenodd" d="M85.0825 1.33639L85.9135 2.04321L86.0039 1.92558L85.1724 1.24652L85.1103 1.21219L85.0825 1.24652L85.0547 1.30206L85.0825 1.33639Z" fill="#100F0D"/>
<path fill-rule="evenodd" clip-rule="evenodd" d="M84.3136 2.04321L85.1724 1.33639L85.0825 1.24652L84.2237 1.92558L84.196 1.98768L84.2237 2.01544L84.2515 2.04321H84.3136Z" fill="#100F0D"/>
<path fill-rule="evenodd" clip-rule="evenodd" d="M84.1338 2.07104H84.1959L84.2858 2.04328L84.2237 1.92564L84.1338 1.95291L84.1061 1.98774V2.01551L84.1338 2.07104Z" fill="#100F0D"/>
<path fill-rule="evenodd" clip-rule="evenodd" d="M83.0671 1.89787L84.1339 2.07104L84.1682 1.95291L83.1014 1.77974H83.0393L83.0115 1.8075V1.86304L83.0671 1.89787Z" fill="#100F0D"/>
<path fill-rule="evenodd" clip-rule="evenodd" d="M82.7414 2.87415L83.1292 1.86289L83.0115 1.80735L82.6238 2.84638V2.90192L82.6515 2.92969H82.7137L82.7414 2.87415Z" fill="#100F0D"/>
<path fill-rule="evenodd" clip-rule="evenodd" d="M82.6515 2.96405L82.7414 2.90195L82.6515 2.81209L82.5682 2.87419L82.5339 2.92972L82.5682 2.96405L82.6238 2.99182L82.6515 2.96405Z" fill="#100F0D"/>
<path fill-rule="evenodd" clip-rule="evenodd" d="M81.6195 3.38013L82.6515 2.99188L82.596 2.87424L81.5569 3.25542L81.5292 3.28975V3.34529L81.5569 3.38013H81.6195Z" fill="#100F0D"/>
<path fill-rule="evenodd" clip-rule="evenodd" d="M81.8271 4.43929V4.38425L81.6473 3.31745L81.5292 3.34522L81.7094 4.41202L81.7372 4.47412H81.7649L81.8271 4.43929Z" fill="#100F0D"/>
<path fill-rule="evenodd" clip-rule="evenodd" d="M81.7927 4.52975L81.8271 4.43938L81.7094 4.38435L81.6746 4.47422V4.52975L81.7094 4.56409H81.765L81.7927 4.52975Z" fill="#100F0D"/>
<path fill-rule="evenodd" clip-rule="evenodd" d="M81.1137 5.38838L81.7927 4.52959L81.6746 4.43922L80.9961 5.29852L80.9683 5.36062L80.9961 5.38838L81.0582 5.42322L81.1137 5.38838Z" fill="#100F0D"/>
<path fill-rule="evenodd" clip-rule="evenodd" d="M81.7927 6.1574L81.1137 5.29861L80.996 5.38847L81.6746 6.24727L81.7372 6.2821L81.7927 6.24727V6.2195V6.1574Z" fill="#100F0D"/>
<path fill-rule="evenodd" clip-rule="evenodd" d="M81.8271 6.28219L81.7927 6.19182L81.6746 6.21959L81.7094 6.30996L81.7372 6.36499H81.7927L81.8271 6.33722V6.28219Z" fill="#100F0D"/>
<path fill-rule="evenodd" clip-rule="evenodd" d="M81.6473 7.40399L81.8271 6.30993L81.7094 6.28216L81.5292 7.37623V7.43176H81.5918H81.6195L81.6473 7.40399Z" fill="#100F0D"/>
<path fill-rule="evenodd" clip-rule="evenodd" d="M82.6515 7.70176L81.6196 7.31402L81.557 7.43166L82.596 7.84717H82.6515L82.6859 7.79163V7.7573L82.6515 7.70176Z" fill="#100F0D"/>
<path fill-rule="evenodd" clip-rule="evenodd" d="M82.7414 7.79165L82.6515 7.72955L82.5682 7.81942L82.6515 7.87496L82.6858 7.90979L82.7414 7.87496V7.84719V7.79165Z" fill="#100F0D"/>
<path fill-rule="evenodd" clip-rule="evenodd" d="M83.1292 8.85847L82.7414 7.81943L82.6238 7.87497L83.0115 8.88624L83.0393 8.94177H83.1014L83.1292 8.914V8.85847Z" fill="#100F0D"/>
<path fill-rule="evenodd" clip-rule="evenodd" d="M84.1339 8.65097L83.0671 8.79637L83.1014 8.94177L84.1682 8.7686L84.2237 8.73376V8.67823L84.196 8.65097H84.1339Z" fill="#100F0D"/>
<path fill-rule="evenodd" clip-rule="evenodd" d="M84.3136 8.67824L84.2858 8.65098H84.1682L84.1339 8.76862L84.2515 8.79639L84.2858 8.76862L84.3136 8.73378V8.67824Z" fill="#100F0D"/>
<path fill-rule="evenodd" clip-rule="evenodd" d="M85.1724 9.35734L84.3136 8.67828L84.2237 8.76866L85.0825 9.47498H85.1103H85.1724V9.41944V9.35734Z" fill="#100F0D"/>
<path fill-rule="evenodd" clip-rule="evenodd" d="M85.9136 8.67828L85.0825 9.35734L85.1724 9.47498L86.0039 8.76866L86.0317 8.73382V8.67828L85.9691 8.65102L85.9136 8.67828Z" fill="#100F0D"/>
<path fill-rule="evenodd" clip-rule="evenodd" d="M86.0589 8.65098H85.9413L85.9691 8.79639L86.0589 8.76862L86.1216 8.73378V8.67824L86.0867 8.65098H86.0589Z" fill="#100F0D"/>
<path fill-rule="evenodd" clip-rule="evenodd" d="M87.1535 8.79637L86.0589 8.65097V8.7686L87.1257 8.94177L87.1883 8.914L87.2156 8.88624V8.82363L87.1535 8.79637Z" fill="#100F0D"/>
<path fill-rule="evenodd" clip-rule="evenodd" d="M87.4792 7.81955L87.0702 8.85858L87.2156 8.88635L87.6039 7.87509V7.81955L87.569 7.79178H87.5135L87.4792 7.81955Z" fill="#100F0D"/>
<path fill-rule="evenodd" clip-rule="evenodd" d="M87.569 7.7296L87.4792 7.7917L87.569 7.875L87.6589 7.81946V7.7917V7.7296L87.6039 7.70183L87.569 7.7296Z" fill="#100F0D"/>
<path fill-rule="evenodd" clip-rule="evenodd" d="M88.6081 7.31402L87.569 7.70176L87.6316 7.84717L88.6636 7.43166L88.6979 7.40389V7.34178L88.6636 7.31402H88.6081Z" fill="#100F0D"/>
<path fill-rule="evenodd" clip-rule="evenodd" d="M88.4001 6.30986L88.5803 7.40393L88.698 7.37616L88.5182 6.2821L88.4905 6.24726H88.4627H88.4001V6.30986Z" fill="#100F0D"/>
<path fill-rule="evenodd" clip-rule="evenodd" d="M88.4279 6.19167L88.4001 6.28205L88.5182 6.30981L88.5455 6.21944V6.15734L88.4905 6.12957L88.4627 6.15734L88.4279 6.19167Z" fill="#100F0D"/>
<path fill-rule="evenodd" clip-rule="evenodd" d="M89.1412 5.29853L88.4278 6.15733L88.5455 6.24719L89.2316 5.3884L89.2588 5.36063L89.2316 5.29853H89.169H89.1412Z" fill="#100F0D"/>
<path fill-rule="evenodd" clip-rule="evenodd" d="M88.4279 4.52963L89.1412 5.38843L89.2316 5.29856L88.5455 4.43926H88.4905H88.4279L88.4001 4.50186L88.4279 4.52963Z" fill="#100F0D"/>
<path fill-rule="evenodd" clip-rule="evenodd" d="M88.4001 4.38438V4.43942L88.4279 4.52979L88.5455 4.47425L88.5182 4.38438L88.4905 4.35661H88.4279L88.4001 4.38438Z" fill="#100F0D"/>
<path fill-rule="evenodd" clip-rule="evenodd" d="M5.86663 11.6357H6.15749L6.45537 11.608L6.7532 11.5807L7.01639 11.5181L7.31421 11.4626L7.58432 11.4005L7.84751 11.3106L8.11767 11.1925L8.38087 11.0748L8.61634 10.9572L8.85878 10.8118L9.09426 10.6593L9.32973 10.5139L9.53754 10.3337L9.74534 10.1605L9.9531 9.95299L10.1609 9.74498L10.3341 9.53748L10.5142 9.32947L10.6596 9.0942L10.812 8.85842L10.9575 8.61608L11.0752 8.3803L11.1929 8.11726L11.3107 7.84716L11.4007 7.58411L11.463 7.314L11.5185 7.01613L11.5808 6.75309L11.6085 6.45521L11.6362 6.15733V5.86653V5.56865L11.6085 5.27077L11.5808 4.9729L11.5185 4.70985L11.463 4.41198L11.4007 4.14843L11.3107 3.87832L11.1929 3.61528L11.0752 3.34517L10.9575 3.1094L10.812 2.84636L10.6596 2.63885L10.5142 2.39651L10.3341 2.19557L10.1609 1.95273L9.9531 1.77956L9.74534 1.57205L9.53754 1.39181L9.32973 1.21207L9.09426 1.06616L8.85878 0.920759L8.61634 0.768794L8.38087 0.650651L8.11767 0.533015L7.84751 0.41538L7.58432 0.325514L7.31421 0.235139L7.01639 0.180105L6.7532 0.145271L6.45537 0.089735H6.15749L5.86663 0.0619669L5.56876 0.089735H5.27093L4.9731 0.145271L4.68219 0.180105L4.41209 0.235139L4.11426 0.325514L3.87879 0.41538L3.61554 0.533015L3.34543 0.650651L3.08224 0.768794L2.84677 0.920759L2.60433 1.06616L2.39652 1.21207L2.16105 1.39181L1.95324 1.57205L1.74548 1.77956L1.57231 1.95273L1.39222 2.19557L1.21213 2.39651L1.06668 2.63885L0.886588 2.84636L0.768851 3.1094L0.623396 3.34517L0.505659 3.61528L0.415639 3.87832L0.32557 4.14843L0.23555 4.41198L0.180115 4.70985L0.117813 4.9729L0.0900956 5.27077L0.0623779 5.56865V5.86653V6.15733L0.0900956 6.45521L0.117813 6.75309L0.180115 7.01613L0.23555 7.314L0.32557 7.58411L0.415639 7.84716L0.505659 8.11726L0.623396 8.3803L0.768851 8.61608L0.886588 8.85842L1.06668 9.0942L1.21213 9.32947L1.39222 9.53748L1.57231 9.74498L1.74548 9.95299L1.95324 10.1605L2.16105 10.3337L2.39652 10.5139L2.60433 10.6593L2.84677 10.8118L3.08224 10.9572L3.34543 11.0748L3.61554 11.1925L3.87879 11.3106L4.11426 11.4005L4.41209 11.4626L4.68219 11.5181L4.9731 11.5807L5.27093 11.608L5.56876 11.6357H5.86663Z" fill="#100F0D"/>
<path fill-rule="evenodd" clip-rule="evenodd" d="M11.5808 5.86661V6.15741L11.5531 6.45529L11.5184 6.7254L11.463 7.01621L11.4007 7.28631L11.3106 7.54936L11.2275 7.81947L11.1375 8.08301L11.0197 8.35312L10.902 8.58839L10.7496 8.82366L10.6042 9.05944L10.4518 9.26695L10.2786 9.50979L10.0985 9.71729L9.91844 9.91824L9.7176 10.0985L9.50979 10.2782L9.30204 10.4519L9.0596 10.6039L8.82412 10.7493L8.5886 10.9017L8.35312 11.0194L8.08301 11.1375L7.81982 11.2274L7.54966 11.3107L7.28647 11.4006L7.01636 11.4627L6.72545 11.5182L6.45534 11.553L6.15747 11.5808H5.86661V11.7262L6.15747 11.6984L6.45534 11.6707L6.75317 11.6358L7.051 11.6081L7.31419 11.5182L7.61201 11.4627L7.87521 11.3728L8.14532 11.2551L8.40856 11.1375L8.65095 11.0194L8.88642 10.8674L9.14967 10.722L9.35742 10.5418L9.59295 10.3686L9.8007 10.1883L10.0085 10.0081L10.1886 9.8006L10.3964 9.59259L10.5418 9.35732L10.7219 9.12154L10.8674 8.88627L11.0197 8.651L11.1375 8.38038L11.2553 8.14511L11.373 7.875L11.463 7.61196L11.5184 7.31408L11.6085 7.05054L11.6362 6.75317L11.6708 6.45529L11.6985 6.15741L11.7263 5.86661H11.5808Z" fill="#100F0D"/>
<path fill-rule="evenodd" clip-rule="evenodd" d="M5.86661 0.145321H6.15747L6.45534 0.180155L6.72545 0.20742L7.01636 0.235188L7.28647 0.325563L7.54966 0.387661L7.81982 0.477529L8.08301 0.595672L8.35312 0.713306L8.5886 0.830942L8.82412 0.976345L9.0596 1.12882L9.30204 1.27422L9.50979 1.45446L9.7176 1.62764L9.91844 1.80737L10.0985 2.01538L10.2786 2.22289L10.4518 2.4309L10.6042 2.66667L10.7496 2.90194L10.902 3.13721L11.0197 3.38006L11.1375 3.6431L11.2275 3.90614L11.3106 4.14848L11.4007 4.43929L11.463 4.7099L11.5184 5.00728L11.5531 5.27082L11.5808 5.5687V5.86658H11.7263L11.6985 5.5687L11.6708 5.27082L11.6362 4.97295L11.6085 4.68213L11.5184 4.38426L11.463 4.11415L11.373 3.8506L11.2553 3.58049L11.1375 3.31746L11.0197 3.08219L10.8674 2.81208L10.7219 2.5763L10.5418 2.36879L10.3964 2.13302L10.1886 1.92551L10.0085 1.7175L9.8007 1.5095L9.59295 1.33632L9.35742 1.18435L9.14967 1.00411L8.88642 0.85871L8.65095 0.713306L8.40856 0.595672L8.14532 0.477529L7.87521 0.352823L7.61201 0.270027L7.31419 0.180155L7.051 0.117553L6.75317 0.0620165L6.45534 0.0276861L6.15747 -8.2016e-05H5.86661V0.145321Z" fill="#100F0D"/>
<path fill-rule="evenodd" clip-rule="evenodd" d="M0.117787 5.86658V5.5687L0.145454 5.27082L0.180089 5.00728L0.235524 4.7099L0.297826 4.43929L0.387896 4.14848L0.477915 3.90614L0.595703 3.6431L0.678806 3.38006L0.831177 3.13721L0.948914 2.90194L1.09437 2.66667L1.27446 2.4309L1.45455 2.22289L1.62772 2.01538L1.80776 1.80737L2.01557 1.62764L2.22337 1.45446L2.43113 1.27422L2.66665 1.12882L2.87441 0.976345L3.13765 0.830942L3.38004 0.713306L3.64324 0.595672L3.87876 0.477529L4.14887 0.387661L4.43978 0.325563L4.70989 0.235188L4.97308 0.20742L5.27091 0.180155L5.56873 0.145321H5.86661V-8.2016e-05H5.56873L5.27091 0.0276861L4.97308 0.0620165L4.68217 0.117553L4.38434 0.180155L4.11423 0.270027L3.85104 0.352823L3.58093 0.477529L3.31769 0.595672L3.0545 0.713306L2.81211 0.85871L2.57658 1.00411L2.34111 1.18435L2.1333 1.33632L1.92555 1.5095L1.71774 1.7175L1.50993 1.92551L1.33681 2.13302L1.15672 2.36879L1.00435 2.5763L0.831177 2.81208L0.71344 3.08219L0.561069 3.31746L0.443281 3.58049L0.353262 3.8506L0.270159 4.11415L0.180089 4.38426L0.117787 4.68213L0.0623521 4.97295L0.0277176 5.27082L0 5.5687V5.86658H0.117787Z" fill="#100F0D"/>
<path fill-rule="evenodd" clip-rule="evenodd" d="M5.86661 11.5808H5.56873L5.27091 11.553L4.97308 11.5182L4.70989 11.4627L4.43978 11.4006L4.14887 11.3107L3.87876 11.2274L3.64324 11.1375L3.38004 11.0194L3.13765 10.9017L2.87441 10.7493L2.66665 10.6039L2.43113 10.4519L2.22337 10.2782L2.01557 10.0985L1.80776 9.91824L1.62772 9.71729L1.45455 9.50979L1.27446 9.26695L1.09437 9.05944L0.948914 8.82366L0.831177 8.58839L0.678806 8.32535L0.595703 8.08301L0.477915 7.81947L0.387896 7.54936L0.297826 7.28631L0.235524 7.01621L0.180089 6.7254L0.145454 6.45529L0.117787 6.15741V5.86661H0V6.15741L0.0277176 6.45529L0.0623521 6.75317L0.117787 7.05054L0.180089 7.31408L0.270159 7.61196L0.353262 7.875L0.443281 8.14511L0.561069 8.40815L0.71344 8.651L0.831177 8.88627L1.00435 9.12154L1.15672 9.35732L1.33681 9.59259L1.50993 9.8006L1.71774 10.0081L1.92555 10.1883L2.1333 10.3686L2.34111 10.5418L2.57658 10.722L2.81211 10.8674L3.0545 11.0194L3.31769 11.1375L3.58093 11.2551L3.85104 11.3728L4.11423 11.4627L4.38434 11.5182L4.68217 11.6081L4.97308 11.6358L5.27091 11.6707L5.56873 11.6984L5.86661 11.7262V11.5808Z" fill="#100F0D"/>
<path fill-rule="evenodd" clip-rule="evenodd" d="M9.89077 4.73725L10.0709 3.43517L8.85875 2.96412L8.76868 2.87426L8.29076 1.62772L6.98864 1.83522L6.8709 1.80745L5.8666 0.976425L4.82762 1.80745L4.70988 1.83522L3.40775 1.62772L2.92984 2.87426L2.8744 2.96412L1.62771 3.43517L1.83547 4.73725L1.80775 4.82762L0.976624 5.86666L1.80775 6.89862L1.83547 6.98849L1.62771 8.29057L2.8744 8.76868L2.92984 8.85855L3.40775 10.0708L4.70988 9.86275L4.82762 9.91829L5.8666 10.722L6.8709 9.91829L6.98864 9.86275L8.29076 10.0708L8.76868 8.85855L8.85875 8.76868L10.0709 8.29057L9.89077 6.98849V6.89862L10.7219 5.86666L9.89077 4.82762V4.73725Z" fill="white"/>
<path fill-rule="evenodd" clip-rule="evenodd" d="M10.0085 3.40734L9.80069 4.70992L9.95306 4.73718L10.1609 3.43511L10.1262 3.38008L10.0985 3.34524L10.0431 3.38008L10.0085 3.40734Z" fill="#100F0D"/>
<path fill-rule="evenodd" clip-rule="evenodd" d="M8.79642 2.99192L8.82413 3.01968L10.0709 3.4978L10.0985 3.34533L8.88644 2.90205H8.82413L8.79642 2.92982V2.99192Z" fill="#100F0D"/>
<path fill-rule="evenodd" clip-rule="evenodd" d="M8.73406 2.90195L8.79641 2.99182L8.88643 2.90195L8.82413 2.81209H8.76869H8.73406L8.70639 2.87419L8.73406 2.90195Z" fill="#100F0D"/>
<path fill-rule="evenodd" clip-rule="evenodd" d="M8.23541 1.662L8.70641 2.90198L8.82415 2.84644L8.35315 1.62767L8.32543 1.57213H8.26313L8.23541 1.5999V1.662Z" fill="#100F0D"/>
<path fill-rule="evenodd" clip-rule="evenodd" d="M7.01635 1.92554L8.29076 1.71753V1.57212L6.98863 1.77963L6.9332 1.8074V1.86294L6.96091 1.89777L7.01635 1.92554Z" fill="#100F0D"/>
<path fill-rule="evenodd" clip-rule="evenodd" d="M6.8709 1.86294L6.96092 1.92554L7.01635 1.77963L6.89861 1.7453H6.84318L6.81546 1.8074V1.83517L6.8709 1.86294Z" fill="#100F0D"/>
<path fill-rule="evenodd" clip-rule="evenodd" d="M5.80426 1.03896L6.84319 1.86292L6.93321 1.77961L5.89428 0.920813H5.86661L5.80426 0.948582V0.97635V1.03896Z" fill="#100F0D"/>
<path fill-rule="evenodd" clip-rule="evenodd" d="M4.88994 1.86287L5.89424 1.03891L5.80422 0.92077L4.79992 1.77957L4.76529 1.80734L4.79992 1.86287L4.82759 1.89771L4.88994 1.86287Z" fill="#100F0D"/>
<path fill-rule="evenodd" clip-rule="evenodd" d="M4.73759 1.92554L4.85533 1.86294L4.82761 1.7453L4.70987 1.77963L4.64752 1.8074V1.86294L4.68216 1.89777L4.73759 1.92554Z" fill="#100F0D"/>
<path fill-rule="evenodd" clip-rule="evenodd" d="M3.40775 1.71753L4.70988 1.92554L4.73759 1.77963L3.43547 1.57212L3.38003 1.59989L3.3454 1.62766V1.68976L3.40775 1.71753Z" fill="#100F0D"/>
<path fill-rule="evenodd" clip-rule="evenodd" d="M3.01987 2.90192L3.49779 1.66194L3.34542 1.62761L2.87442 2.84638V2.90192L2.92986 2.92969H2.96449L3.01987 2.90192Z" fill="#100F0D"/>
<path fill-rule="evenodd" clip-rule="evenodd" d="M2.90213 2.99176L2.9922 2.9019L2.90213 2.81203L2.81211 2.9019L2.78439 2.96399L2.81211 2.99176L2.87441 3.01953L2.90213 2.99176Z" fill="#100F0D"/>
<path fill-rule="evenodd" clip-rule="evenodd" d="M1.66232 3.4978L2.90214 3.01968L2.84675 2.90205L1.60001 3.34533L1.5723 3.40743V3.4352L1.60001 3.4978H1.66232Z" fill="#100F0D"/>
<path fill-rule="evenodd" clip-rule="evenodd" d="M1.89784 4.70994L1.69003 3.40736L1.5723 3.43513L1.7801 4.7372L1.80777 4.76497L1.83549 4.7998L1.89784 4.76497V4.70994Z" fill="#100F0D"/>
<path fill-rule="evenodd" clip-rule="evenodd" d="M1.86319 4.85525L1.89782 4.73712L1.78009 4.70985L1.74545 4.82749V4.88959L1.78009 4.91736L1.83547 4.88959L1.86319 4.85525Z" fill="#100F0D"/>
<path fill-rule="evenodd" clip-rule="evenodd" d="M1.03899 5.92175L1.8632 4.88979L1.74546 4.79992L0.921204 5.80412V5.86672L0.948921 5.92175H0.976639H1.03899Z" fill="#100F0D"/>
<path fill-rule="evenodd" clip-rule="evenodd" d="M1.8632 6.84306L1.03899 5.80402L0.921204 5.92166L1.74546 6.93293L1.80777 6.96069L1.83548 6.93293L1.8632 6.89859V6.84306Z" fill="#100F0D"/>
<path fill-rule="evenodd" clip-rule="evenodd" d="M1.89782 7.01632V6.98856L1.86319 6.87092L1.74545 6.89869L1.78009 7.01632L1.80776 7.05066H1.86319L1.89782 7.01632Z" fill="#100F0D"/>
<path fill-rule="evenodd" clip-rule="evenodd" d="M1.69003 8.32538L1.89784 7.01623L1.7801 6.98847L1.5723 8.29054V8.32538L1.62773 8.35315H1.66232L1.69003 8.32538Z" fill="#100F0D"/>
<path fill-rule="evenodd" clip-rule="evenodd" d="M2.90213 8.7061L1.66231 8.23505L1.60001 8.35319L2.84675 8.82373H2.90213L2.92985 8.79647V8.73386L2.90213 8.7061Z" fill="#100F0D"/>
<path fill-rule="evenodd" clip-rule="evenodd" d="M2.99219 8.79631L2.90212 8.7337L2.8121 8.82357L2.90212 8.91394H2.96447L2.99219 8.88617L3.01986 8.8584L2.99219 8.79631Z" fill="#100F0D"/>
<path fill-rule="evenodd" clip-rule="evenodd" d="M3.49779 10.0708L3.01987 8.82373L2.87442 8.88634L3.34542 10.0985L3.38005 10.1606H3.43549L3.49779 10.0985V10.0708Z" fill="#100F0D"/>
<path fill-rule="evenodd" clip-rule="evenodd" d="M4.7099 9.80066L3.40778 10.0082L3.43549 10.1606L4.73762 9.95314L4.76534 9.9183V9.86277V9.835L4.7099 9.80066Z" fill="#100F0D"/>
<path fill-rule="evenodd" clip-rule="evenodd" d="M4.88999 9.86282L4.85535 9.83505L4.73762 9.80072L4.7099 9.95319L4.82764 9.98096L4.85535 9.95319L4.88999 9.91836V9.86282Z" fill="#100F0D"/>
<path fill-rule="evenodd" clip-rule="evenodd" d="M5.89428 10.6941L4.88998 9.8626L4.79996 9.95297L5.80426 10.7769L5.86661 10.8118L5.92199 10.7769V10.7219L5.89428 10.6941Z" fill="#100F0D"/>
<path fill-rule="evenodd" clip-rule="evenodd" d="M6.84319 9.86265L5.80426 10.6942L5.89428 10.777L6.93321 9.95302L6.96093 9.91819L6.93321 9.86265L6.89863 9.83488L6.84319 9.86265Z" fill="#100F0D"/>
<path fill-rule="evenodd" clip-rule="evenodd" d="M7.01637 9.80072H6.96093L6.87091 9.83505L6.89863 9.98096L7.01637 9.95319L7.051 9.91836V9.86282L7.01637 9.80072Z" fill="#100F0D"/>
<path fill-rule="evenodd" clip-rule="evenodd" d="M8.29077 10.0082L7.01637 9.80066L6.98865 9.95314L8.29077 10.1606L8.32541 10.1263L8.35313 10.0985V10.043L8.29077 10.0082Z" fill="#100F0D"/>
<path fill-rule="evenodd" clip-rule="evenodd" d="M8.73408 8.79644L8.70641 8.8237L8.23541 10.0707L8.35315 10.0985L8.82415 8.88631V8.8237L8.79643 8.79644H8.73408Z" fill="#100F0D"/>
<path fill-rule="evenodd" clip-rule="evenodd" d="M8.79639 8.7337L8.73404 8.79631L8.82411 8.91394L8.88641 8.82357L8.91413 8.76854V8.7337L8.85874 8.70593L8.79639 8.7337Z" fill="#100F0D"/>
<path fill-rule="evenodd" clip-rule="evenodd" d="M10.0709 8.23505L8.82413 8.7061L8.88643 8.82373L10.0985 8.35319L10.1609 8.32542V8.26282L10.1263 8.23505H10.0709Z" fill="#100F0D"/>
<path fill-rule="evenodd" clip-rule="evenodd" d="M9.80069 7.01629L10.0085 8.32544L10.1609 8.2906L9.95306 6.98852L9.91843 6.93299H9.86304L9.83532 6.96076L9.80069 7.01629Z" fill="#100F0D"/>
<path fill-rule="evenodd" clip-rule="evenodd" d="M9.86304 6.84294L9.83532 6.87071L9.80069 6.98835L9.95306 7.01611L9.98078 6.89848L9.95306 6.84294L9.91843 6.81517L9.86304 6.84294Z" fill="#100F0D"/>
<path fill-rule="evenodd" clip-rule="evenodd" d="M10.6942 5.80396L9.86307 6.84299L9.95309 6.93286L10.7773 5.9216L10.812 5.86657L10.7773 5.80396H10.7219H10.6942Z" fill="#100F0D"/>
<path fill-rule="evenodd" clip-rule="evenodd" d="M9.86304 4.88979L10.6942 5.92175L10.7773 5.80412L9.95306 4.79992L9.89076 4.76508L9.86304 4.79992L9.83533 4.82769L9.86304 4.88979Z" fill="#100F0D"/>
<path fill-rule="evenodd" clip-rule="evenodd" d="M9.80069 4.73733L9.83532 4.85547L9.98078 4.8277L9.95306 4.71007L9.91843 4.6823L9.86304 4.64746L9.83532 4.6823L9.80069 4.73733Z" fill="#100F0D"/>
</svg>
