<svg width="90" height="55" viewBox="0 0 90 55" fill="none" xmlns="http://www.w3.org/2000/svg">
<path fill-rule="evenodd" clip-rule="evenodd" d="M81.6474 8.76864L81.5292 8.61616L81.4116 8.49853L81.294 8.40815L81.1763 8.35312L81.0238 8.29052H80.9062L80.7608 8.26275H80.6427H11.9964H11.934H11.8786H11.7886H11.7263H11.6362L11.5531 8.29052H11.463L11.373 8.32536L11.2829 8.35312L11.2276 8.40815L11.1375 8.47076L11.0475 8.5263L10.9574 8.61616L10.902 8.7338L10.812 8.8585L10.7496 9.00391L10.902 2.84644L10.9851 2.90198L11.1029 2.92974L11.1652 2.99184L11.2829 3.01961L11.3453 3.05445L11.4354 3.08222L11.5185 3.10948H11.6085L11.6985 3.13725H11.7609H11.844H11.934L11.9964 3.17208H12.0864H12.1695H12.2318H79.5764H79.6662L79.7495 3.13725H79.8394H79.957H80.0469L80.1373 3.10948H80.2549L80.3448 3.08222H80.4352L80.525 3.05445L80.6083 3.01961L80.6982 2.99184L80.7608 2.96407L80.8507 2.90198L80.9062 2.87421L80.9961 2.84644L81.6474 8.76864Z" fill="#100F0D"/>
<path fill-rule="evenodd" clip-rule="evenodd" d="M80.6427 8.32546H80.7608L80.9062 8.35323L81.0239 8.38049L81.1415 8.40826L81.2662 8.47086L81.3839 8.56073L81.4672 8.65111L81.5919 8.79651L81.7095 8.7339L81.5919 8.56073L81.4672 8.4431L81.3218 8.35323L81.2041 8.29062L81.0582 8.23509L80.9062 8.20076H80.7608L80.6427 8.17299V8.32546Z" fill="#100F0D"/>
<path fill-rule="evenodd" clip-rule="evenodd" d="M11.9963 8.32544H80.6426V8.17297H11.9963L11.9617 8.20073L11.934 8.26283L11.9617 8.32544H11.9963Z" fill="#100F0D"/>
<path fill-rule="evenodd" clip-rule="evenodd" d="M10.8119 9.03168L10.8673 8.88628L10.9573 8.76864L11.0196 8.67827L11.0751 8.5884L11.1651 8.5263L11.2552 8.47076L11.3105 8.40816L11.4006 8.38039L11.4906 8.35313H11.553L11.6361 8.32536H11.7262H11.7885H11.8785H11.9339H11.9963V8.17289H11.9339H11.8785H11.7885H11.7262L11.6084 8.20066H11.5184L11.4353 8.23499L11.3729 8.26275L11.2552 8.29052L11.1651 8.35313L11.0751 8.40816L10.985 8.49853L10.9296 8.5884L10.8395 8.70604L10.7495 8.82367L10.6941 8.97614V9.03168L10.7218 9.05945H10.7772L10.8119 9.03168Z" fill="#100F0D"/>
<path fill-rule="evenodd" clip-rule="evenodd" d="M10.8395 2.84644L10.6941 9.00391H10.8119L10.985 2.84644L10.9573 2.78434L10.9019 2.75657L10.8673 2.78434L10.8395 2.84644Z" fill="#100F0D"/>
<path fill-rule="evenodd" clip-rule="evenodd" d="M12.2319 3.08238H11.6986L11.6085 3.05461H11.5532L11.4631 3.01977L11.3731 2.99201L11.283 2.96424L11.193 2.92991L11.1376 2.87437L11.0198 2.8466L10.9575 2.7845L10.8674 2.90214L10.9575 2.96424L11.0752 2.99201L11.1653 3.05461L11.2553 3.08238L11.3107 3.10964L11.4354 3.13741L11.5185 3.17225L11.5809 3.20002H11.6709H11.7609H11.8441L11.9064 3.22778H11.9964H12.0865H12.1696H12.2319V3.08238Z" fill="#100F0D"/>
<path fill-rule="evenodd" clip-rule="evenodd" d="M79.5763 3.08238H12.2318V3.22778H79.5763L79.6313 3.20002V3.17225V3.10964L79.5763 3.08238Z" fill="#100F0D"/>
<path fill-rule="evenodd" clip-rule="evenodd" d="M80.9335 2.7845L80.8785 2.81227L80.8159 2.8466L80.7609 2.90214L80.6705 2.92991L80.5806 2.96424L80.4902 2.99201H80.4074L80.3176 3.01977L80.2272 3.05461H80.1373L80.047 3.08238H79.9571H79.8395H79.7496H79.6663H79.5764V3.22778H79.6663H79.7496H79.8743L79.9571 3.20002H80.047H80.1651L80.255 3.17225L80.3448 3.13741H80.4352L80.5528 3.10964L80.6084 3.08238L80.7331 3.05461L80.7881 3.01977L80.8785 2.96424L80.9684 2.92991L81.0239 2.87437L81.0582 2.8466L81.0239 2.7845L80.9961 2.75673L80.9335 2.7845Z" fill="#100F0D"/>
<path fill-rule="evenodd" clip-rule="evenodd" d="M81.7095 8.73386L81.0582 2.81218L80.9062 2.84651L81.557 8.7687L81.5919 8.79647L81.6474 8.82373L81.6747 8.79647L81.7095 8.73386Z" fill="#100F0D"/>
<path fill-rule="evenodd" clip-rule="evenodd" d="M78.3641 3.94094V3.87833H12.7928V3.99597H78.3641V3.94094Z" fill="white"/>
<path fill-rule="evenodd" clip-rule="evenodd" d="M85.1103 10.1884L85.3804 10.1606H85.6157L85.8515 10.1263L86.0868 10.0707L86.3291 10.0081L86.5649 9.95308L86.7724 9.89048L87.0082 9.80061L87.2157 9.7173L87.4237 9.5926L87.6317 9.47496L87.8049 9.35733L88.0124 9.21192L88.1926 9.05945L88.3723 8.91405L88.5182 8.76864L88.698 8.5884L88.8434 8.443L88.9888 8.23499L89.1135 8.05525L89.2316 7.84724L89.3493 7.63974L89.4669 7.43173L89.5568 7.22372L89.6472 7.01621L89.7299 6.78044L89.7926 6.54517L89.8481 6.33716L89.8824 6.10189L89.9102 5.86662L89.938 5.59651V5.36073V5.09769L89.9102 4.85535L89.8824 4.61957L89.8481 4.3843L89.7926 4.14852L89.7299 3.90618L89.6472 3.70524L89.5568 3.4629L89.4669 3.2554L89.3493 3.05446L89.2316 2.84645L89.1135 2.66671L88.9888 2.4587L88.8434 2.27846L88.698 2.10529L88.5182 1.95282L88.3723 1.77964L88.1926 1.62767L88.0124 1.48227L87.8049 1.36413L87.6317 1.21216L87.4237 1.12886L87.2157 1.00415L87.0082 0.920848L86.7724 0.830981L86.5649 0.741115L86.3291 0.678508L86.0868 0.622972L85.8515 0.595711L85.6157 0.560873L85.3804 0.533104H85.1103H84.8746L84.6115 0.560873L84.3692 0.595711L84.1339 0.622972L83.8981 0.678508L83.6906 0.741115L83.4549 0.830981L83.2473 0.920848L83.0116 1.00415L82.8041 1.12886L82.5961 1.21216L82.4158 1.36413L82.2083 1.48227L82.0351 1.62767L81.8549 1.77964L81.7095 1.95282L81.5293 2.10529L81.3838 2.27846L81.2314 2.4587L81.1137 2.66671L80.9961 2.84645L80.8785 3.05446L80.7608 3.2554L80.6705 3.4629L80.5806 3.70524L80.4902 3.90618L80.4352 4.14852L80.3726 4.3843L80.3448 4.61957L80.3176 4.85535L80.2827 5.09769V5.36073V5.59651L80.3176 5.86662L80.3448 6.10189L80.3726 6.33716L80.4352 6.54517L80.4902 6.78044L80.5806 7.01621L80.6705 7.22372L80.7608 7.43173L80.8785 7.63974L80.9961 7.84724L81.1137 8.05525L81.2314 8.23499L81.3838 8.443L81.5293 8.5884L81.7095 8.76864L81.8549 8.91405L82.0351 9.05945L82.2083 9.21192L82.4158 9.35733L82.5961 9.47496L82.8041 9.5926L83.0116 9.7173L83.2473 9.80061L83.4549 9.89048L83.6906 9.95308L83.8981 10.0081L84.1339 10.0707L84.3692 10.1263L84.6115 10.1606H84.8746L85.1103 10.1884Z" fill="#100F0D"/>
<path fill-rule="evenodd" clip-rule="evenodd" d="M89.8823 5.36086V5.59663L89.848 5.8319L89.8202 6.07425L89.7925 6.31002L89.7298 6.54529L89.6471 6.78057L89.5844 6.98857L89.4946 7.19658L89.4047 7.40409L89.2866 7.6121L89.1967 7.8196L89.0513 8.02761L88.9337 8.20078L88.7883 8.38052L88.6358 8.56076L88.4904 8.73393L88.3101 8.8864L88.1299 9.03181L87.9567 9.18428L87.777 9.30192L87.6038 9.41955L87.3958 9.5377L87.1883 9.65533L86.9803 9.7452L86.745 9.83507L86.537 9.89061L86.2947 9.95321L86.0589 10.0082L85.8236 10.0708L85.6156 10.0986H85.3526H85.1102V10.244H85.3803L85.6156 10.2163L85.8514 10.1885L86.0867 10.1607L86.329 10.0986L86.5648 10.0082L86.8001 9.95321L87.0081 9.86284L87.2433 9.77297L87.4513 9.65533L87.6588 9.5377L87.8669 9.41955L88.0471 9.26708L88.2203 9.12168L88.4 8.97627L88.5802 8.8238L88.7534 8.65113L88.9059 8.47089L89.0235 8.29065L89.1689 8.08315L89.2866 7.87514L89.4047 7.70197L89.5223 7.49396L89.6122 7.25868L89.7026 7.05068L89.7925 6.8154L89.848 6.57306L89.9101 6.33728L89.9379 6.10201L89.9727 5.86674L90 5.6239V5.36086H89.8823Z" fill="#100F0D"/>
<path fill-rule="evenodd" clip-rule="evenodd" d="M85.1102 0.59582H85.3526L85.6156 0.623081L85.8236 0.650849L86.0589 0.678617L86.2947 0.741224L86.537 0.803323L86.745 0.886627L86.9803 0.976494L87.1883 1.06636L87.3958 1.1845L87.6038 1.27437L87.777 1.41977L87.9567 1.53741L88.1299 1.68988L88.3101 1.83529L88.4904 1.98776L88.6358 2.16094L88.7883 2.34117L88.9337 2.52091L89.0513 2.69408L89.1967 2.87433L89.2866 3.08234L89.4047 3.28984L89.4946 3.49785L89.5844 3.73312L89.6471 3.94113L89.7298 4.1764L89.7925 4.38441L89.8202 4.61968L89.848 4.85546L89.8823 5.12556V5.36084H90V5.0978L89.9727 4.85546L89.9379 4.61968L89.9101 4.38441L89.848 4.14863L89.7925 3.90629L89.7026 3.67102L89.6122 3.43524L89.5223 3.22774L89.4047 3.01973L89.2866 2.81223L89.1689 2.60422L89.0235 2.43105L88.9059 2.2508L88.7534 2.07106L88.5802 1.89789L88.4 1.71765L88.2203 1.57225L88.0471 1.41977L87.8669 1.30214L87.6588 1.1845L87.4513 1.06636L87.2433 0.948726L87.0081 0.831091L86.8001 0.768992L86.5648 0.678617L86.329 0.623081L86.0867 0.560982L85.8514 0.533214L85.6156 0.477677H85.3803L85.1102 0.443347V0.59582Z" fill="#100F0D"/>
<path fill-rule="evenodd" clip-rule="evenodd" d="M80.3447 5.36084V5.12556L80.3725 4.85546L80.4073 4.61968L80.4351 4.38441L80.4901 4.1764L80.5527 3.94113L80.6426 3.73312L80.7329 3.49785L80.8157 3.28984L80.9334 3.08234L81.0581 2.87433L81.1762 2.69408L81.2939 2.52091L81.4393 2.34117L81.5917 2.16094L81.7371 1.98776L81.9174 1.83529L82.0905 1.68988L82.2703 1.53741L82.4505 1.41977L82.6515 1.27437L82.8312 1.1845L83.0392 1.06636L83.2472 0.976494L83.4825 0.886627L83.6905 0.803323L83.9258 0.741224L84.1681 0.678617L84.4039 0.650849L84.6392 0.623081L84.8744 0.59582H85.1102V0.443347L84.8472 0.477677H84.6114L84.3691 0.533214L84.1338 0.560982L83.898 0.623081L83.6627 0.678617L83.427 0.768992L83.2194 0.831091L82.9837 0.948726L82.7762 1.06636L82.5682 1.1845L82.3879 1.30214L82.1804 1.41977L82.0002 1.57225L81.827 1.71765L81.6473 1.89789L81.5014 2.07106L81.3216 2.2508L81.204 2.43105L81.0581 2.60422L80.9334 2.81223L80.8157 3.01973L80.6981 3.22774L80.6082 3.43524L80.5249 3.67102L80.4351 3.90629L80.3725 4.14863L80.3174 4.38441L80.2826 4.61968L80.2548 4.85546L80.2271 5.0978V5.36084H80.3447Z" fill="#100F0D"/>
<path fill-rule="evenodd" clip-rule="evenodd" d="M85.1102 10.0986H84.6392L84.4039 10.0708L84.1681 10.0082L83.9258 9.95321L83.6905 9.89061L83.4825 9.83507L83.2472 9.7452L83.0392 9.65533L82.8312 9.5377L82.6515 9.41955L82.4505 9.30192L82.2703 9.18428L82.0905 9.03181L81.9174 8.8864L81.7371 8.73393L81.5917 8.56076L81.4393 8.38052L81.2939 8.20078L81.1762 8.02761L81.0581 7.8196L80.9334 7.6121L80.8157 7.40409L80.7329 7.19658L80.6426 6.98857L80.5527 6.78057L80.4901 6.54529L80.4351 6.31002L80.4073 6.07425L80.3725 5.8319L80.3447 5.59663V5.36086H80.2271V5.6239L80.2548 5.86674L80.2826 6.10201L80.3174 6.33728L80.3725 6.57306L80.4351 6.8154L80.5249 7.05068L80.6082 7.25868L80.6981 7.49396L80.8157 7.70197L80.9334 7.87514L81.0581 8.08315L81.204 8.29065L81.3216 8.47089L81.5014 8.65113L81.6473 8.8238L81.827 8.97627L82.0002 9.12168L82.1804 9.26708L82.3879 9.41955L82.5682 9.5377L82.7762 9.65533L82.9837 9.77297L83.2194 9.86284L83.427 9.95321L83.6627 10.0082L83.898 10.0986L84.1338 10.1607L84.3691 10.1885L84.6114 10.2163L84.8472 10.244H85.1102V10.0986Z" fill="#100F0D"/>
<path fill-rule="evenodd" clip-rule="evenodd" d="M88.4626 4.4122L88.6358 3.31763L87.6038 2.92988L87.5412 2.84658L87.1535 1.83531L86.0589 2.01555L85.969 1.98778L85.1102 1.30216L84.2514 1.98778L84.1681 2.01555L83.067 1.83531L82.6858 2.84658L82.6237 2.92988L81.5918 3.31763L81.7649 4.4122L81.7372 4.50206L81.0581 5.36086L81.7372 6.21965L81.7649 6.31003L81.5918 7.37633L82.6237 7.79184L82.6858 7.84737L83.067 8.88641L84.1681 8.70617L84.2514 8.73393L85.1102 9.41956L85.969 8.73393L86.0589 8.70617L87.1535 8.88641L87.5412 7.84737L87.6038 7.79184L88.6358 7.37633L88.4626 6.31003L88.4904 6.21965L89.1689 5.36086L88.4904 4.50206L88.4626 4.4122Z" fill="white"/>
<path fill-rule="evenodd" clip-rule="evenodd" d="M88.5803 3.31754L88.4 4.38434L88.5182 4.41211L88.6979 3.34531V3.28977L88.6358 3.25544H88.608L88.5803 3.31754Z" fill="#100F0D"/>
<path fill-rule="evenodd" clip-rule="evenodd" d="M87.569 2.99188L88.6081 3.38013L88.6636 3.25542L87.6316 2.87424H87.569L87.5413 2.90201V2.96411L87.569 2.99188Z" fill="#100F0D"/>
<path fill-rule="evenodd" clip-rule="evenodd" d="M87.4791 2.90189L87.569 2.96399L87.6589 2.87412L87.569 2.81202L87.5412 2.78426L87.4791 2.81202V2.84635V2.90189Z" fill="#100F0D"/>
<path fill-rule="evenodd" clip-rule="evenodd" d="M87.0702 1.863L87.4791 2.87427L87.6038 2.8465L87.2156 1.80747L87.1535 1.7797H87.1257L87.0702 1.80747V1.863Z" fill="#100F0D"/>
<path fill-rule="evenodd" clip-rule="evenodd" d="M86.0317 2.07104H86.0589L87.1535 1.89787L87.1257 1.77974L86.0589 1.95291H86.0039V2.01551L86.0317 2.07104Z" fill="#100F0D"/>
<path fill-rule="evenodd" clip-rule="evenodd" d="M85.9413 2.04328L86.0317 2.07104L86.0867 1.95291L85.9691 1.92564H85.9413L85.9136 1.95291V2.01551L85.9413 2.04328Z" fill="#100F0D"/>
<path fill-rule="evenodd" clip-rule="evenodd" d="M85.0825 1.33639L85.9135 2.04321L86.0039 1.92558L85.1723 1.24652L85.1102 1.21219L85.0825 1.24652L85.0547 1.30206L85.0825 1.33639Z" fill="#100F0D"/>
<path fill-rule="evenodd" clip-rule="evenodd" d="M84.3137 2.04321L85.1725 1.33639L85.0826 1.24652L84.2238 1.92558L84.196 1.98768L84.2238 2.01544L84.2516 2.04321H84.3137Z" fill="#100F0D"/>
<path fill-rule="evenodd" clip-rule="evenodd" d="M84.1338 2.07104H84.1959L84.2858 2.04328L84.2237 1.92564L84.1338 1.95291L84.1061 1.98774V2.01551L84.1338 2.07104Z" fill="#100F0D"/>
<path fill-rule="evenodd" clip-rule="evenodd" d="M83.067 1.89787L84.1338 2.07104L84.1681 1.95291L83.1013 1.77974H83.0392L83.0115 1.8075V1.86304L83.067 1.89787Z" fill="#100F0D"/>
<path fill-rule="evenodd" clip-rule="evenodd" d="M82.7414 2.87415L83.1292 1.86289L83.0115 1.80735L82.6238 2.84638V2.90192L82.6515 2.92969H82.7137L82.7414 2.87415Z" fill="#100F0D"/>
<path fill-rule="evenodd" clip-rule="evenodd" d="M82.6516 2.96405L82.7414 2.90195L82.6516 2.81209L82.5683 2.87419L82.5339 2.92972L82.5683 2.96405L82.6238 2.99182L82.6516 2.96405Z" fill="#100F0D"/>
<path fill-rule="evenodd" clip-rule="evenodd" d="M81.6195 3.38013L82.6515 2.99188L82.596 2.87424L81.5569 3.25542L81.5292 3.28975V3.34529L81.5569 3.38013H81.6195Z" fill="#100F0D"/>
<path fill-rule="evenodd" clip-rule="evenodd" d="M81.8271 4.43941V4.38438L81.6473 3.31757L81.5292 3.34534L81.7094 4.41214L81.7372 4.47424H81.7649L81.8271 4.43941Z" fill="#100F0D"/>
<path fill-rule="evenodd" clip-rule="evenodd" d="M81.7928 4.52975L81.8272 4.43938L81.7095 4.38435L81.6747 4.47422V4.52975L81.7095 4.56409H81.7651L81.7928 4.52975Z" fill="#100F0D"/>
<path fill-rule="evenodd" clip-rule="evenodd" d="M81.1138 5.38863L81.7928 4.52983L81.6747 4.43946L80.9962 5.29876L80.9684 5.36086L80.9962 5.38863L81.0582 5.42346L81.1138 5.38863Z" fill="#100F0D"/>
<path fill-rule="evenodd" clip-rule="evenodd" d="M81.7927 6.1574L81.1136 5.29861L80.996 5.38847L81.6745 6.24727L81.7371 6.2821L81.7927 6.24727V6.2195V6.1574Z" fill="#100F0D"/>
<path fill-rule="evenodd" clip-rule="evenodd" d="M81.8272 6.28219L81.7928 6.19182L81.6747 6.21959L81.7095 6.30996L81.7373 6.36499H81.7928L81.8272 6.33722V6.28219Z" fill="#100F0D"/>
<path fill-rule="evenodd" clip-rule="evenodd" d="M81.6473 7.40399L81.8271 6.30993L81.7094 6.28216L81.5292 7.37623V7.43176H81.5918H81.6195L81.6473 7.40399Z" fill="#100F0D"/>
<path fill-rule="evenodd" clip-rule="evenodd" d="M82.6516 7.70176L81.6196 7.31402L81.557 7.43166L82.596 7.84717H82.6516L82.6859 7.79163V7.7573L82.6516 7.70176Z" fill="#100F0D"/>
<path fill-rule="evenodd" clip-rule="evenodd" d="M82.7413 7.79165L82.6514 7.72955L82.5681 7.81942L82.6514 7.87496L82.6858 7.90979L82.7413 7.87496V7.84719V7.79165Z" fill="#100F0D"/>
<path fill-rule="evenodd" clip-rule="evenodd" d="M83.1292 8.85847L82.7414 7.81943L82.6238 7.87497L83.0115 8.88624L83.0393 8.94177H83.1014L83.1292 8.914V8.85847Z" fill="#100F0D"/>
<path fill-rule="evenodd" clip-rule="evenodd" d="M84.1339 8.65097L83.0671 8.79637L83.1015 8.94177L84.1683 8.7686L84.2238 8.73376V8.67823L84.196 8.65097H84.1339Z" fill="#100F0D"/>
<path fill-rule="evenodd" clip-rule="evenodd" d="M84.3136 8.67837L84.2859 8.65111H84.1682L84.1339 8.76874L84.2515 8.79651L84.2859 8.76874L84.3136 8.7339V8.67837Z" fill="#100F0D"/>
<path fill-rule="evenodd" clip-rule="evenodd" d="M85.1723 9.35734L84.3135 8.67828L84.2236 8.76866L85.0824 9.47498H85.1102H85.1723V9.41944V9.35734Z" fill="#100F0D"/>
<path fill-rule="evenodd" clip-rule="evenodd" d="M85.9136 8.67828L85.0825 9.35734L85.1724 9.47498L86.0039 8.76866L86.0317 8.73382V8.67828L85.9691 8.65102L85.9136 8.67828Z" fill="#100F0D"/>
<path fill-rule="evenodd" clip-rule="evenodd" d="M86.0589 8.65111H85.9413L85.9691 8.79651L86.0589 8.76874L86.1215 8.7339V8.67837L86.0867 8.65111H86.0589Z" fill="#100F0D"/>
<path fill-rule="evenodd" clip-rule="evenodd" d="M87.1534 8.79637L86.0588 8.65097V8.7686L87.1256 8.94177L87.1883 8.914L87.2155 8.88624V8.82363L87.1534 8.79637Z" fill="#100F0D"/>
<path fill-rule="evenodd" clip-rule="evenodd" d="M87.4791 7.81955L87.0702 8.85858L87.2156 8.88635L87.6038 7.87509V7.81955L87.569 7.79178H87.5135L87.4791 7.81955Z" fill="#100F0D"/>
<path fill-rule="evenodd" clip-rule="evenodd" d="M87.569 7.7296L87.4791 7.7917L87.569 7.875L87.6589 7.81946V7.7917V7.7296L87.6038 7.70183L87.569 7.7296Z" fill="#100F0D"/>
<path fill-rule="evenodd" clip-rule="evenodd" d="M88.6081 7.31402L87.5691 7.70176L87.6317 7.84717L88.6637 7.43166L88.698 7.40389V7.34178L88.6637 7.31402H88.6081Z" fill="#100F0D"/>
<path fill-rule="evenodd" clip-rule="evenodd" d="M88.4 6.30986L88.5803 7.40393L88.6979 7.37616L88.5182 6.2821L88.4904 6.24726H88.4626H88.4V6.30986Z" fill="#100F0D"/>
<path fill-rule="evenodd" clip-rule="evenodd" d="M88.4278 6.19179L88.4 6.28217L88.5182 6.30994L88.5454 6.21956V6.15746L88.4904 6.12969L88.4626 6.15746L88.4278 6.19179Z" fill="#100F0D"/>
<path fill-rule="evenodd" clip-rule="evenodd" d="M89.1412 5.29866L88.4279 6.15745L88.5455 6.24731L89.2316 5.38852L89.2589 5.36075L89.2316 5.29866H89.169H89.1412Z" fill="#100F0D"/>
<path fill-rule="evenodd" clip-rule="evenodd" d="M88.4278 4.52963L89.1412 5.38843L89.2316 5.29856L88.5454 4.43926H88.4904H88.4278L88.4 4.50186L88.4278 4.52963Z" fill="#100F0D"/>
<path fill-rule="evenodd" clip-rule="evenodd" d="M88.4 4.38438V4.43942L88.4278 4.52979L88.5454 4.47425L88.5182 4.38438L88.4904 4.35661H88.4278L88.4 4.38438Z" fill="#100F0D"/>
<path fill-rule="evenodd" clip-rule="evenodd" d="M5.86651 11.6359H6.15737L6.45525 11.6081L6.75307 11.5808L7.01627 11.5182L7.31409 11.4627L7.5842 11.4006L7.84739 11.3107L8.11755 11.1926L8.38074 11.0749L8.61622 10.9573L8.85866 10.8119L9.09413 10.6594L9.32961 10.514L9.53742 10.3338L9.74522 10.1606L9.95298 9.95311L10.1608 9.7451L10.334 9.5376L10.514 9.32959L10.6595 9.09432L10.8119 8.85854L10.9573 8.6162L11.0751 8.38042L11.1928 8.11739L11.3105 7.84728L11.4006 7.58423L11.4629 7.31413L11.5183 7.01625L11.5807 6.75321L11.6084 6.45533L11.6361 6.15746V5.86665V5.56877L11.6084 5.2709L11.5807 4.97302L11.5183 4.70998L11.4629 4.4121L11.4006 4.14855L11.3105 3.87844L11.1928 3.61541L11.0751 3.3453L10.9573 3.10952L10.8119 2.84648L10.6595 2.63897L10.514 2.39663L10.334 2.19569L10.1608 1.95285L9.95298 1.77968L9.74522 1.57217L9.53742 1.39193L9.32961 1.2122L9.09413 1.06629L8.85866 0.920881L8.61622 0.768916L8.38074 0.650773L8.11755 0.533137L7.84739 0.415503L7.5842 0.325636L7.31409 0.235261L7.01627 0.180227L6.75307 0.145393L6.45525 0.0898571H6.15737L5.86651 0.062089L5.56864 0.0898571H5.27081L4.97298 0.145393L4.68207 0.180227L4.41196 0.235261L4.11414 0.325636L3.87866 0.415503L3.61542 0.533137L3.34531 0.650773L3.08212 0.768916L2.84665 0.920881L2.60421 1.06629L2.3964 1.2122L2.16092 1.39193L1.95312 1.57217L1.74536 1.77968L1.57219 1.95285L1.3921 2.19569L1.21201 2.39663L1.06656 2.63897L0.886466 2.84648L0.768728 3.10952L0.623274 3.3453L0.505537 3.61541L0.415517 3.87844L0.325448 4.14855L0.235428 4.4121L0.179993 4.70998L0.117691 4.97302L0.0899735 5.2709L0.0622559 5.56877V5.86665V6.15746L0.0899735 6.45533L0.117691 6.75321L0.179993 7.01625L0.235428 7.31413L0.325448 7.58423L0.415517 7.84728L0.505537 8.11739L0.623274 8.38042L0.768728 8.6162L0.886466 8.85854L1.06656 9.09432L1.21201 9.32959L1.3921 9.5376L1.57219 9.7451L1.74536 9.95311L1.95312 10.1606L2.16092 10.3338L2.3964 10.514L2.60421 10.6594L2.84665 10.8119L3.08212 10.9573L3.34531 11.0749L3.61542 11.1926L3.87866 11.3107L4.11414 11.4006L4.41196 11.4627L4.68207 11.5182L4.97298 11.5808L5.27081 11.6081L5.56864 11.6359H5.86651Z" fill="#100F0D"/>
<path fill-rule="evenodd" clip-rule="evenodd" d="M11.5808 5.86661V6.15741L11.553 6.45529L11.5184 6.7254L11.463 7.01621L11.4007 7.28631L11.3106 7.54936L11.2275 7.81947L11.1375 8.08301L11.0197 8.35312L10.902 8.58839L10.7496 8.82366L10.6041 9.05944L10.4518 9.26695L10.2786 9.50979L10.0985 9.71729L9.91841 9.91824L9.71757 10.0985L9.50976 10.2782L9.30201 10.4519L9.05956 10.6039L8.82409 10.7493L8.58857 10.9017L8.35309 11.0194L8.08298 11.1375L7.81979 11.2274L7.54963 11.3107L7.28644 11.4006L7.01633 11.4627L6.72542 11.5182L6.45531 11.553L6.15744 11.5808H5.86658V11.7262L6.15744 11.6984L6.45531 11.6707L6.75314 11.6358L7.05097 11.6081L7.31416 11.5182L7.61198 11.4627L7.87518 11.3728L8.14529 11.2551L8.40853 11.1375L8.65092 11.0194L8.88639 10.8674L9.14963 10.722L9.35739 10.5418L9.59292 10.3686L9.80067 10.1883L10.0085 10.0081L10.1886 9.8006L10.3963 9.59259L10.5418 9.35732L10.7219 9.12154L10.8673 8.88627L11.0197 8.651L11.1375 8.38038L11.2552 8.14511L11.373 7.875L11.463 7.61196L11.5184 7.31408L11.6084 7.05054L11.6361 6.75317L11.6708 6.45529L11.6985 6.15741L11.7262 5.86661H11.5808Z" fill="#100F0D"/>
<path fill-rule="evenodd" clip-rule="evenodd" d="M5.86658 0.145443H6.15744L6.45531 0.180277L6.72542 0.207542L7.01633 0.23531L7.28644 0.325685L7.54963 0.387784L7.81979 0.477651L8.08298 0.595794L8.35309 0.713428L8.58857 0.831064L8.82409 0.976467L9.05956 1.12894L9.30201 1.27434L9.50976 1.45459L9.71757 1.62776L9.91841 1.8075L10.0985 2.0155L10.2786 2.22301L10.4518 2.43102L10.6041 2.66679L10.7496 2.90207L10.902 3.13734L11.0197 3.38018L11.1375 3.64322L11.2275 3.90626L11.3106 4.1486L11.4007 4.43941L11.463 4.71003L11.5184 5.0074L11.553 5.27095L11.5808 5.56882V5.8667H11.7262L11.6985 5.56882L11.6708 5.27095L11.6361 4.97307L11.6084 4.68226L11.5184 4.38438L11.463 4.11427L11.373 3.85073L11.2552 3.58062L11.1375 3.31758L11.0197 3.08231L10.8673 2.8122L10.7219 2.57642L10.5418 2.36891L10.3963 2.13314L10.1886 1.92563L10.0085 1.71762L9.80067 1.50962L9.59292 1.33644L9.35739 1.18448L9.14963 1.00424L8.88639 0.858832L8.65092 0.713428L8.40853 0.595794L8.14529 0.477651L7.87518 0.352945L7.61198 0.270149L7.31416 0.180277L7.05097 0.117675L6.75314 0.0621386L6.45531 0.0278082L6.15744 4.00543e-05H5.86658V0.145443Z" fill="#100F0D"/>
<path fill-rule="evenodd" clip-rule="evenodd" d="M0.117787 5.8667V5.56882L0.145454 5.27095L0.180089 5.0074L0.235524 4.71003L0.297826 4.43941L0.387896 4.1486L0.477915 3.90626L0.595703 3.64322L0.678806 3.38018L0.831177 3.13734L0.948914 2.90207L1.09437 2.66679L1.27446 2.43102L1.45455 2.22301L1.62772 2.0155L1.80776 1.8075L2.01557 1.62776L2.22337 1.45459L2.43113 1.27434L2.66665 1.12894L2.87441 0.976467L3.13765 0.831064L3.38004 0.713428L3.64324 0.595794L3.87876 0.477651L4.14887 0.387784L4.43978 0.325685L4.70989 0.23531L4.97308 0.207542L5.27091 0.180277L5.56873 0.145443H5.86661V4.00543e-05H5.56873L5.27091 0.0278082L4.97308 0.0621386L4.68217 0.117675L4.38434 0.180277L4.11423 0.270149L3.85104 0.352945L3.58093 0.477651L3.31769 0.595794L3.0545 0.713428L2.81211 0.858832L2.57658 1.00424L2.34111 1.18448L2.1333 1.33644L1.92555 1.50962L1.71774 1.71762L1.50993 1.92563L1.33681 2.13314L1.15672 2.36891L1.00435 2.57642L0.831177 2.8122L0.71344 3.08231L0.561069 3.31758L0.443281 3.58062L0.353262 3.85073L0.270159 4.11427L0.180089 4.38438L0.117787 4.68226L0.0623521 4.97307L0.0277176 5.27095L0 5.56882V5.8667H0.117787Z" fill="#100F0D"/>
<path fill-rule="evenodd" clip-rule="evenodd" d="M5.86661 11.5808H5.56873L5.27091 11.553L4.97308 11.5182L4.70989 11.4627L4.43978 11.4006L4.14887 11.3107L3.87876 11.2274L3.64324 11.1375L3.38004 11.0194L3.13765 10.9017L2.87441 10.7493L2.66665 10.6039L2.43113 10.4519L2.22337 10.2782L2.01557 10.0985L1.80776 9.91824L1.62772 9.71729L1.45455 9.50979L1.27446 9.26695L1.09437 9.05944L0.948914 8.82366L0.831177 8.58839L0.678806 8.32535L0.595703 8.08301L0.477915 7.81947L0.387896 7.54936L0.297826 7.28631L0.235524 7.01621L0.180089 6.7254L0.145454 6.45529L0.117787 6.15741V5.86661H0V6.15741L0.0277176 6.45529L0.0623521 6.75317L0.117787 7.05054L0.180089 7.31408L0.270159 7.61196L0.353262 7.875L0.443281 8.14511L0.561069 8.40815L0.71344 8.651L0.831177 8.88627L1.00435 9.12154L1.15672 9.35732L1.33681 9.59259L1.50993 9.8006L1.71774 10.0081L1.92555 10.1883L2.1333 10.3686L2.34111 10.5418L2.57658 10.722L2.81211 10.8674L3.0545 11.0194L3.31769 11.1375L3.58093 11.2551L3.85104 11.3728L4.11423 11.4627L4.38434 11.5182L4.68217 11.6081L4.97308 11.6358L5.27091 11.6707L5.56873 11.6984L5.86661 11.7262V11.5808Z" fill="#100F0D"/>
<path fill-rule="evenodd" clip-rule="evenodd" d="M9.89083 4.73725L10.0709 3.43517L8.85881 2.96412L8.76874 2.87426L8.29082 1.62772L6.9887 1.83522L6.87096 1.80745L5.86666 0.976425L4.82768 1.80745L4.70994 1.83522L3.40781 1.62772L2.9299 2.87426L2.87446 2.96412L1.62777 3.43517L1.83553 4.73725L1.80781 4.82762L0.976685 5.86666L1.80781 6.89862L1.83553 6.98849L1.62777 8.29057L2.87446 8.76868L2.9299 8.85855L3.40781 10.0708L4.70994 9.86275L4.82768 9.91829L5.86666 10.722L6.87096 9.91829L6.9887 9.86275L8.29082 10.0708L8.76874 8.85855L8.85881 8.76868L10.0709 8.29057L9.89083 6.98849V6.89862L10.722 5.86666L9.89083 4.82762V4.73725Z" fill="white"/>
<path fill-rule="evenodd" clip-rule="evenodd" d="M10.0086 3.40746L9.80078 4.71004L9.95315 4.7373L10.161 3.43523L10.1263 3.3802L10.0986 3.34536L10.0432 3.3802L10.0086 3.40746Z" fill="#100F0D"/>
<path fill-rule="evenodd" clip-rule="evenodd" d="M8.79651 2.99192L8.82423 3.01968L10.071 3.4978L10.0986 3.34533L8.88653 2.90205H8.82423L8.79651 2.92982V2.99192Z" fill="#100F0D"/>
<path fill-rule="evenodd" clip-rule="evenodd" d="M8.73397 2.90195L8.79632 2.99182L8.88634 2.90195L8.82404 2.81209H8.7686H8.73397L8.7063 2.87419L8.73397 2.90195Z" fill="#100F0D"/>
<path fill-rule="evenodd" clip-rule="evenodd" d="M8.23535 1.66212L8.70635 2.9021L8.82409 2.84656L8.35309 1.62779L8.32537 1.57225H8.26307L8.23535 1.60002V1.66212Z" fill="#100F0D"/>
<path fill-rule="evenodd" clip-rule="evenodd" d="M7.01638 1.92554L8.29079 1.71753V1.57212L6.98866 1.77963L6.93323 1.8074V1.86294L6.96095 1.89777L7.01638 1.92554Z" fill="#100F0D"/>
<path fill-rule="evenodd" clip-rule="evenodd" d="M6.87086 1.86294L6.96088 1.92554L7.01632 1.77963L6.89858 1.7453H6.84315L6.81543 1.8074V1.83517L6.87086 1.86294Z" fill="#100F0D"/>
<path fill-rule="evenodd" clip-rule="evenodd" d="M5.80432 1.03896L6.84326 1.86292L6.93328 1.77961L5.89434 0.920813H5.86667L5.80432 0.948582V0.97635V1.03896Z" fill="#100F0D"/>
<path fill-rule="evenodd" clip-rule="evenodd" d="M4.89004 1.86287L5.89433 1.03891L5.80431 0.92077L4.80002 1.77957L4.76538 1.80734L4.80002 1.86287L4.82768 1.89771L4.89004 1.86287Z" fill="#100F0D"/>
<path fill-rule="evenodd" clip-rule="evenodd" d="M4.73765 1.92554L4.85539 1.86294L4.82767 1.7453L4.70993 1.77963L4.64758 1.8074V1.86294L4.68222 1.89777L4.73765 1.92554Z" fill="#100F0D"/>
<path fill-rule="evenodd" clip-rule="evenodd" d="M3.40781 1.71753L4.70994 1.92554L4.73765 1.77963L3.43553 1.57212L3.38009 1.59989L3.34546 1.62766V1.68976L3.40781 1.71753Z" fill="#100F0D"/>
<path fill-rule="evenodd" clip-rule="evenodd" d="M3.01984 2.90192L3.49776 1.66194L3.34539 1.62761L2.87439 2.84638V2.90192L2.92982 2.92969H2.96446L3.01984 2.90192Z" fill="#100F0D"/>
<path fill-rule="evenodd" clip-rule="evenodd" d="M2.90216 2.99189L2.99223 2.90202L2.90216 2.81215L2.81214 2.90202L2.78442 2.96412L2.81214 2.99189L2.87444 3.01965L2.90216 2.99189Z" fill="#100F0D"/>
<path fill-rule="evenodd" clip-rule="evenodd" d="M1.66241 3.4978L2.90223 3.01968L2.84685 2.90205L1.60011 3.34533L1.57239 3.40743V3.4352L1.60011 3.4978H1.66241Z" fill="#100F0D"/>
<path fill-rule="evenodd" clip-rule="evenodd" d="M1.89793 4.71006L1.69013 3.40748L1.57239 3.43525L1.7802 4.73733L1.80786 4.76509L1.83558 4.79993L1.89793 4.76509V4.71006Z" fill="#100F0D"/>
<path fill-rule="evenodd" clip-rule="evenodd" d="M1.86322 4.85538L1.89785 4.73724L1.78012 4.70997L1.74548 4.82761V4.88971L1.78012 4.91748L1.8355 4.88971L1.86322 4.85538Z" fill="#100F0D"/>
<path fill-rule="evenodd" clip-rule="evenodd" d="M1.03893 5.92163L1.86314 4.88967L1.7454 4.7998L0.921143 5.804V5.8666L0.94886 5.92163H0.976578H1.03893Z" fill="#100F0D"/>
<path fill-rule="evenodd" clip-rule="evenodd" d="M1.86314 6.84306L1.03893 5.80402L0.921143 5.92166L1.7454 6.93293L1.80771 6.96069L1.83542 6.93293L1.86314 6.89859V6.84306Z" fill="#100F0D"/>
<path fill-rule="evenodd" clip-rule="evenodd" d="M1.89785 7.0162V6.98843L1.86322 6.8708L1.74548 6.89857L1.78012 7.0162L1.80779 7.05054H1.86322L1.89785 7.0162Z" fill="#100F0D"/>
<path fill-rule="evenodd" clip-rule="evenodd" d="M1.69013 8.32526L1.89793 7.01611L1.7802 6.98834L1.57239 8.29042V8.32526L1.62782 8.35303H1.66241L1.69013 8.32526Z" fill="#100F0D"/>
<path fill-rule="evenodd" clip-rule="evenodd" d="M2.9021 8.7061L1.66228 8.23505L1.59998 8.35319L2.84672 8.82373H2.9021L2.92982 8.79647V8.73386L2.9021 8.7061Z" fill="#100F0D"/>
<path fill-rule="evenodd" clip-rule="evenodd" d="M2.9921 8.79655L2.90203 8.73394L2.81201 8.82381L2.90203 8.91418H2.96438L2.9921 8.88642L3.01977 8.85865L2.9921 8.79655Z" fill="#100F0D"/>
<path fill-rule="evenodd" clip-rule="evenodd" d="M3.49776 10.0708L3.01984 8.82373L2.87439 8.88634L3.34539 10.0985L3.38002 10.1606H3.43546L3.49776 10.0985V10.0708Z" fill="#100F0D"/>
<path fill-rule="evenodd" clip-rule="evenodd" d="M4.70984 9.80066L3.40771 10.0082L3.43543 10.1606L4.73756 9.95314L4.76528 9.9183V9.86277V9.835L4.70984 9.80066Z" fill="#100F0D"/>
<path fill-rule="evenodd" clip-rule="evenodd" d="M4.88993 9.86282L4.85529 9.83505L4.73756 9.80072L4.70984 9.95319L4.82758 9.98096L4.85529 9.95319L4.88993 9.91836V9.86282Z" fill="#100F0D"/>
<path fill-rule="evenodd" clip-rule="evenodd" d="M5.89437 10.6944L4.89007 9.86284L4.80005 9.95321L5.80435 10.7772L5.8667 10.812L5.92209 10.7772V10.7221L5.89437 10.6944Z" fill="#100F0D"/>
<path fill-rule="evenodd" clip-rule="evenodd" d="M6.84326 9.86265L5.80432 10.6942L5.89434 10.777L6.93328 9.95302L6.96099 9.91819L6.93328 9.86265L6.89869 9.83488L6.84326 9.86265Z" fill="#100F0D"/>
<path fill-rule="evenodd" clip-rule="evenodd" d="M7.01643 9.80072H6.96099L6.87097 9.83505L6.89869 9.98096L7.01643 9.95319L7.05106 9.91836V9.86282L7.01643 9.80072Z" fill="#100F0D"/>
<path fill-rule="evenodd" clip-rule="evenodd" d="M8.29089 10.0082L7.01649 9.80066L6.98877 9.95314L8.29089 10.1606L8.32553 10.1263L8.35325 10.0985V10.043L8.29089 10.0082Z" fill="#100F0D"/>
<path fill-rule="evenodd" clip-rule="evenodd" d="M8.73402 8.79644L8.70635 8.8237L8.23535 10.0707L8.35309 10.0985L8.82409 8.88631V8.8237L8.79637 8.79644H8.73402Z" fill="#100F0D"/>
<path fill-rule="evenodd" clip-rule="evenodd" d="M8.79636 8.73394L8.73401 8.79655L8.82408 8.91418L8.88638 8.82381L8.9141 8.76878V8.73394L8.85871 8.70617L8.79636 8.73394Z" fill="#100F0D"/>
<path fill-rule="evenodd" clip-rule="evenodd" d="M10.0708 8.23505L8.8241 8.7061L8.8864 8.82373L10.0985 8.35319L10.1609 8.32542V8.26282L10.1262 8.23505H10.0708Z" fill="#100F0D"/>
<path fill-rule="evenodd" clip-rule="evenodd" d="M9.80078 7.01629L10.0086 8.32544L10.161 8.2906L9.95315 6.98852L9.91852 6.93299H9.86313L9.83542 6.96076L9.80078 7.01629Z" fill="#100F0D"/>
<path fill-rule="evenodd" clip-rule="evenodd" d="M9.86313 6.84306L9.83542 6.87083L9.80078 6.98847L9.95315 7.01624L9.98087 6.8986L9.95315 6.84306L9.91852 6.8153L9.86313 6.84306Z" fill="#100F0D"/>
<path fill-rule="evenodd" clip-rule="evenodd" d="M10.6942 5.80408L9.86304 6.84312L9.95306 6.93298L10.7773 5.92172L10.812 5.86669L10.7773 5.80408H10.7219H10.6942Z" fill="#100F0D"/>
<path fill-rule="evenodd" clip-rule="evenodd" d="M9.86317 4.88967L10.6943 5.92163L10.7774 5.804L9.95319 4.7998L9.89088 4.76496L9.86317 4.7998L9.83545 4.82756L9.86317 4.88967Z" fill="#100F0D"/>
<path fill-rule="evenodd" clip-rule="evenodd" d="M9.80078 4.73721L9.83542 4.85535L9.98087 4.82758L9.95315 4.70994L9.91852 4.68218L9.86313 4.64734L9.83542 4.68218L9.80078 4.73721Z" fill="#100F0D"/>
<path fill-rule="evenodd" clip-rule="evenodd" d="M77.0828 28.0029L76.9995 27.8853L76.9374 27.802L76.8541 27.7399L76.792 27.6566L76.7087 27.601L76.6188 27.5389L76.5355 27.5111L76.4456 27.4556L76.3623 27.4208L76.2724 27.3935L76.1891 27.3657L76.0715 27.338H75.9882H75.8983H75.8085H75.7252H15.1686H15.0855H14.9954H14.8777H14.7669H14.6769H14.5591L14.4483 27.3657L14.3305 27.3935L14.2128 27.4556L14.102 27.5111L13.9842 27.601L13.8665 27.7121L13.7833 27.8297L13.6656 27.9751L13.5756 28.1483L13.4924 28.3492L13.6933 19.989L13.8111 20.0794L13.9288 20.1344L14.0673 20.197L14.1851 20.252L14.3028 20.3076L14.4206 20.3424L14.5314 20.3702L14.6214 20.3979H14.7323L14.85 20.4257H14.9677H15.0509L15.1686 20.453H15.2864H15.3695H15.4872H74.2777H74.4231L74.5407 20.4257H74.6861H74.7972L74.9426 20.3979H75.0602L75.2057 20.3702L75.3167 20.3424L75.4344 20.3076L75.5798 20.2798L75.6974 20.252L75.8085 20.2248L75.8983 20.1622L76.016 20.1066L76.0993 20.0516L76.1891 19.989L77.0828 28.0029Z" fill="#100F0D"/>
<path fill-rule="evenodd" clip-rule="evenodd" d="M75.7252 27.3935H75.9883L76.0716 27.4207H76.1614L76.2447 27.4556L76.3346 27.4834L76.4179 27.5111L76.5078 27.5389L76.5911 27.601L76.6809 27.6565L76.7365 27.7121L76.8264 27.7742L76.8819 27.8575L76.9652 27.9473L77.0273 28.0306L77.1449 27.9751L77.0551 27.8575L76.9995 27.7742L76.9097 27.6843L76.8264 27.601L76.7365 27.5389L76.6532 27.4834L76.5633 27.4556L76.48 27.3935L76.3624 27.3657L76.2725 27.3379L76.1892 27.3102L76.0993 27.2824H75.9883H75.8984L75.8085 27.2481H75.7252V27.3935Z" fill="#100F0D"/>
<path fill-rule="evenodd" clip-rule="evenodd" d="M15.1686 27.3936H75.7251V27.2482H15.1686L15.1132 27.2825V27.338V27.3658L15.1686 27.3936Z" fill="#100F0D"/>
<path fill-rule="evenodd" clip-rule="evenodd" d="M13.548 28.3771L13.638 28.1762L13.7211 28.003L13.8111 27.8576L13.9289 27.74L14.0397 27.6567L14.1298 27.5668L14.2475 27.5113L14.3583 27.4835L14.4761 27.4557L14.5592 27.4209L14.677 27.3936H14.767H14.8778H14.9955H15.0856H15.1687V27.2482H15.0856H14.9955H14.8778H14.767L14.677 27.2826H14.5315L14.4207 27.3103L14.3029 27.3381L14.1852 27.3936L14.0674 27.4557L13.9289 27.539L13.8389 27.6567L13.7211 27.8021L13.6103 27.9475L13.5202 28.1207L13.4371 28.3216V28.3771L13.4649 28.4049H13.5202L13.548 28.3771Z" fill="#100F0D"/>
<path fill-rule="evenodd" clip-rule="evenodd" d="M13.638 19.989L13.4371 28.3492H13.548L13.7558 19.989V19.9612L13.6934 19.9335L13.638 19.9612V19.989Z" fill="#100F0D"/>
<path fill-rule="evenodd" clip-rule="evenodd" d="M15.4872 20.3702H14.8499L14.7668 20.3424H14.6491L14.5313 20.3076L14.4205 20.2798L14.3305 20.2248L14.2127 20.197L14.0673 20.1344L13.9842 20.0794L13.8387 20.0239L13.721 19.9335L13.6655 20.0516L13.7833 20.1344L13.8941 20.197L14.0395 20.2521L14.1573 20.3076L14.2751 20.3702L14.3859 20.398L14.5036 20.4258L14.6214 20.453L14.7322 20.4808H14.8499H14.9677L15.0508 20.5156H15.1685H15.2863H15.3694H15.4872V20.3702Z" fill="#100F0D"/>
<path fill-rule="evenodd" clip-rule="evenodd" d="M74.2776 20.3702H15.4872V20.5156H74.2776L74.3397 20.4808L74.3675 20.453L74.3397 20.398L74.2776 20.3702Z" fill="#100F0D"/>
<path fill-rule="evenodd" clip-rule="evenodd" d="M76.1613 19.9335L76.0714 19.989L75.9881 20.0516L75.8705 20.1067L75.7806 20.1344L75.6695 20.197L75.5519 20.2248L75.4343 20.2521L75.3166 20.2798L75.1778 20.3076L75.0601 20.3424H74.9147L74.7971 20.3702H74.6517H74.5406H74.423H74.2776V20.5156H74.423H74.5406L74.686 20.4808H74.7971H74.9425L75.0601 20.453L75.2056 20.4258H75.351L75.462 20.3702L75.5797 20.3424L75.6973 20.3076L75.8427 20.2798L75.926 20.2248L76.0436 20.1622L76.127 20.1067L76.2168 20.0516L76.2446 19.989V19.9613L76.2168 19.9335H76.1613Z" fill="#100F0D"/>
<path fill-rule="evenodd" clip-rule="evenodd" d="M77.1449 28.0029L76.2447 19.989H76.1271L77.0273 28.0029L77.055 28.0585H77.0828L77.1106 28.0307L77.1449 28.0029Z" fill="#100F0D"/>
<path fill-rule="evenodd" clip-rule="evenodd" d="M0.651184 21.6724L7.24502 21.0902H7.50821L7.73677 21.118L7.96532 21.1806L8.17313 21.2912L8.37402 21.4093L8.54714 21.5547L8.6926 21.7279L8.83805 21.9011L8.98351 22.1293L9.09433 22.365L9.1844 22.5933L9.2675 22.8568L9.35752 23.1128L9.38524 23.3763L9.44062 23.6671L9.47526 23.9509V24.2422V24.533L9.44062 24.796L9.41295 25.0803L9.35752 25.3433L9.30213 25.5993L9.21206 25.8351L9.12896 26.0638L9.01122 26.299L8.89349 26.4722L8.7757 26.6454L8.63721 26.8186L8.45712 26.9291L8.28395 27.0195L8.08311 27.1094L7.88222 27.1371L0.942094 27.74L1.05983 28.8689L1.08755 28.8966L1.17065 28.931L1.233 28.9865L1.34382 29.042L1.46156 29.1319L1.63473 29.243L1.78019 29.3328L1.95331 29.4505L2.1542 29.5615L2.38967 29.6792L2.61823 29.8246L2.88147 29.97L3.13775 30.0876L3.40094 30.2265L3.69185 30.3719L3.97579 30.5173L4.29442 30.6349L4.61305 30.7803L4.93162 30.9257L5.27797 31.0368L5.62426 31.1544L5.97056 31.2443L6.32382 31.3554L6.67011 31.4452L7.01646 31.5008L7.39047 31.5563L7.73677 31.6184L8.11078 31.6462L8.45712 31.674H8.83805L9.1844 31.6462L9.53069 31.5906L9.87699 31.5285L10.2233 31.4452L10.5419 31.3276L10.8328 31.1822L11.1514 31.009L11.4424 30.8359L11.6986 30.6349L11.9618 30.434L12.2181 30.1709L12.4813 29.9422L12.7098 29.6514L12.9107 29.3606L13.1185 29.0698L13.3194 28.7578L13.4925 28.4392L13.6657 28.0858L13.8388 27.74L13.9843 27.3936L14.102 27.0473L14.2129 26.6732L14.3306 26.299L14.4483 25.8906L14.5315 25.5165L14.5938 25.1075L14.6492 24.7339L14.6769 24.332L14.7046 23.9231L14.7323 23.5495V23.1476L14.7046 22.7664L14.6769 22.365L14.6492 22.0742L14.5938 21.7829L14.5315 21.4992L14.4483 21.2084L14.3306 20.9171L14.2129 20.6263L14.0674 20.3425L13.9289 20.0795L13.7557 19.8159L13.5757 19.56L13.3748 19.2964L13.1739 19.0404L12.973 18.8047L12.7376 18.5765L12.509 18.3407L12.2458 18.1397L11.9895 17.9115L11.7263 17.7384L11.4424 17.5374L11.1514 17.3572L10.8605 17.2188L10.5696 17.0734L10.2856 16.9275L9.96706 16.8099L9.67615 16.7271L9.35752 16.6367L9.03894 16.5539L8.72031 16.4913L8.37402 16.4635L8.05539 16.4358H7.73677L7.41819 16.4635L7.09956 16.4913L6.75327 16.5539L6.46236 16.609L6.14373 16.6923L5.85974 16.7821L5.54116 16.8725L5.25025 16.9831L4.95934 17.1012L4.70307 17.2188L4.41216 17.3572L4.14897 17.5026L3.89269 17.6202L3.65722 17.7934L3.40094 17.9393L3.16542 18.0847L2.93686 18.2574L2.7083 18.4033L2.50049 18.5765L2.29965 18.7219L2.09876 18.895L1.92564 19.0682L1.75247 19.2136L1.5793 19.359L1.43384 19.4974L1.28839 19.6428L1.14293 19.7882L0.997478 19.9063L0.886658 20.0517L0.796639 20.1623L0.713536 20.2521L0.623466 20.3703L0.533447 20.4531L0.651184 21.6724Z" fill="#100F0D"/>
<path fill-rule="evenodd" clip-rule="evenodd" d="M7.24496 21.0352L0.651123 21.6097V21.7551L7.24496 21.1457H7.30034V21.0902V21.0629L7.24496 21.0352Z" fill="#100F0D"/>
<path fill-rule="evenodd" clip-rule="evenodd" d="M7.90992 27.1926L8.11076 27.1649L8.31856 27.1093L8.49174 26.9917L8.66486 26.8463L8.81031 26.7009L8.94885 26.5277L9.06659 26.3268L9.18437 26.091L9.30211 25.8628L9.3575 25.5992L9.41293 25.3433L9.47523 25.0802L9.50295 24.796L9.53067 24.5329V24.2421V23.9508L9.50295 23.6671L9.47523 23.3763L9.41293 23.1127L9.32978 22.829L9.23976 22.5659L9.15666 22.3372L9.03892 22.0742L8.89347 21.8733L8.74801 21.6723L8.57484 21.4991L8.40167 21.3537L8.20083 21.2361L7.99994 21.118L7.76446 21.0629L7.50819 21.0352H7.245V21.1457H7.50819L7.73674 21.1806L7.93763 21.2639L8.14539 21.3537L8.31856 21.4643L8.49174 21.6097L8.66486 21.7551L8.77568 21.9561L8.92113 22.1641L9.03892 22.3928L9.12894 22.621L9.21204 22.8567L9.26748 23.1127L9.32978 23.404L9.38521 23.6671V23.9508V24.2421V24.5329V24.796L9.3575 25.0525L9.30211 25.3155L9.23976 25.572L9.15666 25.835L9.06659 26.036L8.94885 26.2642L8.83803 26.4373L8.72029 26.6176L8.57484 26.7559L8.42938 26.874L8.25621 26.9639L8.08309 27.0195L7.8822 27.075L7.90992 27.1926Z" fill="#100F0D"/>
<path fill-rule="evenodd" clip-rule="evenodd" d="M0.942032 27.8019L7.90988 27.1925L7.88216 27.0749L0.942032 27.6842L0.886597 27.712V27.7398L0.914314 27.8019H0.942032Z" fill="#100F0D"/>
<path fill-rule="evenodd" clip-rule="evenodd" d="M1.1152 28.8412L0.997417 27.74H0.886597L0.997417 28.8689V28.8967L1.05977 28.931L1.08749 28.8967L1.1152 28.8412Z" fill="#100F0D"/>
<path fill-rule="evenodd" clip-rule="evenodd" d="M9.18423 31.5906H8.11061L7.76432 31.5562L7.39031 31.5007L7.04396 31.4452L6.66995 31.3831L6.32366 31.2998L5.97039 31.1821L5.6241 31.071L5.2778 30.9534L4.95918 30.8358L4.64055 30.7181L4.32197 30.5793L4.00335 30.4617L3.71935 30.3162L3.42844 30.1708L3.16525 30.0254L2.90898 29.9144L2.64579 29.769L2.41723 29.6513L2.21639 29.5059L2.00858 29.3883L1.80769 29.2772L1.66224 29.1873L1.51683 29.0697L1.37829 29.0142L1.28822 28.9309L1.1982 28.8688L1.14277 28.841L1.08738 28.8132L0.997314 28.8965H1.02503L1.05967 28.9586L1.1151 28.9864L1.1982 29.0419L1.31594 29.104L1.43368 29.1873L1.57913 29.305L1.75231 29.3883L1.92548 29.5059L2.12632 29.6236L2.36179 29.7346L2.5904 29.88L2.84667 30.0254L3.08215 30.1431L3.37306 30.2885L3.65705 30.4339L3.97563 30.5793L4.26654 30.7181L4.58517 30.8358L4.90374 30.9812L5.25009 31.0988L5.59638 31.2099L5.94273 31.2998L6.28902 31.4174L6.66995 31.5007L7.01629 31.5562L7.36259 31.6461L7.7366 31.6739L8.11061 31.7016L8.45696 31.736H8.83789L9.18423 31.7016V31.5906Z" fill="#100F0D"/>
<path fill-rule="evenodd" clip-rule="evenodd" d="M14.6213 22.365L14.649 22.7664V23.923L14.6213 24.332L14.559 24.7339L14.5313 25.1075L14.4481 25.4887L14.3858 25.8905L14.275 26.2641L14.1572 26.6453L14.0395 27.0194L13.9287 27.3658L13.7832 27.7399L13.6101 28.0585L13.4369 28.4048L13.2638 28.7234L13.056 29.042L12.8551 29.3328L12.6543 29.6236L12.4187 29.8801L12.1902 30.1431L11.927 30.3718L11.6707 30.5793L11.3798 30.7803L11.1235 30.9534L10.805 31.1266L10.514 31.2442L10.1954 31.3831L9.87679 31.473L9.5305 31.5285L9.1842 31.5906V31.7017L9.55822 31.6739L9.90451 31.5906L10.2231 31.5007L10.5694 31.3831L10.8603 31.2442L11.179 31.0711L11.4699 30.8913L11.7262 30.6904L12.017 30.4617L12.2803 30.2264L12.5088 29.9699L12.7374 29.7069L12.9728 29.4226L13.1737 29.1041L13.3746 28.7855L13.5477 28.4669L13.7209 28.1206L13.894 27.7742L14.0395 27.4208L14.1849 27.0472L14.3027 26.6731L14.3858 26.299L14.5036 25.9183L14.5936 25.5164L14.649 25.1423L14.7044 24.7339L14.7321 24.332L14.7668 23.9508L14.7945 23.5494V23.1475L14.7668 22.7664V22.365H14.6213Z" fill="#100F0D"/>
<path fill-rule="evenodd" clip-rule="evenodd" d="M7.4181 16.519H8.37393L8.69251 16.5816L9.01113 16.6367L9.32971 16.6922L9.64834 16.7821L9.93233 16.8724L10.2509 17.0108L10.5418 17.1284L10.8327 17.2743L11.1236 17.4197L11.4076 17.5924L11.6985 17.7933L11.9617 17.9665L12.1903 18.1674L12.4535 18.4032L12.682 18.6037L12.9106 18.8324L13.1184 19.0954L13.347 19.3241L13.5201 19.5877L13.6933 19.8507L13.8665 20.1067L14.0119 20.3702L14.1573 20.654L14.2751 20.9448L14.3859 21.2083L14.476 21.4991L14.5314 21.7829L14.5937 22.0742L14.6214 22.365H14.7669L14.7045 22.0464L14.6769 21.7551L14.5937 21.4643L14.5037 21.1805L14.3859 20.8897L14.2751 20.5984L14.1297 20.3076L13.9842 20.0516L13.811 19.7608L13.6379 19.4973L13.437 19.2686L13.2292 19.0055L13.0007 18.7496L12.7721 18.5138L12.5366 18.2851L12.2804 18.0847L12.0171 17.8837L11.7539 17.6757L11.4976 17.4748L11.2067 17.3016L10.9159 17.1562L10.5973 17.0108L10.3133 16.8724L9.99468 16.7548L9.67606 16.6644L9.35743 16.5816L9.03885 16.4913L8.72022 16.4357L8.4016 16.4085L8.0553 16.3807H7.73667L7.39038 16.4085L7.4181 16.519Z" fill="#100F0D"/>
<path fill-rule="evenodd" clip-rule="evenodd" d="M0.595693 20.4257V20.4807L0.651078 20.3979L0.741097 20.3075L0.851968 20.197L0.941988 20.0793L1.05972 19.9612L1.17054 19.8506L1.316 19.7052L1.46145 19.5598L1.63463 19.4144L1.78008 19.2685L1.9532 19.0953L2.15409 18.9499L2.36185 18.7768L2.56274 18.6314L2.76358 18.4582L2.96447 18.285L3.19995 18.1396L3.4285 17.9942L3.69174 17.8488L3.9203 17.6756L4.18349 17.5651L4.46749 17.4197L4.73068 17.2742L4.98695 17.1561L5.27786 17.0455L5.56872 16.9274L5.85963 16.8375L6.17826 16.7547L6.46225 16.6644L6.78083 16.6088L7.09946 16.5816L7.41808 16.5189L7.39037 16.4084L7.07174 16.4356L6.75316 16.4912L6.43453 16.5538L6.11591 16.6366L5.83196 16.727L5.54106 16.8098L5.22243 16.9274L4.93152 17.0455L4.67524 17.1561L4.38433 17.3015L4.12114 17.4469L3.86487 17.5651L3.62939 17.7382L3.37312 17.8836L3.13764 18.029L2.90904 18.2022L2.67356 18.3754L2.47267 18.5137L2.27183 18.694L2.07099 18.8323L1.8701 19.0055L1.69001 19.1509L1.55147 19.2963L1.37835 19.4417L1.2329 19.6149L1.08744 19.733L0.969705 19.8784L0.851968 19.989L0.741097 20.1066L0.651078 20.2247L0.567976 20.3075L0.477905 20.3979V20.4529L0.595693 20.4257Z" fill="#100F0D"/>
<path fill-rule="evenodd" clip-rule="evenodd" d="M0.71343 21.6723L0.595693 20.4258L0.477905 20.453L0.595693 21.7001V21.7279L0.651078 21.7551L0.678796 21.7279L0.71343 21.6723Z" fill="#100F0D"/>
<path fill-rule="evenodd" clip-rule="evenodd" d="M12.5643 19.9336L12.3912 19.6428L12.218 19.3591L12.0171 19.0955L11.8163 18.8673L11.6154 18.6593L11.3799 18.4861L11.1514 18.3129L10.9159 18.1398L10.6873 18.0292L10.4587 17.9116L10.2232 17.7934L9.96696 17.7106L9.70377 17.648L9.44053 17.5925L9.21197 17.5652L8.94878 17.5026H8.72022L8.45703 17.4749H8.22847L7.96523 17.5026H7.73667L7.50811 17.5375L7.30031 17.5652L7.07175 17.5925L6.87091 17.6203L6.67002 17.6758L6.46226 17.7106L6.28909 17.7657L6.11592 17.7934L5.97047 17.849L5.83198 17.8838L5.68652 17.9393L5.74191 18.057L5.85964 18.0292L6.0051 17.9666L6.17827 17.9393L6.32373 17.8838L6.4969 17.849L6.69774 17.7934L6.89863 17.7657L7.09947 17.7106L7.30031 17.6758L7.53583 17.648H7.76439L7.99986 17.6203H8.22847H8.45703H8.6925L8.94878 17.648L9.1843 17.6758L9.44053 17.7106L9.67605 17.7657L9.93233 17.849L10.1678 17.9393L10.3964 18.0292L10.6319 18.1398L10.8604 18.2574L11.089 18.4306L11.2968 18.5765L11.5254 18.7769L11.7263 18.9779L11.9271 19.1859L12.1072 19.4419L12.2804 19.7054L12.4535 19.9891L12.5643 19.9336Z" fill="white"/>
<path fill-rule="evenodd" clip-rule="evenodd" d="M72.657 21.4991V21.4365H16.2422V21.5824H72.657V21.4991Z" fill="white"/>
<path fill-rule="evenodd" clip-rule="evenodd" d="M81.7716 29.9421L82.0836 29.9144L82.4365 29.88L82.7556 29.8523L83.0671 29.7967L83.3857 29.7069L83.7043 29.6236L83.9951 29.5337L84.3137 29.4226L84.6045 29.2772L84.8609 29.1318L85.1518 28.9864L85.4153 28.8132L85.6713 28.6401L85.907 28.4391L86.163 28.2316L86.3988 28.0307L86.5992 27.802L86.8002 27.5389L87.0011 27.3102L87.1743 27.0472L87.3475 26.7907L87.4929 26.5277L87.6383 26.2369L87.7837 25.9526L87.9018 25.6618L87.9846 25.3432L88.075 25.0246L88.1578 24.7061L88.2204 24.3875L88.2482 24.0689L88.2754 23.7503L88.3032 23.404L88.2754 23.0849L88.2482 22.7391L88.2204 22.42L88.1578 22.1019L88.075 21.7828L87.9846 21.4643L87.9018 21.1805L87.7837 20.8619L87.6383 20.5711L87.4929 20.3076L87.3475 20.0238L87.1743 19.7608L87.0011 19.4973L86.8002 19.2686L86.5992 19.0404L86.3988 18.8046L86.163 18.5764L85.907 18.3754L85.6713 18.2023L85.4153 17.9942L85.1518 17.8488L84.8609 17.6757L84.6045 17.5373L84.3137 17.4197L83.9951 17.3016L83.7043 17.1839L83.3857 17.1011L83.0671 17.0456L82.7556 16.983L82.4365 16.9274L82.0836 16.9002H81.7716H81.4187L81.1067 16.9274L80.7881 16.983L80.4695 17.0456L80.151 17.1011L79.8324 17.1839L79.5138 17.3016L79.223 17.4197L78.9322 17.5373L78.6757 17.6757L78.3849 17.8488L78.1219 17.9942L77.8654 18.2023L77.6367 18.3754L77.3736 18.5764L77.1449 18.8046L76.9374 19.0404L76.7365 19.2686L76.5355 19.4973L76.3624 19.7608L76.1892 20.0238L76.0438 20.3076L75.8984 20.5711L75.753 20.8619L75.6353 21.1805L75.552 21.4643L75.4622 21.7828L75.3789 22.1019L75.3168 22.42L75.289 22.7391L75.2612 23.0849V23.404V23.7503L75.289 24.0689L75.3168 24.3875L75.3789 24.7061L75.4622 25.0246L75.552 25.3432L75.6353 25.6618L75.753 25.9526L75.8984 26.2369L76.0438 26.5277L76.1892 26.7907L76.3624 27.0472L76.5355 27.3102L76.7365 27.5389L76.9374 27.802L77.1449 28.0307L77.3736 28.2316L77.6367 28.4391L77.8654 28.6401L78.1219 28.8132L78.3849 28.9864L78.6757 29.1318L78.9322 29.2772L79.223 29.4226L79.5138 29.5337L79.8324 29.6236L80.151 29.7069L80.4695 29.7967L80.7881 29.8523L81.1067 29.88L81.4187 29.9144L81.7716 29.9421Z" fill="#100F0D"/>
<path fill-rule="evenodd" clip-rule="evenodd" d="M88.2204 23.4041V23.7505L88.1856 24.069L88.1578 24.3876L88.1022 24.7062L88.0124 25.0248L87.9291 25.3433L87.8392 25.6342L87.7286 25.9184L87.5832 26.2092L87.4373 26.4723L87.2919 26.756L87.1187 27.0195L86.9456 27.2826L86.7451 27.5113L86.5371 27.74L86.3362 27.9753L86.1075 28.1762L85.8722 28.3772L85.6435 28.5781L85.3805 28.7578L85.124 28.931L84.8332 29.0698L84.5772 29.2152L84.2859 29.3606L83.9951 29.4783L83.6765 29.5616L83.3857 29.6515L83.0671 29.7348L82.7556 29.7969L82.4365 29.8246L82.0836 29.8524H81.7716V29.9978L82.0836 29.97H82.4365L82.7829 29.9145L83.1015 29.8524L83.4205 29.7969L83.732 29.6792L84.0229 29.5959L84.3414 29.4783L84.6322 29.3329L84.9235 29.1875L85.1795 29.0421L85.4426 28.8689L85.699 28.668L85.9621 28.4948L86.1908 28.2938L86.4266 28.0586L86.6548 27.8299L86.8557 27.6012L87.0289 27.3381L87.2369 27.0751L87.4101 26.8186L87.5555 26.5556L87.6938 26.2642L87.8392 25.9805L87.9568 25.6897L88.0472 25.3711L88.1578 25.0525L88.2204 24.734L88.2754 24.4154L88.331 24.0963V23.7505L88.3658 23.4041H88.2204Z" fill="#100F0D"/>
<path fill-rule="evenodd" clip-rule="evenodd" d="M81.7716 16.9552H82.0836L82.4365 16.9829L82.7556 17.0455L83.0671 17.1011L83.3857 17.1561L83.6765 17.2465L83.9951 17.357L84.2859 17.4747L84.5772 17.5923L84.8332 17.7382L85.124 17.8836L85.3805 18.0568L85.6435 18.23L85.8722 18.4304L86.1075 18.6313L86.3362 18.8323L86.5371 19.0681L86.7451 19.2963L86.9456 19.5598L87.1187 19.788L87.2919 20.0516L87.4373 20.3424L87.5832 20.6261L87.7286 20.8896L87.8392 21.2082L87.9291 21.499L88.0124 21.7828L88.1022 22.1019L88.1578 22.4199L88.1856 22.739L88.2204 23.0848V23.4039H88.3658L88.331 23.0848V22.739L88.2754 22.3927L88.2204 22.0741L88.1578 21.755L88.0472 21.4364L87.9568 21.1456L87.8392 20.8619L87.6938 20.5433L87.5555 20.2798L87.4101 19.9889L87.2369 19.733L87.0289 19.4694L86.8557 19.2135L86.6548 18.9777L86.4266 18.7495L86.1908 18.5485L85.9621 18.3405L85.699 18.1396L85.4426 17.9392L85.1795 17.7932L84.9235 17.6201L84.6322 17.4747L84.3414 17.357L84.0229 17.2465L83.732 17.1283L83.4205 17.0455L83.1015 16.9552L82.7829 16.9274L82.4365 16.8723L82.0836 16.8375H81.7716V16.9552Z" fill="#100F0D"/>
<path fill-rule="evenodd" clip-rule="evenodd" d="M75.3167 23.4039V23.0848L75.351 22.739L75.3788 22.4199L75.4343 22.1019L75.5242 21.7828L75.6075 21.499L75.6974 21.2082L75.8084 20.8896L75.9538 20.6261L76.0993 20.3424L76.2447 20.0516L76.4178 19.788L76.591 19.5598L76.7919 19.2963L76.9994 19.0681L77.2004 18.8323L77.4291 18.6313L77.6644 18.4304L77.8931 18.23L78.1561 18.0568L78.4126 17.8836L78.7034 17.7382L78.9664 17.5923L79.2507 17.4747L79.5415 17.357L79.8323 17.2465L80.1509 17.1561L80.4695 17.1011L80.788 17.0455L81.1066 16.9829L81.4186 16.9552H81.7715V16.8375H81.4186L81.1066 16.8723L80.7537 16.9274L80.4417 16.9552L80.1231 17.0455L79.8045 17.1283L79.486 17.2465L79.1952 17.357L78.9043 17.4747L78.6135 17.6201L78.3571 17.7932L78.094 17.9392L77.8375 18.1396L77.5745 18.3405L77.3458 18.5485L77.1105 18.7495L76.8818 18.9777L76.6809 19.2135L76.5077 19.4694L76.3002 19.733L76.127 19.9889L75.9882 20.2798L75.8428 20.5433L75.6974 20.8619L75.5797 21.1456L75.4964 21.4364L75.4066 21.755L75.3167 22.0741L75.2612 22.3927L75.2056 22.739V23.0848L75.1779 23.4039H75.3167Z" fill="#100F0D"/>
<path fill-rule="evenodd" clip-rule="evenodd" d="M81.7715 29.8524H81.4186L81.1066 29.8246L80.788 29.7969L80.4695 29.7348L80.1509 29.6515L79.8323 29.5616L79.5415 29.4783L79.2507 29.3606L78.9664 29.2152L78.7034 29.0698L78.4126 28.931L78.1561 28.7578L77.8931 28.5781L77.6644 28.3772L77.4291 28.1762L77.2004 27.9753L76.9994 27.74L76.7919 27.5113L76.591 27.2826L76.4178 27.0195L76.2447 26.756L76.0993 26.4723L75.9538 26.2092L75.8084 25.9184L75.6974 25.6342L75.6075 25.3433L75.5242 25.0248L75.4343 24.7062L75.3788 24.3876L75.351 24.069L75.3167 23.7505V23.4041H75.1779L75.2056 23.7505V24.0963L75.2612 24.4154L75.3167 24.734L75.4066 25.0525L75.4964 25.3711L75.5797 25.6897L75.6974 25.9805L75.8428 26.2642L75.9882 26.5556L76.127 26.8186L76.3002 27.0751L76.5077 27.3381L76.6809 27.6012L76.8818 27.8299L77.1105 28.0586L77.3458 28.2938L77.5745 28.4948L77.8375 28.668L78.094 28.8689L78.3571 29.0421L78.6135 29.1875L78.9043 29.3329L79.1952 29.4783L79.486 29.5959L79.8045 29.6792L80.1231 29.7969L80.4417 29.8524L80.7537 29.9145L81.1066 29.97H81.4186L81.7715 29.9978V29.8524Z" fill="#100F0D"/>
<path fill-rule="evenodd" clip-rule="evenodd" d="M86.2805 22.1291L86.5092 20.6539L85.1238 20.1344L85.034 20.0516L84.5144 18.6591L83.0392 18.8949L82.9286 18.8671L81.7715 17.9392L80.6148 18.8671L80.4971 18.8949L79.0219 18.6591L78.5024 20.0516L78.4125 20.1344L77.0271 20.6539L77.2558 22.1291L77.2003 22.2473L76.2723 23.4039L77.2003 24.5606L77.2558 24.6782L77.0271 26.1535L78.4125 26.673L78.5024 26.7558L79.0219 28.1483L80.4971 27.913L80.6148 27.9751L81.7715 28.8965L82.9286 27.9751L83.0392 27.913L84.5144 28.1483L85.034 26.7558L85.1238 26.673L86.5092 26.1535L86.2805 24.6782L86.336 24.5606L87.264 23.4039L86.336 22.2473L86.2805 22.1291Z" fill="white"/>
<path fill-rule="evenodd" clip-rule="evenodd" d="M86.4538 20.654L86.2256 22.1293H86.3362L86.5719 20.6889V20.6263L86.5371 20.5985H86.4816L86.4538 20.654Z" fill="#100F0D"/>
<path fill-rule="evenodd" clip-rule="evenodd" d="M85.124 20.197L86.4816 20.7166L86.5372 20.5984L85.1518 20.0794H85.0962L85.069 20.1067V20.1622L85.124 20.197Z" fill="#100F0D"/>
<path fill-rule="evenodd" clip-rule="evenodd" d="M85.0063 20.0794L85.0962 20.197L85.1795 20.0794L85.0962 19.989H85.0341H85.0063L84.9785 20.0516L85.0063 20.0794Z" fill="#100F0D"/>
<path fill-rule="evenodd" clip-rule="evenodd" d="M84.4591 18.694L84.9786 20.0793L85.124 20.0238L84.5772 18.6314L84.5424 18.6036H84.4869L84.4591 18.6314V18.694Z" fill="#100F0D"/>
<path fill-rule="evenodd" clip-rule="evenodd" d="M83.0671 18.95L84.5145 18.7217L84.4868 18.6036L83.0393 18.8323L82.9838 18.8672V18.8949L83.0115 18.95H83.0671Z" fill="#100F0D"/>
<path fill-rule="evenodd" clip-rule="evenodd" d="M82.894 18.9222L83.0394 18.95L83.0672 18.8323L82.9288 18.8045H82.894L82.8662 18.8323V18.8949L82.894 18.9222Z" fill="#100F0D"/>
<path fill-rule="evenodd" clip-rule="evenodd" d="M81.7095 17.9664L82.8661 18.9221L82.956 18.8045L81.7993 17.8836L81.7716 17.8488L81.7095 17.8836V17.9391V17.9664Z" fill="#100F0D"/>
<path fill-rule="evenodd" clip-rule="evenodd" d="M80.6704 18.9221L81.7993 17.9664L81.7094 17.8836L80.5805 18.8045L80.5527 18.8671L80.5805 18.8949L80.6148 18.9221H80.6704Z" fill="#100F0D"/>
<path fill-rule="evenodd" clip-rule="evenodd" d="M80.4695 18.95H80.4973L80.6427 18.9222L80.6149 18.8045L80.4695 18.8323L80.4418 18.8672V18.9222L80.4695 18.95Z" fill="#100F0D"/>
<path fill-rule="evenodd" clip-rule="evenodd" d="M79.022 18.7217L80.4694 18.95L80.4972 18.8323L79.0497 18.6036H78.9942L78.9664 18.6591V18.694L79.022 18.7217Z" fill="#100F0D"/>
<path fill-rule="evenodd" clip-rule="evenodd" d="M78.558 20.0794L79.0775 18.694L78.9665 18.6314L78.4126 20.0239V20.0794L78.4747 20.1067H78.5302L78.558 20.0794Z" fill="#100F0D"/>
<path fill-rule="evenodd" clip-rule="evenodd" d="M78.4125 20.197H78.4403L78.5302 20.0794L78.4403 19.989L78.357 20.0794L78.3292 20.1344L78.357 20.197H78.4125Z" fill="#100F0D"/>
<path fill-rule="evenodd" clip-rule="evenodd" d="M77.0549 20.7166L78.4126 20.197L78.3848 20.0794L76.9994 20.5984L76.9651 20.6262V20.6888L76.9994 20.7166H77.0549Z" fill="#100F0D"/>
<path fill-rule="evenodd" clip-rule="evenodd" d="M77.318 22.1293L77.0827 20.654L76.9651 20.6889L77.2004 22.1293V22.1919H77.2559L77.2837 22.1641L77.318 22.1293Z" fill="#100F0D"/>
<path fill-rule="evenodd" clip-rule="evenodd" d="M77.2558 22.3023L77.2836 22.2746L77.318 22.164L77.2003 22.1019L77.1448 22.2473V22.2746L77.2003 22.3372L77.2558 22.3023Z" fill="#100F0D"/>
<path fill-rule="evenodd" clip-rule="evenodd" d="M76.3344 23.4591L77.2558 22.3024L77.1725 22.2196L76.2168 23.3763V23.4041L76.2446 23.4591H76.2723H76.3344Z" fill="#100F0D"/>
<path fill-rule="evenodd" clip-rule="evenodd" d="M77.2558 24.5329L76.3344 23.3763L76.2168 23.4591L77.1725 24.6157H77.2003H77.2558L77.2836 24.5607L77.2558 24.5329Z" fill="#100F0D"/>
<path fill-rule="evenodd" clip-rule="evenodd" d="M77.318 24.7061V24.6783L77.2836 24.5329L77.1448 24.5884L77.2003 24.7061L77.2281 24.7338L77.2558 24.7611L77.318 24.7061Z" fill="#100F0D"/>
<path fill-rule="evenodd" clip-rule="evenodd" d="M77.0827 26.1534L77.318 24.706L77.2004 24.6782L76.9651 26.1257V26.1812L76.9994 26.209H77.0549L77.0827 26.1534Z" fill="#100F0D"/>
<path fill-rule="evenodd" clip-rule="evenodd" d="M78.4125 26.6175L77.0549 26.0909L76.9994 26.2091L78.3848 26.7559H78.4403L78.4746 26.7008V26.6731L78.4125 26.6175Z" fill="#100F0D"/>
<path fill-rule="evenodd" clip-rule="evenodd" d="M78.558 26.7559L78.5302 26.7287L78.4404 26.6454L78.3571 26.7287L78.4404 26.8185L78.5025 26.8463L78.5302 26.8185L78.558 26.7559Z" fill="#100F0D"/>
<path fill-rule="evenodd" clip-rule="evenodd" d="M79.0775 28.1205L78.558 26.7558L78.4126 26.7906L78.9665 28.176L78.9942 28.2316H79.0498L79.0775 28.176V28.1205Z" fill="#100F0D"/>
<path fill-rule="evenodd" clip-rule="evenodd" d="M80.4694 27.8575L79.022 28.0857L79.0497 28.2316L80.4972 27.9751H80.5528V27.913L80.525 27.8852L80.4694 27.8575Z" fill="#100F0D"/>
<path fill-rule="evenodd" clip-rule="evenodd" d="M80.6425 27.8852L80.4971 27.8575L80.4694 27.9751L80.6148 28.0306H80.6425L80.6703 27.9751V27.9473L80.6425 27.8852Z" fill="#100F0D"/>
<path fill-rule="evenodd" clip-rule="evenodd" d="M81.7993 28.841L80.6704 27.913L80.5806 28.0029L81.7095 28.9586H81.7716L81.8271 28.9308V28.8965L81.7993 28.841Z" fill="#100F0D"/>
<path fill-rule="evenodd" clip-rule="evenodd" d="M82.8661 27.913L81.7095 28.841L81.7993 28.9586L82.956 28.0029L82.9838 27.9751L82.956 27.913L82.9287 27.8852L82.8661 27.913Z" fill="#100F0D"/>
<path fill-rule="evenodd" clip-rule="evenodd" d="M83.067 27.8575H83.0392L82.8938 27.8852L82.9286 28.0306L83.067 27.9751L83.1013 27.9473L83.1291 27.913L83.067 27.8575Z" fill="#100F0D"/>
<path fill-rule="evenodd" clip-rule="evenodd" d="M84.5146 28.0857L83.0671 27.8575L83.0393 27.9751L84.4868 28.2316L84.5423 28.2038L84.5772 28.176V28.1205L84.5146 28.0857Z" fill="#100F0D"/>
<path fill-rule="evenodd" clip-rule="evenodd" d="M84.9786 26.7559L84.4591 28.1206L84.5772 28.1761L85.124 26.7908V26.7287L85.069 26.7009H85.0064L84.9786 26.7559Z" fill="#100F0D"/>
<path fill-rule="evenodd" clip-rule="evenodd" d="M85.1239 26.6175L85.0961 26.6453L85.0062 26.7286L85.0961 26.8185L85.1794 26.7286L85.2072 26.6731L85.1794 26.6453L85.1239 26.6175Z" fill="#100F0D"/>
<path fill-rule="evenodd" clip-rule="evenodd" d="M86.4816 26.0909L85.124 26.6175L85.1518 26.7559L86.5372 26.2091L86.572 26.1813V26.1258L86.5372 26.0909H86.4816Z" fill="#100F0D"/>
<path fill-rule="evenodd" clip-rule="evenodd" d="M86.2256 24.7061L86.4538 26.1536L86.5719 26.1258L86.3362 24.6783V24.6157H86.2806L86.2534 24.6506L86.2256 24.7061Z" fill="#100F0D"/>
<path fill-rule="evenodd" clip-rule="evenodd" d="M86.2534 24.5329L86.2256 24.6783L86.3362 24.7061L86.3988 24.5884V24.5329L86.3362 24.5051H86.2806L86.2534 24.5329Z" fill="#100F0D"/>
<path fill-rule="evenodd" clip-rule="evenodd" d="M87.209 23.3763L86.2805 24.5329L86.3638 24.6157L87.3196 23.4591V23.404L87.2918 23.3485H87.264L87.209 23.3763Z" fill="#100F0D"/>
<path fill-rule="evenodd" clip-rule="evenodd" d="M86.2807 22.3024L87.2092 23.4591L87.3197 23.3763L86.364 22.2196L86.3362 22.1919L86.2807 22.2196L86.2534 22.2474L86.2807 22.3024Z" fill="#100F0D"/>
<path fill-rule="evenodd" clip-rule="evenodd" d="M86.2256 22.164L86.2534 22.2745L86.3988 22.2473L86.3362 22.1019L86.3084 22.0741H86.2806L86.2256 22.1019V22.164Z" fill="#100F0D"/>
<path fill-rule="evenodd" clip-rule="evenodd" d="M76.8126 50.0836L76.7293 49.9659L76.6394 49.8554L76.5561 49.7443L76.4456 49.6544L76.3623 49.5711L76.2724 49.5156L76.1613 49.4606L76.0508 49.4328L75.9331 49.3702L75.822 49.3424L75.7387 49.3152L75.6211 49.2874H75.5105L75.3995 49.2596H75.3167H75.1985H20.0724H19.9615H19.8507H19.733H19.5945L19.4836 49.2874H19.3382L19.1996 49.3152L19.0542 49.3702L18.9157 49.4328L18.7702 49.4883L18.6594 49.5989L18.5209 49.71L18.4031 49.8554L18.2646 50.0215L18.1538 50.2502L18.0637 50.4784L18.2923 40.4909L18.4585 40.6086L18.604 40.6919L18.7425 40.7469L18.888 40.8024L19.0265 40.858L19.1719 40.9135L19.2827 40.9478L19.4213 40.9756L19.5667 41.0034H19.6776L19.823 41.0312H19.9338H20.0724H20.2178H20.3286H20.4395H73.4739H73.6193H73.7859H73.9242H74.0974L74.2357 41.0034L74.4089 40.9756L74.5477 40.9478L74.7209 40.9135L74.8592 40.8857L75.0046 40.858L75.1435 40.8024L75.2818 40.7469L75.3995 40.6919L75.5383 40.6363L75.6559 40.5737L75.7387 40.4909L76.8126 50.0836Z" fill="#100F0D"/>
<path fill-rule="evenodd" clip-rule="evenodd" d="M75.1986 49.3425H75.5934L75.7116 49.3703L75.8221 49.4051L75.9332 49.4329L76.0231 49.4884L76.1336 49.5157L76.2169 49.5712L76.3346 49.6268L76.4179 49.7101L76.5007 49.7999L76.584 49.8832L76.6739 49.9938L76.7572 50.1115L76.8682 50.0494L76.7849 49.9105L76.7016 49.7999L76.584 49.6823L76.5007 49.6268L76.4179 49.5435L76.3002 49.4607L76.1892 49.4051L76.0786 49.3425L75.9605 49.3153L75.8499 49.2875L75.7388 49.2597L75.6212 49.232H75.5106L75.3996 49.2042H75.3168H75.1986V49.3425Z" fill="#100F0D"/>
<path fill-rule="evenodd" clip-rule="evenodd" d="M20.0724 49.3425H75.1986V49.2042H20.0724H20.017V49.2597V49.3153L20.0724 49.3425Z" fill="#100F0D"/>
<path fill-rule="evenodd" clip-rule="evenodd" d="M18.1191 50.5063L18.2091 50.2781L18.32 50.0837L18.4308 49.9105L18.5762 49.7722L18.6871 49.6546L18.8325 49.5435L18.971 49.4885L19.0819 49.4329L19.1996 49.3703L19.3381 49.3426H19.4836L19.6221 49.3153H19.733H19.8507L19.9615 49.3426H20.0723V49.2042H19.9615H19.8507H19.733H19.5944H19.449L19.3381 49.232L19.1996 49.2598L19.0265 49.2875L18.8879 49.3703L18.7425 49.4329L18.604 49.5435L18.4585 49.6823L18.3477 49.8277L18.2091 49.9938L18.1191 50.1948L18.0083 50.4508V50.5063L18.036 50.5341H18.0914L18.1191 50.5063Z" fill="#100F0D"/>
<path fill-rule="evenodd" clip-rule="evenodd" d="M18.2369 40.4909L18.0083 50.4784H18.1191L18.3754 40.4909L18.3477 40.4632L18.2923 40.4354L18.2646 40.4632L18.2369 40.4909Z" fill="#100F0D"/>
<path fill-rule="evenodd" clip-rule="evenodd" d="M20.4395 40.9758H19.823L19.7053 40.948H19.5668L19.449 40.9137L19.3105 40.8859L19.172 40.8581L19.0266 40.8026L18.9157 40.7471L18.7703 40.692L18.6317 40.6365L18.4932 40.5466L18.3478 40.4356L18.2646 40.5466L18.4309 40.6643L18.5763 40.7471L18.7148 40.8026L18.8603 40.8581L18.9988 40.9137L19.1374 40.9758L19.2828 41.0036L19.4213 41.0313L19.5391 41.0591H19.6776L19.823 41.0869H19.9339L20.0724 41.1146H20.2179H20.3287H20.4395V40.9758Z" fill="#100F0D"/>
<path fill-rule="evenodd" clip-rule="evenodd" d="M73.474 40.9758H20.4396V41.1146H73.474L73.5017 41.0869L73.5295 41.0313L73.5017 41.0036L73.474 40.9758Z" fill="#100F0D"/>
<path fill-rule="evenodd" clip-rule="evenodd" d="M75.7115 40.4633L75.6211 40.5189L75.5105 40.5739L75.3995 40.6365L75.2541 40.692L75.1157 40.7471L74.9769 40.7748L74.8315 40.8304L74.6932 40.8581L74.5477 40.8859L74.4089 40.9137L74.2357 40.948H74.0696L73.9242 40.9758H73.7859H73.6193H73.4739V41.1146H73.6193L73.7859 41.0869H73.9242H74.0974L74.2635 41.0591L74.4089 41.0313H74.5755L74.7209 40.9758L74.887 40.948L75.0324 40.9137L75.1708 40.8581L75.3167 40.8304L75.4272 40.7471L75.5656 40.692L75.6837 40.6365L75.7943 40.5466L75.8221 40.5189L75.7943 40.4633L75.7665 40.4356L75.7115 40.4633Z" fill="#100F0D"/>
<path fill-rule="evenodd" clip-rule="evenodd" d="M76.8683 50.0493L75.8222 40.491L75.6838 40.5187L76.7572 50.0836L76.785 50.1114L76.8127 50.1392L76.8405 50.1114L76.8683 50.0493Z" fill="#100F0D"/>
<path fill-rule="evenodd" clip-rule="evenodd" d="M2.68052 42.4994L10.5973 41.8209H10.8813L11.1929 41.8486L11.4492 41.9314L11.7055 42.0496L11.9271 42.1879L12.128 42.3611L12.3219 42.555L12.4951 42.7837L12.6613 43.0396L12.8068 43.3239L12.9176 43.6011L13.0007 43.9126L13.0908 44.2241L13.1739 44.5634L13.2016 44.8754L13.2293 45.2147L13.257 45.5539L13.2293 45.8937V46.233L13.1739 46.5723L13.1184 46.8838L13.0284 47.1958L12.9453 47.4795L12.8345 47.7638L12.7237 48.0127L12.5782 48.2414L12.412 48.4701L12.2388 48.6362L12.0449 48.7816L11.8163 48.9204L11.5877 48.9755L11.3661 49.031L3.04762 49.7722L3.15844 51.102H3.18616L3.24851 51.1298L3.30389 51.1853L3.41471 51.2403L3.52553 51.3514L3.67099 51.4413L3.86491 51.5524L4.0658 51.6629L4.26664 51.8083L4.516 51.9472L4.77227 52.0926L5.05627 52.2587L5.34021 52.397L5.65192 52.5702L5.9913 52.7368L6.33067 52.91L6.69777 53.0761L7.06487 53.2492L7.43196 53.3876L7.82677 53.533L8.22154 53.6996L8.64407 53.8172L9.0458 53.9556L9.46828 54.0666L9.89081 54.1843L10.3133 54.2676L10.7427 54.3504L11.1929 54.3782L11.6154 54.4337L12.0449 54.468L12.4674 54.4337H12.9176L13.3401 54.3782L13.7418 54.2948L14.1366 54.1843L14.5314 54.0389L14.8985 53.8728L15.2379 53.6718L15.5773 53.478L15.9167 53.2215L16.256 52.965L16.54 52.6813L16.824 52.3698L17.101 52.0577L17.3573 51.6907L17.6136 51.3514L17.8699 50.9844L18.0638 50.5896L18.2647 50.1947L18.4586 49.7722L18.6318 49.3425L18.798 48.9204L18.9434 48.4701L19.082 48.0127L19.1997 47.5628L19.2828 47.1125L19.366 46.6278L19.4491 46.1497L19.4837 45.6993L19.5391 45.2147V44.7365V44.2519V43.8015L19.5114 43.3239L19.4491 42.9846L19.3937 42.6448L19.3105 42.2712L19.1997 41.9314L19.0543 41.5922L18.9158 41.2529L18.7703 40.9136L18.5763 40.6087L18.3755 40.2694L18.1539 39.9579L17.9253 39.6459L17.6967 39.3621L17.4405 39.0779L17.1634 38.7941L16.8794 38.5099L16.5677 38.2605L16.256 38.0045L15.9444 37.7758L15.605 37.5542L15.2933 37.3532L14.9262 37.1523L14.5868 36.9862L14.2197 36.8408L13.8526 36.7024L13.4855 36.5636L13.0908 36.4737L12.7237 36.3904L12.3219 36.3076L11.9548 36.2799L11.56 36.2521H11.1652L10.7981 36.2799L10.4034 36.3076L10.0016 36.3627L9.63453 36.446L9.26744 36.5358L8.90034 36.6469L8.56096 36.7575L8.22154 36.8756L7.88216 37.014L7.54278 37.1801L7.2034 37.3255L6.89169 37.4921L6.58003 37.6652L6.26832 37.8313L5.9913 38.0323L5.7073 38.2332L5.45103 38.3993L5.16709 38.6003L4.91081 38.7941L4.68917 38.9951L4.4329 39.1612L4.23201 39.3621L4.01037 39.556L3.80953 39.7292L3.61555 39.9301L3.44243 40.0962L3.27617 40.2694L3.13072 40.4077L2.99223 40.5466L2.87445 40.692L2.73596 40.8303L2.6528 40.9479L2.5697 41.0312L2.68052 42.4994Z" fill="#100F0D"/>
<path fill-rule="evenodd" clip-rule="evenodd" d="M10.5973 41.7653L2.68054 42.4444L2.70826 42.5549L10.5973 41.8764L10.6527 41.8486V41.8208L10.625 41.7653H10.5973Z" fill="#100F0D"/>
<path fill-rule="evenodd" clip-rule="evenodd" d="M11.366 49.0936L11.6153 49.0659L11.8439 48.9755L12.0725 48.8372L12.2664 48.6917L12.4673 48.4979L12.6335 48.2969L12.7789 48.0475L12.8898 47.791L13.0006 47.5073L13.1183 47.2236L13.1738 46.9116L13.2291 46.5723L13.2846 46.2608L13.3123 45.8937V45.5539L13.2846 45.2147L13.2569 44.8754L13.2291 44.5361L13.146 44.2241L13.0906 43.8848L12.9729 43.5733L12.862 43.2891L12.7236 43.0119L12.5504 42.7559L12.3841 42.5272L12.1833 42.3056L11.9547 42.1324L11.7331 41.9941L11.4768 41.8764L11.1928 41.7931L10.9088 41.7654H10.5972V41.8764H10.8812L11.1651 41.9037L11.4214 41.9941L11.6707 42.1046L11.8993 42.2157L12.1002 42.4166L12.2664 42.6105L12.4396 42.8115L12.6058 43.0674L12.7236 43.3517L12.862 43.6354L12.9452 43.9126L13.0283 44.2519L13.0906 44.5634L13.146 44.9032L13.1738 45.2424V45.5539V45.8937L13.146 46.233L13.1183 46.5445L13.0629 46.8838L12.9729 47.168L12.8898 47.4518L12.7789 47.736L12.6612 47.9854L12.5227 48.2136L12.3495 48.4146L12.1833 48.5807L11.9824 48.7261L11.8162 48.8372L11.5876 48.9205L11.366 48.9755V49.0936Z" fill="#100F0D"/>
<path fill-rule="evenodd" clip-rule="evenodd" d="M3.04769 49.8278L11.3662 49.0937V48.9755L3.04769 49.6824L3.01998 49.7101L2.99231 49.7722L3.01998 49.8L3.04769 49.8278Z" fill="#100F0D"/>
<path fill-rule="evenodd" clip-rule="evenodd" d="M3.24858 51.1021L3.10313 49.7444L2.99231 49.7722L3.10313 51.1021L3.1308 51.1576H3.18623L3.21395 51.1298L3.24858 51.1021Z" fill="#100F0D"/>
<path fill-rule="evenodd" clip-rule="evenodd" d="M12.8899 54.3504L12.4674 54.3782H11.6154L11.193 54.3226L10.7705 54.2676L10.341 54.2121L9.89083 54.1287L9.49601 54.0111L9.07353 53.9L8.64408 53.7546L8.24927 53.6163L7.85446 53.478L7.4597 53.3321L7.0926 53.1659L6.72551 53.0205L6.35841 52.8544L6.01903 52.6813L5.6796 52.5152L5.39566 52.342L5.08395 52.2032L4.80001 52.03L4.54373 51.8916L4.29438 51.7533L4.09349 51.6079L3.89265 51.4968L3.72639 51.3792L3.55327 51.2959L3.44245 51.2131L3.33163 51.1298L3.27619 51.0672L3.21389 51.0399L3.13074 51.1576H3.15846L3.18617 51.1853L3.27619 51.2404L3.35935 51.2959L3.49783 51.3792L3.64329 51.4968L3.80954 51.6079L4.01038 51.7185L4.23202 51.8639L4.4883 52.0022L4.74457 52.1481L5.02857 52.3142L5.31256 52.4596L5.62422 52.6257L5.9636 52.7989L6.30297 52.965L6.67007 53.1382L7.03717 53.3048L7.40426 53.4502L7.79907 53.6163L8.22155 53.7546L8.61637 53.9L9.04581 54.0111L9.44058 54.1287L9.89083 54.2398L10.3133 54.3226L10.7428 54.4059L11.193 54.468L11.6154 54.4958L12.0449 54.5236H12.4674L12.9176 54.4958L12.8899 54.3504Z" fill="#100F0D"/>
<path fill-rule="evenodd" clip-rule="evenodd" d="M19.4213 43.3516L19.449 43.8014L19.4836 44.2518V44.7365L19.449 45.2146L19.4213 45.672L19.3659 46.1496L19.3104 46.6277L19.2273 47.0847L19.1373 47.535L19.0265 47.9854L18.888 48.4423L18.7425 48.8926L18.5762 49.3152L18.4031 49.7443L18.2091 50.1392L18.0083 50.5617L17.8144 50.9565L17.5581 51.2958L17.3296 51.6629L17.0456 52.0021L16.7962 52.3142L16.5122 52.6257L16.2005 52.9099L15.8888 53.1659L15.5495 53.4153L15.2101 53.6162L14.8707 53.8172L14.5036 53.9833L14.1088 54.1287L13.7417 54.2398L13.3123 54.2948L12.8898 54.3503L12.9175 54.4957L13.34 54.4336L13.7694 54.3503L14.1642 54.2398L14.5313 54.0944L14.9261 53.9277L15.2655 53.7268L15.6326 53.5329L15.972 53.277L16.2836 52.9927L16.5954 52.709L16.8793 52.397L17.1633 52.0925L17.4127 51.7532L17.6689 51.3791L17.9252 51.0121L18.1191 50.6173L18.32 50.2225L18.5209 49.7999L18.7148 49.3702L18.8602 48.9204L18.9988 48.4978L19.1373 48.0475L19.255 47.5628L19.3381 47.1124L19.4213 46.6277L19.5113 46.1496L19.539 45.6993L19.5944 45.2146V44.7365L19.6221 44.2518L19.5944 43.8014L19.5667 43.3238L19.4213 43.3516Z" fill="#100F0D"/>
<path fill-rule="evenodd" clip-rule="evenodd" d="M10.7982 36.3354L11.1653 36.3077H11.5601L11.9549 36.3354L12.322 36.3627L12.7237 36.446L13.0908 36.5359L13.4579 36.6469L13.825 36.7575L14.1921 36.9034L14.5591 37.0417L14.8986 37.2149L15.238 37.4088L15.5773 37.6097L15.9167 37.8314L16.2284 38.0601L16.5401 38.3161L16.8241 38.5725L17.1011 38.8219L17.3851 39.1057L17.6414 39.3899L17.8976 39.7014L18.1193 40.0129L18.3201 40.325L18.521 40.6365L18.7149 40.948L18.8604 41.2878L18.9989 41.627L19.1375 41.9663L19.2552 42.3056L19.3383 42.6449L19.3937 42.9846L19.4214 43.3517L19.5669 43.3239L19.5115 42.9846L19.4491 42.6105L19.366 42.2712L19.2552 41.9315L19.1375 41.5644L18.9989 41.2251L18.8327 40.8859L18.6318 40.5739L18.4309 40.2346L18.2093 39.9301L17.9807 39.6181L17.7245 39.3066L17.4751 39.0224L17.1912 38.7386L16.9072 38.4549L16.6232 38.1984L16.3115 37.9768L15.9721 37.7203L15.6604 37.4921L15.3211 37.2977L14.954 37.125L14.6146 36.9307L14.2475 36.7853L13.8804 36.6469L13.4856 36.5015L13.1185 36.3905L12.7237 36.3077L12.3497 36.2521L11.9549 36.2243L11.5601 36.1966H11.1653L10.7705 36.2243L10.7982 36.3354Z" fill="#100F0D"/>
<path fill-rule="evenodd" clip-rule="evenodd" d="M2.62499 41.0313V41.0868L2.70809 40.9757L2.79119 40.8581L2.90893 40.747L3.04747 40.6087L3.18601 40.4355L3.33146 40.2972L3.49767 40.124L3.67084 39.9579L3.86476 39.7847L4.06565 39.6181L4.26649 39.4172L4.48813 39.2167L4.71669 39.0224L4.97297 38.8492L5.19461 38.6553L5.4786 38.4549L5.73488 38.2883L6.01887 38.0873L6.30281 37.8935L6.6076 37.7203L6.91926 37.5542L7.23097 37.381L7.57035 37.2427L7.88201 37.0973L8.22139 36.9584L8.56082 36.813L8.92791 36.7024L9.29501 36.5914L9.6621 36.5015L10.0361 36.446L10.4032 36.3627L10.798 36.3354L10.7703 36.2243L10.4032 36.2521L10.0015 36.3076L9.63439 36.3904L9.26729 36.4737L8.9002 36.5914L8.5331 36.7024L8.19372 36.813L7.85429 36.9584L7.51492 37.125L7.17554 37.2704L6.86388 37.4365L6.55217 37.6097L6.24051 37.7758L5.96343 37.9768L5.67944 38.1706L5.3955 38.3438L5.13922 38.5377L4.88295 38.7386L4.63359 38.9396L4.40503 39.1334L4.17647 39.3066L3.95483 39.5005L3.78166 39.6736L3.58774 39.8675L3.41457 40.0407L3.24836 40.2068L3.07519 40.3522L2.93665 40.5188L2.81891 40.6642L2.70809 40.7748L2.59727 40.8859L2.5072 41.0035V41.059L2.62499 41.0313Z" fill="#100F0D"/>
<path fill-rule="evenodd" clip-rule="evenodd" d="M2.76348 42.4994L2.62499 41.0312L2.5072 41.059L2.62499 42.4994L2.65266 42.5549H2.70809H2.73581L2.76348 42.4994Z" fill="#100F0D"/>
<path fill-rule="evenodd" clip-rule="evenodd" d="M87.5897 41.1146L81.2525 41.6821L81.0238 41.7099L80.8021 41.7654L80.6012 41.8765L80.4351 41.9941L80.2619 42.1325L80.1231 42.3056L80.0054 42.4995L79.8949 42.7005L79.8116 42.9221L79.7282 43.1508L79.6662 43.4068L79.6384 43.6633L79.6106 43.9127V44.1964V44.4529L79.6384 44.7366L79.701 44.9931L79.756 45.2425L79.8116 45.5263L79.8949 45.7827L79.9777 46.0114L80.068 46.2608L80.1786 46.4613L80.3174 46.6557L80.4628 46.8561L80.6012 47.0293L80.7466 47.1681L80.9127 47.2787L81.0859 47.3691L81.2797 47.4241L81.4529 47.4518H81.6473L88.2965 46.8839L88.4071 47.9577H88.3793L88.3515 47.9855L88.2965 48.0476L88.241 48.1031L88.1577 48.1859L88.04 48.297L87.929 48.3869L87.7835 48.5257L87.6174 48.6641L87.4443 48.8095L87.2782 48.9478L87.0772 49.121L86.8556 49.2876L86.6269 49.4608L86.3987 49.6269L86.1493 49.8278L85.8928 49.9939L85.6368 50.1671L85.3526 50.3609L85.0688 50.5341L84.7568 50.7002L84.4801 50.8734L84.1681 51.0122L83.8566 51.1854L83.5173 51.296L83.2053 51.4414L82.8661 51.5525L82.5545 51.663L82.2148 51.7534L81.8755 51.8362L81.5362 51.8917L81.1969 51.9195L80.8577 51.9473L80.5179 51.9195L80.1786 51.8917L79.8671 51.8362L79.5551 51.7807L79.2436 51.663L78.9321 51.5247L78.6478 51.3793L78.3711 51.2404L78.0869 51.04L77.8032 50.8456L77.5467 50.6174L77.2902 50.3887L77.0413 50.1393L76.8126 49.8833L76.5839 49.6269L76.3622 49.3153L76.1613 49.0311L75.9604 48.7262L75.7665 48.3869L75.5933 48.0754L75.4272 47.7361L75.2818 47.3963L75.1435 47.0293L75.0046 46.69L74.887 46.3159L74.7759 45.9488L74.6931 45.5818L74.6033 45.2147L74.5477 44.8477L74.4922 44.4807L74.4644 44.1136L74.4366 43.8294V43.5456L74.4644 43.2614L74.4922 42.9569L74.5477 42.6727L74.6033 42.389L74.6931 42.1047L74.8037 41.821L74.9148 41.5367L75.0324 41.253L75.1707 41.0036L75.3166 40.7198L75.4828 40.4634L75.6559 40.2069L75.8498 39.958L76.0507 39.7015L76.2724 39.4728L76.4733 39.2511L76.7015 39.0224L76.9509 38.822L77.2074 38.6004L77.4634 38.4272L77.7199 38.2606L77.9693 38.0874L78.253 37.9491L78.5373 37.8037L78.821 37.6926L79.133 37.582L79.4167 37.4922L79.7282 37.4089L80.0403 37.3533L80.3447 37.3256L80.6567 37.2978H80.9405H81.2525L81.564 37.3256L81.8755 37.3533L82.1597 37.4089L82.4435 37.4644L82.7555 37.5194L83.0322 37.582L83.2886 37.6653L83.5724 37.7481L83.8566 37.8592L84.1126 37.9491L84.362 38.0601L84.6185 38.1707L84.8472 38.2606L85.0688 38.3994L85.297 38.51L85.5257 38.6276L85.7196 38.7387L85.9483 38.8493L86.1144 38.9674L86.3154 39.1057L86.4885 39.2168L86.6546 39.3067L86.7935 39.4173L86.9389 39.5283L87.0772 39.6182L87.1949 39.7293L87.3059 39.7848L87.3887 39.8676L87.472 39.958L87.5897 41.1146Z" fill="#100F0D"/>
<path fill-rule="evenodd" clip-rule="evenodd" d="M81.2797 41.7377L87.5896 41.1697V41.0591L81.2524 41.6271H81.2247L81.1969 41.6821L81.2247 41.7099L81.2797 41.7377Z" fill="#100F0D"/>
<path fill-rule="evenodd" clip-rule="evenodd" d="M81.6474 47.3962H81.4808L81.2798 47.3689L81.1137 47.3063L80.9406 47.2235L80.8022 47.1125L80.629 46.967L80.4902 46.8009L80.3796 46.6278L80.2342 46.4339L80.1232 46.2052L80.0404 45.9765L79.95 45.7548L79.8672 45.4989L79.8116 45.2424L79.7561 44.993L79.7011 44.7092V44.4528V44.1963V43.9125V43.6631L79.7561 43.4067L79.8116 43.1785L79.8672 42.9568L79.95 42.7281L80.0681 42.5272L80.1787 42.3611L80.3175 42.1879L80.4629 42.0496L80.629 41.9314L80.83 41.8486L81.0239 41.7653L81.2798 41.7375L81.2526 41.627L80.9961 41.6547L80.7745 41.7098L80.5735 41.8208L80.3796 41.9663L80.2342 42.1046L80.0681 42.2712L79.95 42.4716L79.8394 42.6726L79.7561 42.8942L79.6662 43.1507L79.6107 43.4067L79.5829 43.6631L79.5552 43.9125V44.1963V44.4528L79.5829 44.7365L79.6385 45.0208L79.6662 45.2702L79.7561 45.5261L79.8116 45.7826L79.9227 46.0391L80.0055 46.288L80.1232 46.4889L80.262 46.7176L80.4074 46.8837L80.5457 47.0569L80.7189 47.1958L80.885 47.3341L81.0582 47.424L81.2526 47.4795L81.453 47.535H81.6474V47.3962Z" fill="#100F0D"/>
<path fill-rule="evenodd" clip-rule="evenodd" d="M88.2966 46.8287L81.6473 47.3962V47.535L88.2966 46.9393L88.3516 46.9115V46.8837V46.8287H88.2966Z" fill="#100F0D"/>
<path fill-rule="evenodd" clip-rule="evenodd" d="M88.4348 47.9854L88.4626 47.9299L88.3515 46.8838H88.241L88.3238 47.9577L88.3515 47.9854L88.4071 48.0127L88.4348 47.9854Z" fill="#100F0D"/>
<path fill-rule="evenodd" clip-rule="evenodd" d="M81.1969 51.9749L81.5362 51.9471L81.8755 51.8915L82.2147 51.8082L82.5545 51.7184L82.8938 51.6351L83.2331 51.4967L83.5446 51.3791L83.8844 51.2403L84.1959 51.0671L84.5074 50.9287L84.8194 50.7626L85.0961 50.5895L85.3803 50.4234L85.664 50.2224L85.9483 50.0493L86.2048 49.8832L86.4264 49.6822L86.6824 49.5156L86.9111 49.3424L87.105 49.1763L87.3059 49.0032L87.5068 48.8648L87.673 48.726L87.8183 48.5806L87.9567 48.4422L88.0955 48.3246L88.1854 48.2413L88.2687 48.1585L88.3515 48.0752L88.407 48.0474L88.4348 48.0126V47.9853L88.3515 47.902L88.2965 47.9576L88.2687 47.9853L88.1854 48.0474L88.0955 48.1307L88.0122 48.2413L87.8739 48.3524L87.7285 48.47L87.5896 48.6083L87.4165 48.7537L87.2226 48.9204L87.0494 49.0658L86.8278 49.2319L86.5991 49.405L86.3709 49.5989L86.1144 49.7721L85.865 49.9382L85.5812 50.1114L85.3248 50.3052L85.041 50.4784L84.729 50.645L84.4523 50.8182L84.1403 50.9565L83.8288 51.1019L83.5173 51.2403L83.1775 51.3791L82.866 51.4967L82.5267 51.6078L82.1875 51.6906L81.8477 51.7805L81.5084 51.836L81.1969 51.8638V51.9749Z" fill="#100F0D"/>
<path fill-rule="evenodd" clip-rule="evenodd" d="M74.4089 44.1135L74.4367 44.4806L74.4922 44.8476L74.5478 45.2146L74.6376 45.5817L74.721 45.9765L74.8315 46.3506L74.9426 46.6899L75.088 47.0569L75.2263 47.424L75.3717 47.7638L75.5383 48.103L75.7115 48.4423L75.9054 48.7538L76.1063 49.0658L76.3002 49.3703L76.5284 49.6545L76.7571 49.9383L77.0136 50.1947L77.263 50.4507L77.4912 50.6724L77.7755 50.9011L78.0314 51.102L78.3364 51.2959L78.6201 51.4413L78.9044 51.6079L79.2159 51.7185L79.5279 51.8361L79.8394 51.9194L80.1787 51.9472L80.5179 52.0022H80.8577L81.197 51.9749V51.8639H80.8577H80.5179L80.2064 51.8361L79.8671 51.7806L79.5551 51.6907L79.2714 51.6079L78.9599 51.469L78.6756 51.3514L78.3985 51.1853L78.1147 50.9844L77.8305 50.7905L77.6023 50.5896L77.3529 50.3608L77.0964 50.1114L76.8682 49.8555L76.6395 49.5712L76.4178 49.2875L76.2169 49.0032L76.023 48.6917L75.8221 48.3524L75.656 48.0475L75.4828 47.7082L75.344 47.369L75.1986 46.9948L75.0602 46.6556L74.9426 46.288L74.8593 45.921L74.7487 45.5817L74.6932 45.2146L74.6033 44.8198L74.5478 44.4528L74.52 44.0857L74.4089 44.1135Z" fill="#100F0D"/>
<path fill-rule="evenodd" clip-rule="evenodd" d="M80.3174 37.2704L80.0054 37.2977L79.701 37.3532L79.4167 37.4365L79.1052 37.5193L78.7932 37.6375L78.5095 37.748L78.2252 37.8935L77.9415 38.0323L77.6921 38.1984L77.4083 38.3716L77.1519 38.5725L76.8954 38.7664L76.6737 38.9673L76.4455 39.189L76.2168 39.4172L75.9952 39.6459L75.7942 39.8953L75.5933 40.1518L75.4272 40.4077L75.254 40.692L75.1157 40.9757L74.9768 41.2251L74.8314 41.5094L74.7209 41.7931L74.6376 42.0769L74.5477 42.3611L74.4922 42.6726L74.4366 42.9569L74.4089 43.2335L74.3816 43.5455V43.8293L74.4089 44.1135L74.5199 44.0858L74.4922 43.8293V43.5455L74.5199 43.2613L74.5477 42.9846L74.6032 42.7004L74.6931 42.4166L74.7486 42.1324L74.8592 41.8487L74.9768 41.5644L75.0879 41.2877L75.2263 41.0313L75.3717 40.747L75.5383 40.491L75.7114 40.2346L75.9053 39.9852L76.1063 39.7292L76.3001 39.5005L76.5283 39.2788L76.757 39.0779L76.9787 38.8492L77.2352 38.6553L77.4911 38.4821L77.7476 38.316L77.997 38.1429L78.2808 38.0045L78.565 37.8591L78.8487 37.748L79.133 37.6375L79.4445 37.5542L79.7282 37.4921L80.0402 37.4365L80.3447 37.381L80.3174 37.2704Z" fill="#100F0D"/>
<path fill-rule="evenodd" clip-rule="evenodd" d="M87.5347 39.9302V39.8954L87.4443 39.8121L87.3338 39.757L87.2227 39.6737L87.1051 39.5904L86.9667 39.4728L86.8279 39.3622L86.6825 39.2511L86.5164 39.1613L86.3432 39.0502L86.1771 38.9396L85.9762 38.7942L85.7752 38.6832L85.5536 38.5726L85.3526 38.4549L85.0962 38.3439L84.8745 38.1985L84.6185 38.0874L84.3898 37.9768L84.1404 37.8935L83.8567 37.7759L83.6002 37.6926L83.3165 37.6098L83.0322 37.5194L82.7556 37.4644L82.4713 37.4088L82.1876 37.3533L81.8756 37.2978L81.564 37.2705L81.2525 37.2427H80.9405H80.6568L80.3175 37.2705L80.3448 37.3811H80.6568H80.9405H81.2525H81.564L81.8478 37.4088L82.1598 37.4644L82.4435 37.5194L82.7207 37.582L83.0045 37.6653L83.2887 37.7204L83.5447 37.8037L83.8289 37.9213L84.0783 38.0046L84.3343 38.1152L84.5908 38.2333L84.8195 38.3161L85.0411 38.4549L85.2693 38.5726L85.498 38.6832L85.6919 38.7942L85.9206 38.9119L86.0867 39.0224L86.2877 39.1613L86.4538 39.2511L86.5992 39.3622L86.7658 39.4728L86.9112 39.5904L87.0218 39.6737L87.1672 39.757L87.2505 39.8398L87.3615 39.9302L87.4443 39.9852L87.4166 39.958L87.5347 39.9302Z" fill="#100F0D"/>
<path fill-rule="evenodd" clip-rule="evenodd" d="M87.6452 41.1145L87.5346 39.9301L87.4165 39.9579L87.5346 41.1145V41.1696H87.5897H87.6174L87.6452 41.1145Z" fill="#100F0D"/>
<path fill-rule="evenodd" clip-rule="evenodd" d="M16.9625 40.4356L16.7339 40.0685L16.5399 39.7292L16.2837 39.445L16.0551 39.1612L15.8058 38.9118L15.5495 38.6831L15.2655 38.4822L14.9815 38.3161L14.6976 38.1429L14.4205 38.0046L14.1365 37.8935L13.8248 37.7759L13.5409 37.6926L13.2292 37.6375L12.9175 37.582L12.6335 37.5542L12.3219 37.5194H12.0448L11.7608 37.4921L11.4768 37.5194L11.1929 37.5542H10.9089L10.6526 37.582L10.3756 37.6375L10.1193 37.6926L9.89073 37.7203L9.66217 37.7759L9.44048 37.8314L9.23964 37.8935L9.07344 37.949L8.87255 38.0046L8.73401 38.0323L8.76173 38.1707L8.92798 38.1151L9.1011 38.0601L9.29508 38.0046L9.49592 37.949L9.69676 37.8935L9.9184 37.8592L10.147 37.8036L10.4033 37.7481L10.6526 37.7203L10.9089 37.6926L11.1929 37.6653L11.4768 37.6375H11.7608H12.0448H12.3219L12.6058 37.6653L12.9175 37.7203L13.2015 37.7481L13.4854 37.8314L13.7972 37.9213L14.0811 38.0046L14.3582 38.1151L14.6422 38.2605L14.9261 38.3994L15.1824 38.6003L15.4664 38.7942L15.7157 39.0224L15.972 39.2511L16.2006 39.5283L16.4222 39.812L16.623 40.124L16.8517 40.4911L16.9625 40.4356Z" fill="white"/>
<path fill-rule="evenodd" clip-rule="evenodd" d="M71.521 42.3055V42.2157H21.3468V42.3611H71.521V42.3055Z" fill="white"/>
<path fill-rule="evenodd" clip-rule="evenodd" d="M84.9301 39.3622L84.4525 39.1057L83.9673 38.877L83.5175 38.7109L83.0601 38.6003L82.6375 38.4822L82.2149 38.3994L81.8206 38.3716L81.4531 38.3438L81.086 38.3716L80.719 38.3994L80.3797 38.4822L80.0404 38.5377L79.7284 38.6553L79.4169 38.7664L79.1331 38.9118L78.8767 39.0779L78.5929 39.2168L78.3713 39.3899L78.1148 39.5904L77.8861 39.757L77.6922 39.9579L77.4913 40.1518L77.3181 40.325L77.1242 40.5188L76.9788 40.692L76.8405 40.8859L76.7017 41.0591L76.5563 41.2252L76.4457 41.3706L76.3624 41.5094L76.2725 41.6271L76.1892 41.7376L76.2725 41.8209L76.3624 41.7099L76.4457 41.5922L76.5563 41.4539L76.6739 41.2878L76.785 41.1419L76.9233 40.9758L77.0687 40.7748L77.2353 40.6087L77.4085 40.4078L77.5746 40.2346L77.7755 40.0407L77.9694 39.8676L78.1981 39.6737L78.4263 39.5005L78.6757 39.3344L78.9322 39.1612L79.1882 39.0224L79.4724 38.9118L79.7839 38.7664L80.0959 38.6831L80.4074 38.6003L80.7467 38.5377L81.086 38.4822H81.4531H81.8206L82.2149 38.5377L82.6097 38.6003L83.0323 38.7109L83.4897 38.8492L83.9123 39.0224L84.3899 39.2168L84.8746 39.4727L84.9301 39.3622Z" fill="white"/>
</svg>
